<svg version="1.1" id="Layer_1" xmlns="http://www.w3.org/2000/svg" xmlns:xlink="http://www.w3.org/1999/xlink" x="0px" y="0px"
	 width="100%" viewBox="0 0 624 624" enable-background="new 0 0 624 624" xml:space="preserve">
<path fill="#000000" opacity="1.000000" stroke="none" 
	d="
M156.546021,355.393799 
	C141.586014,332.072784 129.474487,307.870667 124.355400,280.752380 
	C118.559204,250.047150 123.742134,221.542099 144.011154,197.129822 
	C160.873886,176.820114 183.229141,170.062790 209.040787,174.001129 
	C212.635529,174.549622 215.658600,176.259613 217.837418,179.234406 
	C231.946121,198.497208 245.098907,218.328476 253.525452,240.867722 
	C256.691681,249.336685 259.063995,258.012299 257.369019,267.210663 
	C256.197571,273.568024 253.197006,278.739166 247.352386,281.967773 
	C239.628204,286.234711 231.957626,290.600433 224.187256,294.781097 
	C220.558487,296.733459 220.202011,298.808533 222.532761,302.246399 
	C229.206818,312.090607 237.269226,320.767273 245.338303,329.382050 
	C270.171936,355.895203 295.577271,381.845093 323.679352,404.979767 
	C332.492584,412.235168 333.498535,411.993347 338.881104,402.010223 
	C341.331818,397.464783 343.930511,392.992279 346.208923,388.362091 
	C353.172882,374.210114 362.508362,371.695190 377.315399,374.233734 
	C392.997345,376.922302 406.711853,384.722137 420.289154,392.571930 
	C430.103424,398.246094 439.314514,404.841522 448.644623,411.271210 
	C454.826599,415.531433 456.868683,421.156982 457.384552,428.179932 
	C460.204132,466.563324 438.112183,491.329559 405.470398,503.289124 
	C376.857819,513.772400 348.974426,509.224640 321.622345,498.662994 
	C288.890137,486.023895 260.705200,465.974060 234.057983,443.555634 
	C203.865158,418.154205 178.500504,388.516052 156.546021,355.393799 
M351.650085,419.046814 
	C342.239227,432.188507 331.707520,434.179474 318.220795,425.281921 
	C315.306274,423.359131 312.414246,421.356934 309.746307,419.112610 
	C278.584808,392.898834 250.211349,363.819244 222.701950,333.881958 
	C216.182663,326.787292 209.818726,319.460785 204.901993,311.066284 
	C197.181412,297.884644 199.524750,287.211426 212.422470,279.046600 
	C219.444763,274.601166 226.830414,270.701233 234.214005,266.866852 
	C237.984833,264.908630 239.093903,262.368286 238.153015,258.340179 
	C237.013657,253.462372 235.759949,248.641342 233.799896,244.025864 
	C226.465714,226.755524 216.481186,211.029526 205.696472,195.766037 
	C204.248230,193.716354 202.434158,192.512573 199.892151,192.426041 
	C186.379059,191.966064 173.941833,195.078461 164.069962,204.734207 
	C144.368637,224.004166 138.663956,247.805557 142.964508,274.351898 
	C146.282562,294.833557 154.477661,313.609253 164.916077,331.357208 
	C193.030136,379.158295 230.188492,418.691010 275.359467,450.717468 
	C298.176392,466.894714 322.254242,480.653748 349.878204,486.990143 
	C368.187927,491.190094 386.167084,490.736206 403.641602,482.954681 
	C426.577911,472.741058 438.501099,455.550293 438.021973,433.345551 
	C437.939301,429.512726 436.778076,426.739868 433.545074,424.528442 
	C420.747650,415.774780 407.787354,407.296234 393.750427,400.633728 
	C386.838898,397.353210 379.861847,394.192535 372.138519,393.128052 
	C368.167755,392.580719 365.591644,393.738708 363.677887,397.477570 
	C360.038879,404.587036 355.962738,411.472748 351.650085,419.046814 
z"/>
<path fill="#000000" opacity="1.000000" stroke="none" 
	d="
M311.039368,128.575195 
	C353.696045,128.025650 391.694061,140.546707 424.947266,166.270538 
	C461.366486,194.443527 484.519775,231.207550 493.315277,276.688324 
	C495.824951,289.665680 496.606079,302.754425 496.321625,315.940094 
	C496.229431,320.213348 495.013550,323.855011 491.063812,326.021423 
	C483.991364,329.900726 476.593292,325.318848 476.194885,316.604248 
	C475.799744,307.961731 476.048157,299.308655 474.960175,290.676697 
	C470.584137,255.957687 456.061127,226.050125 432.193024,200.683319 
	C404.525177,171.278152 370.475281,154.241058 330.364014,149.685898 
	C322.292725,148.769287 314.063934,149.243454 305.907928,149.068161 
	C298.748779,148.914291 294.783875,145.431946 294.617767,139.168365 
	C294.449829,132.835739 297.796387,129.075089 304.051788,128.680435 
	C306.210144,128.544250 308.381073,128.607498 311.039368,128.575195 
z"/>
<path fill="#000000" opacity="1.000000" stroke="none" 
	d="
M308.465027,179.026810 
	C374.516357,176.578445 432.794159,224.900543 442.172302,289.485229 
	C443.324341,297.418945 443.583038,305.400116 443.318207,313.396942 
	C443.101776,319.932190 439.181885,323.601135 432.820404,323.407959 
	C426.912079,323.228546 423.112732,319.140381 423.355347,312.894928 
	C425.599579,255.127197 381.579224,209.715286 332.777008,200.820038 
	C325.217102,199.442062 317.577362,199.067627 309.895599,199.151947 
	C302.718414,199.230728 298.499481,195.810562 298.005127,189.799789 
	C297.535400,184.088043 301.057281,180.310226 308.465027,179.026810 
z"/>
<path fill="#000000" opacity="1.000000" stroke="none" 
	d="
M349.276428,237.639771 
	C379.472565,253.468460 394.489624,278.307190 395.217407,311.873718 
	C395.357147,318.318176 393.050598,321.904175 388.521820,323.465485 
	C381.074158,326.033112 374.604279,321.173492 374.770203,312.722229 
	C375.037537,299.101227 371.479462,286.671722 363.477264,275.706299 
	C352.245514,260.315430 336.998627,251.833054 317.942352,250.362915 
	C316.119293,250.222275 314.276733,250.333069 312.454010,250.189896 
	C306.221588,249.700378 302.612457,245.874771 302.630310,239.861511 
	C302.647888,233.927109 306.366943,229.942535 312.646057,229.781876 
	C325.325500,229.457458 337.419891,232.165939 349.276428,237.639771 
z"/>
</svg>