<svg version="1.1" id="Layer_1" xmlns="http://www.w3.org/2000/svg" xmlns:xlink="http://www.w3.org/1999/xlink" x="0px" y="0px"
	 width="100%" viewBox="0 0 735 386" enable-background="new 0 0 735 386" xml:space="preserve">
<path fill="#FEFEFE" opacity="1.000000" stroke="none" 
	d="
M564.000000,387.000000 
	C376.000000,387.000000 188.500000,387.000000 1.000000,387.000000 
	C1.000000,258.333344 1.000000,129.666672 1.000000,1.000000 
	C246.000000,1.000000 491.000000,1.000000 736.000000,1.000000 
	C736.000000,129.666672 736.000000,258.333344 736.000000,387.000000 
	C678.833313,387.000000 621.666687,387.000000 564.000000,387.000000 
M323.500122,19.787041 
	C286.184479,19.804201 248.868286,19.708305 211.553482,19.894699 
	C196.824463,19.968271 182.788559,30.415939 178.010712,44.119061 
	C172.762726,59.170479 176.851471,75.021339 188.434387,85.005753 
	C196.557144,92.007530 206.018448,94.459335 216.585175,94.450089 
	C318.037750,94.361259 419.490448,94.402367 520.943115,94.392967 
	C523.273132,94.392754 525.614868,94.357849 527.931396,94.134666 
	C544.724731,92.516777 559.021790,78.511574 561.051453,61.754128 
	C563.811646,38.964653 546.544922,19.837784 522.907654,19.812338 
	C456.771881,19.741140 390.636017,19.787231 323.500122,19.787041 
M512.499084,368.220398 
	C516.996704,368.198792 521.497681,368.281738 525.991333,368.136200 
	C540.097839,367.679382 554.263184,357.378815 558.888000,344.313843 
	C564.289978,329.053650 560.145935,312.923218 548.523315,302.941925 
	C539.914062,295.548401 529.885681,293.513275 518.848389,293.526276 
	C419.061981,293.643616 319.275360,293.593292 219.488831,293.601624 
	C216.324554,293.601868 213.149368,293.555267 209.997803,293.784943 
	C191.641754,295.122650 176.461136,310.913727 175.658051,329.282166 
	C174.736343,350.364227 192.274414,368.462708 215.138916,368.379852 
	C313.924622,368.021881 412.712372,368.222839 512.499084,368.220398 
M558.389954,208.630234 
	C559.341187,204.766739 560.834229,200.947571 561.154541,197.032471 
	C563.023743,174.185181 545.536743,156.639267 521.195251,156.641403 
	C421.382202,156.650162 321.569153,156.652084 221.756104,156.667603 
	C217.924835,156.668198 214.085037,156.639740 210.263779,156.868256 
	C191.680283,157.979645 176.359879,173.966141 175.658859,192.578629 
	C174.896210,212.827621 191.368118,231.517105 215.422806,231.453278 
	C317.401398,231.182739 419.381134,231.315567 521.360474,231.361832 
	C538.099182,231.369431 550.434326,224.349991 558.389954,208.630234 
z"/>
<path fill="#000000" opacity="1.000000" stroke="none" 
	d="
M324.000153,19.787039 
	C390.636017,19.787231 456.771881,19.741140 522.907654,19.812338 
	C546.544922,19.837784 563.811646,38.964653 561.051453,61.754128 
	C559.021790,78.511574 544.724731,92.516777 527.931396,94.134666 
	C525.614868,94.357849 523.273132,94.392754 520.943115,94.392967 
	C419.490448,94.402367 318.037750,94.361259 216.585175,94.450089 
	C206.018448,94.459335 196.557144,92.007530 188.434387,85.005753 
	C176.851471,75.021339 172.762726,59.170479 178.010712,44.119061 
	C182.788559,30.415939 196.824463,19.968271 211.553482,19.894699 
	C248.868286,19.708305 286.184479,19.804201 324.000153,19.787039 
z"/>
<path fill="#000000" opacity="1.000000" stroke="none" 
	d="
M511.999207,368.220398 
	C412.712372,368.222839 313.924622,368.021881 215.138916,368.379852 
	C192.274414,368.462708 174.736343,350.364227 175.658051,329.282166 
	C176.461136,310.913727 191.641754,295.122650 209.997803,293.784943 
	C213.149368,293.555267 216.324554,293.601868 219.488831,293.601624 
	C319.275360,293.593292 419.061981,293.643616 518.848389,293.526276 
	C529.885681,293.513275 539.914062,295.548401 548.523315,302.941925 
	C560.145935,312.923218 564.289978,329.053650 558.888000,344.313843 
	C554.263184,357.378815 540.097839,367.679382 525.991333,368.136200 
	C521.497681,368.281738 516.996704,368.198792 511.999207,368.220398 
z"/>
<path fill="#000000" opacity="1.000000" stroke="none" 
	d="
M558.213562,208.970367 
	C550.434326,224.349991 538.099182,231.369431 521.360474,231.361832 
	C419.381134,231.315567 317.401398,231.182739 215.422806,231.453278 
	C191.368118,231.517105 174.896210,212.827621 175.658859,192.578629 
	C176.359879,173.966141 191.680283,157.979645 210.263779,156.868256 
	C214.085037,156.639740 217.924835,156.668198 221.756104,156.667603 
	C321.569153,156.652084 421.382202,156.650162 521.195251,156.641403 
	C545.536743,156.639267 563.023743,174.185181 561.154541,197.032471 
	C560.834229,200.947571 559.341187,204.766739 558.213562,208.970367 
z"/>
</svg>