<svg version="1.1" id="Layer_1" xmlns="http://www.w3.org/2000/svg" xmlns:xlink="http://www.w3.org/1999/xlink" x="0px" y="0px"
	 width="100%" viewBox="0 0 193 70" enable-background="new 0 0 193 70" xml:space="preserve">
<path fill="#171515" opacity="1.000000" stroke="none" 
	d="
M160.000000,1.000002 
	C171.323624,1.000000 182.647247,1.000000 193.978149,0.999995 
	C193.985443,24.303633 193.985443,47.607277 193.985443,70.955460 
	C129.751495,70.955460 65.502937,70.955460 1.127193,70.955460 
	C1.127193,47.772068 1.127193,24.543205 1.127193,1.000000 
	C48.687099,1.000000 96.374893,1.000000 144.725983,1.343900 
	C138.467941,4.690924 131.517914,7.630709 124.645508,10.741979 
	C122.940720,11.513767 121.487396,12.841002 119.539062,13.895691 
	C117.692085,14.550499 116.224510,15.222532 114.418610,15.890684 
	C113.053879,16.236666 112.027489,16.586531 110.711487,16.950829 
	C110.214661,17.283133 110.007431,17.601004 109.431175,17.944866 
	C105.339218,19.570074 101.616302,21.169291 97.554474,22.805649 
	C96.447220,23.161201 95.678871,23.479612 94.581253,23.843464 
	C93.118568,24.493887 91.985161,25.098866 90.471802,25.769293 
	C87.062538,26.904396 84.033234,27.974054 80.656464,29.027214 
	C78.879997,29.688435 77.450996,30.366152 75.730148,31.051031 
	C74.949432,31.353065 74.460564,31.647940 73.595673,31.953632 
	C70.520241,33.166061 67.820824,34.367664 64.906067,35.536964 
	C64.384361,35.560402 64.152542,35.722649 63.641243,35.986801 
	C62.242184,36.511189 61.197155,37.040184 59.931660,37.555820 
	C59.406597,37.613930 59.173985,37.783909 58.692055,38.057434 
	C58.022198,38.297016 57.673645,38.531563 56.979073,38.765026 
	C54.430485,39.544388 52.227924,40.324829 49.739372,41.105644 
	C49.385151,41.899647 49.316925,42.693268 49.300610,43.600224 
	C49.352520,43.713554 49.595715,43.768429 49.763748,43.896797 
	C50.610466,44.023392 51.289150,44.021614 52.358002,44.130714 
	C55.164673,44.428070 57.581181,44.614548 60.311443,44.954689 
	C61.772598,45.156582 62.919994,45.204811 64.442665,45.396404 
	C65.881554,45.593258 66.945175,45.646751 68.374725,45.853020 
	C70.854485,46.198170 72.968315,46.390537 75.404541,46.677780 
	C76.173676,46.778957 76.620399,46.785263 77.420525,46.974789 
	C83.217339,47.644699 88.660751,48.131382 94.290451,48.697624 
	C94.476738,48.777180 94.880272,48.813023 94.880272,48.813023 
	C94.880272,48.813023 95.271797,48.708958 95.630981,48.876343 
	C100.013176,49.438175 104.036194,49.832623 108.387283,50.324654 
	C109.161942,50.355503 109.608521,50.288769 110.398743,50.388851 
	C111.500130,50.612034 112.257881,50.668404 113.227943,50.883324 
	C114.297256,51.043373 115.154266,51.044868 116.367836,51.162624 
	C117.464668,51.267838 118.204941,51.256794 119.211105,51.421688 
	C120.318878,51.650494 121.160759,51.703354 122.321671,51.900669 
	C123.794853,52.083580 124.949005,52.122036 126.470619,52.318291 
	C127.898056,52.528740 128.958023,52.581390 130.252762,52.738792 
	C130.656418,52.814545 130.825333,52.785553 131.359772,52.870758 
	C132.483978,52.980289 133.242661,52.975628 134.346252,53.116398 
	C135.429214,53.256340 136.167252,53.250851 137.207886,53.414577 
	C138.653595,53.674042 139.796707,53.764294 141.256409,53.995152 
	C142.029770,54.131325 142.486557,54.126888 143.194977,54.187790 
	C143.615952,54.216183 143.785278,54.179241 144.258453,54.305500 
	C145.704376,54.569435 146.846420,54.670170 148.410095,54.906349 
	C151.448502,54.907719 154.065323,54.773643 156.801086,54.663521 
	C156.920029,54.687466 157.077866,54.503143 157.421783,54.537170 
	C158.202454,54.433971 158.639206,54.296753 159.328064,54.163582 
	C159.720230,54.074688 159.860275,53.981747 160.280746,53.869118 
	C161.066025,53.615768 161.570892,53.382114 162.427109,53.140297 
	C164.223541,52.105976 165.668625,51.079819 167.255463,49.869881 
	C167.592010,49.445435 167.793991,49.210953 168.322403,48.945839 
	C169.802414,47.687626 170.963150,46.466221 172.404770,45.090591 
	C173.392288,43.880661 174.098938,42.824955 174.976746,41.473473 
	C176.013138,39.095325 176.878403,37.012962 177.969879,34.588860 
	C181.033813,21.660337 174.848969,9.328197 163.154312,3.956076 
	C161.912308,3.385537 161.042480,2.004851 160.000000,1.000002 
M30.254278,49.619194 
	C34.229023,47.997223 38.203766,46.375256 42.178513,44.753288 
	C42.077339,44.097317 41.976170,43.441349 41.874996,42.785381 
	C32.577633,41.967747 23.291012,40.766823 13.978045,40.505768 
	C9.773458,40.387909 7.071046,45.167469 7.927935,49.217525 
	C8.838220,53.519951 12.960473,56.103630 17.518847,54.698360 
	C21.630081,53.430935 25.550642,51.545013 30.254278,49.619194 
z"/>
<path fill="#B64B78" opacity="1.000000" stroke="none" 
	d="
M159.533875,1.000002 
	C161.042480,2.004851 161.912308,3.385537 163.154312,3.956076 
	C174.848969,9.328197 181.033813,21.660337 177.736725,34.597031 
	C177.277359,34.946930 176.812210,34.911503 176.841843,34.520298 
	C176.913940,33.083954 176.956406,32.038811 177.002731,30.543705 
	C176.600784,25.967627 178.687744,20.361544 173.710098,18.461529 
	C165.422836,15.298185 156.675522,13.308265 148.065506,11.038312 
	C144.750092,10.164241 141.258682,9.342093 137.887421,9.479176 
	C134.879288,9.601493 131.926239,11.078524 128.551453,11.967001 
	C125.408852,12.621815 122.663666,13.267365 119.918480,13.912914 
	C121.487396,12.841002 122.940720,11.513767 124.645508,10.741979 
	C131.517914,7.630709 138.467941,4.690924 145.194641,1.343900 
	C149.689255,1.000000 154.378510,1.000000 159.533875,1.000002 
z"/>
<path fill="#BD3FA1" opacity="1.000000" stroke="none" 
	d="
M172.123901,45.244812 
	C170.963150,46.466221 169.802414,47.687626 168.184265,48.620293 
	C163.557022,46.209785 159.555283,43.613831 155.182770,42.063702 
	C145.705017,38.703674 136.046829,35.848949 126.438492,32.864658 
	C124.877129,32.379707 123.202766,32.167103 121.564117,32.037731 
	C112.727913,31.340139 105.428062,26.762884 97.893379,22.768505 
	C101.616302,21.169291 105.339218,19.570074 109.730347,17.970354 
	C110.598297,17.980555 110.798035,17.991259 111.371040,18.004879 
	C112.490303,18.011564 113.236290,18.015331 114.076981,18.361143 
	C115.324684,22.858833 118.763962,23.877924 122.345688,25.043085 
	C125.560043,26.088741 129.215179,27.099377 131.520447,29.323195 
	C135.383102,33.049389 139.561127,34.748444 144.772125,35.108952 
	C154.835297,35.805149 164.113281,38.881557 172.123901,45.244812 
z"/>
<path fill="#BA36B6" opacity="1.000000" stroke="none" 
	d="
M122.002632,51.756218 
	C121.160759,51.703354 120.318878,51.650494 118.957809,51.214931 
	C117.619286,50.556984 116.799950,50.281734 115.672470,50.031483 
	C114.581436,50.279243 113.798538,50.502007 113.015640,50.724770 
	C112.257881,50.668404 111.500130,50.612034 110.398941,50.181961 
	C110.044434,49.532551 110.037170,49.256741 110.261803,48.839249 
	C110.437286,47.954857 110.384689,47.212051 110.332092,46.469246 
	C107.867889,47.020309 105.403694,47.571369 102.620316,48.129196 
	C101.876045,48.124905 101.450951,48.113850 100.844559,47.801689 
	C98.590225,42.406109 94.334305,41.439499 89.402084,40.867588 
	C86.171715,40.493019 83.042526,38.844669 79.987656,37.495853 
	C77.879639,36.565113 75.976181,35.171070 73.984642,33.643913 
	C73.982552,32.850105 73.977119,32.396458 73.971695,31.942812 
	C74.460564,31.647940 74.949432,31.353065 75.981857,31.163855 
	C78.015625,31.501810 79.505829,31.734102 81.333496,32.048214 
	C82.791359,32.419735 83.911758,32.709435 85.169342,33.316975 
	C87.802002,35.084225 90.147697,37.011574 92.833611,37.853279 
	C95.719429,38.757637 98.924728,38.642551 102.411652,38.984230 
	C105.897598,39.332634 108.962494,39.669106 112.155869,40.261703 
	C112.853035,41.003841 113.421738,41.489853 114.285034,42.166679 
	C120.048409,44.233971 125.517189,46.110455 131.393814,47.997883 
	C135.631409,48.703728 139.926468,48.416981 141.734406,52.825130 
	C141.309860,52.788464 141.140854,52.764805 140.657761,52.616280 
	C139.230331,52.328884 138.117004,52.166348 136.686356,52.042946 
	C135.579803,52.378372 134.790573,52.674671 134.001328,52.970966 
	C133.242661,52.975628 132.483978,52.980289 131.262665,52.767509 
	C130.519897,52.408043 130.259232,52.436035 130.018005,52.634041 
	C128.958023,52.581390 127.898056,52.528740 126.274010,52.122337 
	C124.474167,51.764465 123.238403,51.760342 122.002632,51.756218 
z"/>
<path fill="#A928CB" opacity="1.000000" stroke="none" 
	d="
M29.904785,49.775528 
	C25.550642,51.545013 21.630081,53.430935 17.518847,54.698360 
	C12.960473,56.103630 8.838220,53.519951 7.927935,49.217525 
	C7.071046,45.167469 9.773458,40.387909 13.978045,40.505768 
	C23.291012,40.766823 32.577633,41.967747 41.874996,42.785381 
	C41.976170,43.441349 42.077339,44.097317 42.178513,44.753288 
	C38.203766,46.375256 34.229023,47.997223 29.904785,49.775528 
z"/>
<path fill="#BC3CA7" opacity="1.000000" stroke="none" 
	d="
M97.554474,22.805649 
	C105.428062,26.762884 112.727913,31.340139 121.564117,32.037731 
	C123.202766,32.167103 124.877129,32.379707 126.438492,32.864658 
	C136.046829,35.848949 145.705017,38.703674 155.182770,42.063702 
	C159.555283,43.613831 163.557022,46.209785 167.865021,48.657104 
	C167.793991,49.210953 167.592010,49.445435 166.875305,49.876259 
	C165.597198,50.130474 164.840988,50.194530 163.811920,50.006104 
	C157.359802,46.472153 150.912430,45.090347 143.601166,46.996601 
	C142.134995,46.996456 141.068710,46.996017 139.838226,46.710236 
	C138.406357,45.381119 137.077774,44.402424 135.881470,43.282440 
	C130.298782,38.055908 124.128151,35.245632 116.110672,34.472878 
	C108.242722,33.714542 99.793274,31.642559 94.910530,23.798019 
	C95.678871,23.479612 96.447220,23.161201 97.554474,22.805649 
z"/>
<path fill="#BD4199" opacity="1.000000" stroke="none" 
	d="
M172.404770,45.090588 
	C164.113281,38.881557 154.835297,35.805149 144.772125,35.108952 
	C139.561127,34.748444 135.383102,33.049389 131.520447,29.323195 
	C129.215179,27.099377 125.560043,26.088741 122.345688,25.043085 
	C118.763962,23.877924 115.324684,22.858833 114.432632,18.450777 
	C117.962059,19.297205 121.213989,20.448572 124.502586,21.483406 
	C130.445389,23.353434 136.449905,25.035421 142.353378,27.019850 
	C147.307541,28.685173 152.282837,30.391897 157.016846,32.581711 
	C163.068237,35.380913 168.886734,38.683571 174.805603,41.769249 
	C174.098938,42.824955 173.392288,43.880661 172.404770,45.090588 
z"/>
<path fill="#BE458E" opacity="1.000000" stroke="none" 
	d="
M119.539062,13.895690 
	C122.663666,13.267365 125.408852,12.621815 128.918808,12.028559 
	C142.537704,17.168756 154.703644,24.151793 168.719543,26.071749 
	C170.167770,26.270132 171.409378,27.822422 172.796570,28.664619 
	C174.164459,29.495108 175.595520,30.221571 176.998871,30.993671 
	C176.956406,32.038811 176.913940,33.083954 176.490585,34.517853 
	C174.578796,34.050259 173.058685,33.173874 171.514450,32.342266 
	C169.225418,31.109556 167.043839,29.474348 164.597870,28.772640 
	C156.051620,26.320860 147.418823,24.167801 138.804962,21.955505 
	C130.798218,19.899137 122.773659,17.912119 114.756943,15.894566 
	C116.224510,15.222532 117.692085,14.550499 119.539062,13.895690 
z"/>
<path fill="#BD4393" opacity="1.000000" stroke="none" 
	d="
M114.418610,15.890684 
	C122.773659,17.912119 130.798218,19.899137 138.804962,21.955505 
	C147.418823,24.167801 156.051620,26.320860 164.597870,28.772640 
	C167.043839,29.474348 169.225418,31.109556 171.514450,32.342266 
	C173.058685,33.173874 174.578796,34.050259 176.460953,34.909058 
	C176.812210,34.911503 177.277359,34.946930 177.510513,34.938763 
	C176.878403,37.012962 176.013138,39.095325 174.976746,41.473473 
	C168.886734,38.683571 163.068237,35.380913 157.016846,32.581711 
	C152.282837,30.391897 147.307541,28.685173 142.353378,27.019850 
	C136.449905,25.035421 130.445389,23.353434 124.502586,21.483406 
	C121.213989,20.448572 117.962059,19.297205 114.337936,18.108734 
	C113.236290,18.015331 112.490303,18.011564 111.371841,17.738449 
	C110.999954,17.291533 111.000526,17.113966 111.001091,16.936398 
	C112.027489,16.586531 113.053879,16.236666 114.418610,15.890684 
z"/>
<path fill="#BC3BAB" opacity="1.000000" stroke="none" 
	d="
M94.581253,23.843464 
	C99.793274,31.642559 108.242722,33.714542 116.110672,34.472878 
	C124.128151,35.245632 130.298782,38.055908 135.881470,43.282440 
	C137.077774,44.402424 138.406357,45.381119 139.423157,46.703262 
	C136.444748,46.656723 133.717178,46.331821 130.613770,45.986099 
	C128.861557,45.473335 127.448860,45.063820 126.115059,44.475449 
	C119.661690,41.628727 113.328064,38.480095 106.760948,35.930576 
	C100.703613,33.578957 94.597649,31.547676 90.851761,25.703846 
	C91.985161,25.098866 93.118568,24.493887 94.581253,23.843464 
z"/>
<path fill="#B932BD" opacity="1.000000" stroke="none" 
	d="
M73.981308,33.984077 
	C75.976181,35.171070 77.879639,36.565113 79.987656,37.495853 
	C83.042526,38.844669 86.171715,40.493019 89.402084,40.867588 
	C94.334305,41.439499 98.590225,42.406109 100.362251,47.803146 
	C98.464752,48.306786 96.868271,48.507874 95.271797,48.708958 
	C95.271797,48.708958 94.880272,48.813023 94.880272,48.813023 
	C94.880272,48.813023 94.476738,48.777180 94.073578,48.442791 
	C93.098846,47.761787 92.527275,47.415173 91.701660,46.826015 
	C90.186165,45.826504 89.001053,44.613914 87.650658,44.387638 
	C79.788109,43.070129 71.876633,42.046600 64.006569,40.770329 
	C62.319786,40.496784 60.735485,39.591343 59.083424,38.745644 
	C59.062874,38.514290 59.013367,38.052402 59.013367,38.052402 
	C59.173985,37.783909 59.406597,37.613930 60.313480,37.598145 
	C61.942265,37.099686 62.968769,36.545544 63.995270,35.991405 
	C64.152542,35.722649 64.384361,35.560402 65.334534,35.550377 
	C68.646004,35.058754 71.313652,34.521416 73.981308,33.984077 
z"/>
<path fill="#B439AB" opacity="1.000000" stroke="none" 
	d="
M90.471802,25.769295 
	C94.597649,31.547676 100.703613,33.578957 106.760948,35.930576 
	C113.328064,38.480095 119.661690,41.628727 126.115059,44.475449 
	C127.448860,45.063820 128.861557,45.473335 130.614319,46.316101 
	C130.989151,47.106930 130.987564,47.546932 130.985962,47.986938 
	C125.517189,46.110455 120.048409,44.233971 114.153717,41.913090 
	C113.161003,40.980988 112.594200,40.493286 112.027397,40.005585 
	C108.962494,39.669106 105.897598,39.332634 102.265221,38.684731 
	C97.423141,32.610737 91.423645,32.197128 85.032158,32.999134 
	C83.911758,32.709435 82.791359,32.419735 81.334396,31.683609 
	C80.999870,30.506027 81.001900,29.774870 81.003937,29.043713 
	C84.033234,27.974054 87.062538,26.904396 90.471802,25.769295 
z"/>
<path fill="#B030BD" opacity="1.000000" stroke="none" 
	d="
M59.103973,38.976997 
	C60.735485,39.591343 62.319786,40.496784 64.006569,40.770329 
	C71.876633,42.046600 79.788109,43.070129 87.650658,44.387638 
	C89.001053,44.613914 90.186165,45.826504 91.262390,46.823460 
	C86.407135,46.972820 81.737129,46.882195 77.067123,46.791565 
	C76.620399,46.785263 76.173676,46.778957 75.182037,46.430588 
	C72.427673,45.959091 70.218231,45.829666 68.008789,45.700241 
	C66.945175,45.646751 65.881554,45.593258 64.251236,45.200314 
	C62.455585,44.840916 61.226635,44.820969 59.997684,44.801025 
	C57.581181,44.614548 55.164673,44.428070 52.083759,43.986160 
	C50.811470,43.743290 50.203594,43.755859 49.595715,43.768429 
	C49.595715,43.768429 49.352520,43.713554 49.453827,43.211555 
	C49.711880,42.174797 49.868622,41.640034 50.025364,41.105270 
	C52.227924,40.324829 54.430485,39.544388 57.423576,38.827011 
	C58.510731,38.919048 58.807354,38.948025 59.103973,38.976997 
z"/>
<path fill="#B937B1" opacity="1.000000" stroke="none" 
	d="
M131.393814,47.997883 
	C130.987564,47.546932 130.989151,47.106930 130.990189,46.336922 
	C133.717178,46.331821 136.444748,46.656723 139.587372,46.988602 
	C141.068710,46.996017 142.134995,46.996456 143.958496,47.166718 
	C148.481216,47.894474 152.246719,48.452412 156.100952,49.396492 
	C156.485764,51.356136 156.781815,52.929638 157.077866,54.503143 
	C157.077866,54.503143 156.920029,54.687466 156.340179,54.544888 
	C153.169708,54.525173 150.579102,54.648037 147.988480,54.770905 
	C146.846420,54.670170 145.704376,54.569435 144.100983,54.106155 
	C143.398422,53.505276 143.157196,53.266941 142.682800,52.988979 
	C142.449661,52.949352 141.989944,52.838135 141.989944,52.838135 
	C139.926468,48.416981 135.631409,48.703728 131.393814,47.997883 
z"/>
<path fill="#BC3BAB" opacity="1.000000" stroke="none" 
	d="
M156.012222,49.010353 
	C152.246719,48.452412 148.481216,47.894474 144.358398,47.166420 
	C150.912430,45.090347 157.359802,46.472153 163.634247,50.234516 
	C163.178192,51.526424 162.626968,52.337440 162.075745,53.148460 
	C161.570892,53.382114 161.066025,53.615768 160.144394,53.721146 
	C159.512756,53.433067 159.287048,53.290459 158.996124,52.816177 
	C157.965271,51.314987 156.988739,50.162670 156.012222,49.010353 
z"/>
<path fill="#9A339E" opacity="1.000000" stroke="none" 
	d="
M77.420525,46.974789 
	C81.737129,46.882195 86.407135,46.972820 91.516418,47.066002 
	C92.527275,47.415173 93.098846,47.761787 93.887299,48.363235 
	C88.660751,48.131382 83.217339,47.644699 77.420525,46.974789 
z"/>
<path fill="#9A339E" opacity="1.000000" stroke="none" 
	d="
M95.630981,48.876343 
	C96.868271,48.507874 98.464752,48.306786 100.543533,48.104244 
	C101.450951,48.113850 101.876045,48.124905 102.904716,48.216255 
	C104.994324,48.537315 106.480362,48.778091 107.982819,49.220329 
	C108.046387,49.688190 108.066376,49.956619 108.059204,50.227066 
	C104.036194,49.832623 100.013176,49.438175 95.630981,48.876343 
z"/>
<path fill="#B237AC" opacity="1.000000" stroke="none" 
	d="
M73.984642,33.643913 
	C71.313652,34.521416 68.646004,35.058754 65.549881,35.582680 
	C67.820824,34.367664 70.520241,33.166061 73.595673,31.953632 
	C73.977119,32.396458 73.982552,32.850105 73.984642,33.643913 
z"/>
<path fill="#9A339E" opacity="1.000000" stroke="none" 
	d="
M68.374725,45.853020 
	C70.218231,45.829666 72.427673,45.959091 74.859627,46.335712 
	C72.968315,46.390537 70.854485,46.198170 68.374725,45.853020 
z"/>
<path fill="#B439AB" opacity="1.000000" stroke="none" 
	d="
M156.100952,49.396492 
	C156.988739,50.162670 157.965271,51.314987 158.993805,53.064297 
	C159.045822,53.661285 159.075974,54.159527 159.075974,54.159531 
	C158.639206,54.296753 158.202454,54.433971 157.421783,54.537170 
	C156.781815,52.929638 156.485764,51.356136 156.100952,49.396492 
z"/>
<path fill="#B237AC" opacity="1.000000" stroke="none" 
	d="
M80.656464,29.027214 
	C81.001900,29.774870 80.999870,30.506027 80.996933,31.601789 
	C79.505829,31.734102 78.015625,31.501810 76.273705,31.156694 
	C77.450996,30.366152 78.879997,29.688435 80.656464,29.027214 
z"/>
<path fill="#98388B" opacity="1.000000" stroke="none" 
	d="
M162.427109,53.140293 
	C162.626968,52.337440 163.178192,51.526424 163.907104,50.487000 
	C164.840988,50.194530 165.597198,50.130474 166.733551,50.060043 
	C165.668625,51.079819 164.223541,52.105976 162.427109,53.140293 
z"/>
<path fill="#B937B1" opacity="1.000000" stroke="none" 
	d="
M137.003662,52.003815 
	C138.117004,52.166348 139.230331,52.328884 140.636734,52.895054 
	C140.933121,53.483974 140.936462,53.669262 140.939819,53.854546 
	C139.796707,53.764294 138.653595,53.674042 137.234650,53.104362 
	C136.973770,52.417892 136.988724,52.210854 137.003662,52.003815 
z"/>
<path fill="#98388B" opacity="1.000000" stroke="none" 
	d="
M148.410095,54.906349 
	C150.579102,54.648037 153.169708,54.525173 156.221222,54.520943 
	C154.065323,54.773643 151.448502,54.907719 148.410095,54.906349 
z"/>
<path fill="#9A339E" opacity="1.000000" stroke="none" 
	d="
M60.311443,44.954689 
	C61.226635,44.820969 62.455585,44.840916 63.875961,45.056953 
	C62.919994,45.204811 61.772598,45.156582 60.311443,44.954689 
z"/>
<path fill="#9A339E" opacity="1.000000" stroke="none" 
	d="
M122.321671,51.900669 
	C123.238403,51.760342 124.474167,51.764465 125.906548,51.964539 
	C124.949005,52.122036 123.794853,52.083580 122.321671,51.900669 
z"/>
<path fill="#B237AC" opacity="1.000000" stroke="none" 
	d="
M63.641243,35.986801 
	C62.968769,36.545544 61.942265,37.099686 60.533943,37.611500 
	C61.197155,37.040184 62.242184,36.511189 63.641243,35.986801 
z"/>
<path fill="#9A339E" opacity="1.000000" stroke="none" 
	d="
M113.227943,50.883324 
	C113.798538,50.502007 114.581436,50.279243 115.683151,50.291336 
	C116.005074,50.699585 116.008171,50.872978 116.011276,51.046368 
	C115.154266,51.044868 114.297256,51.043373 113.227943,50.883324 
z"/>
<path fill="#9A339E" opacity="1.000000" stroke="none" 
	d="
M49.763748,43.896797 
	C50.203594,43.755859 50.811470,43.743290 51.693588,43.875278 
	C51.289150,44.021614 50.610466,44.023392 49.763748,43.896797 
z"/>
<path fill="#B439AB" opacity="1.000000" stroke="none" 
	d="
M108.387283,50.324654 
	C108.066376,49.956619 108.046387,49.688190 108.327560,49.211357 
	C109.115158,48.994228 109.574440,48.987530 110.033722,48.980827 
	C110.037170,49.256741 110.044434,49.532551 110.055313,50.015148 
	C109.608521,50.288769 109.161942,50.355503 108.387283,50.324654 
z"/>
<path fill="#9A339E" opacity="1.000000" stroke="none" 
	d="
M49.739372,41.105644 
	C49.868622,41.640034 49.711880,42.174797 49.401917,43.098228 
	C49.316925,42.693268 49.385151,41.899647 49.739372,41.105644 
z"/>
<path fill="#B439AB" opacity="1.000000" stroke="none" 
	d="
M116.367836,51.162624 
	C116.008171,50.872978 116.005074,50.699585 115.991287,50.266338 
	C116.799950,50.281734 117.619286,50.556984 118.691917,51.038990 
	C118.204941,51.256794 117.464668,51.267838 116.367836,51.162624 
z"/>
<path fill="#B439AB" opacity="1.000000" stroke="none" 
	d="
M136.686356,52.042946 
	C136.988724,52.210854 136.973770,52.417892 136.932068,52.935146 
	C136.167252,53.250851 135.429214,53.256340 134.346252,53.116398 
	C134.790573,52.674671 135.579803,52.378372 136.686356,52.042946 
z"/>
<path fill="#98388B" opacity="1.000000" stroke="none" 
	d="
M141.256409,53.995152 
	C140.936462,53.669262 140.933121,53.483974 140.950821,53.019917 
	C141.140854,52.764805 141.309860,52.788464 141.734406,52.825130 
	C141.989944,52.838135 142.449661,52.949352 142.695129,53.262207 
	C142.941498,53.757526 142.942413,53.939991 142.943344,54.122452 
	C142.486557,54.126888 142.029770,54.131325 141.256409,53.995152 
z"/>
<path fill="#B237AC" opacity="1.000000" stroke="none" 
	d="
M59.083424,38.745644 
	C58.807354,38.948025 58.510731,38.919048 57.769600,38.828094 
	C57.673645,38.531563 58.022198,38.297016 58.692055,38.057434 
	C59.013367,38.052402 59.062874,38.514290 59.083424,38.745644 
z"/>
<path fill="#9A339E" opacity="1.000000" stroke="none" 
	d="
M130.252762,52.738792 
	C130.259232,52.436035 130.519897,52.408043 130.897125,52.653313 
	C130.825333,52.785553 130.656418,52.814545 130.252762,52.738792 
z"/>
<path fill="#B439AB" opacity="1.000000" stroke="none" 
	d="
M143.194977,54.187790 
	C142.942413,53.939991 142.941498,53.757526 142.928268,53.301834 
	C143.157196,53.266941 143.398422,53.505276 143.797119,53.942955 
	C143.785278,54.179241 143.615952,54.216183 143.194977,54.187790 
z"/>
<path fill="#98388B" opacity="1.000000" stroke="none" 
	d="
M159.328064,54.163578 
	C159.075974,54.159527 159.045822,53.661285 159.048141,53.413166 
	C159.287048,53.290459 159.512756,53.433067 159.863968,53.740837 
	C159.860275,53.981747 159.720230,54.074688 159.328064,54.163578 
z"/>
<path fill="#BD4199" opacity="1.000000" stroke="none" 
	d="
M110.711487,16.950829 
	C111.000526,17.113966 110.999954,17.291533 110.998573,17.735531 
	C110.798035,17.991259 110.598297,17.980555 110.099380,17.944363 
	C110.007431,17.601004 110.214661,17.283133 110.711487,16.950829 
z"/>
<path fill="#C04888" opacity="1.000000" stroke="none" 
	d="
M177.002716,30.543705 
	C175.595520,30.221571 174.164459,29.495108 172.796570,28.664619 
	C171.409378,27.822422 170.167770,26.270132 168.719543,26.071749 
	C154.703644,24.151793 142.537704,17.168756 129.316223,12.019296 
	C131.926239,11.078524 134.879288,9.601493 137.887421,9.479176 
	C141.258682,9.342093 144.750092,10.164241 148.065506,11.038312 
	C156.675522,13.308265 165.422836,15.298185 173.710098,18.461529 
	C178.687744,20.361544 176.600784,25.967627 177.002716,30.543705 
z"/>
<path fill="#B237AC" opacity="1.000000" stroke="none" 
	d="
M85.169342,33.316975 
	C91.423645,32.197128 97.423141,32.610737 101.844177,38.672802 
	C98.924728,38.642551 95.719429,38.757637 92.833611,37.853279 
	C90.147697,37.011574 87.802002,35.084225 85.169342,33.316975 
z"/>
<path fill="#B932BD" opacity="1.000000" stroke="none" 
	d="
M110.261803,48.839249 
	C109.574440,48.987530 109.115158,48.994228 108.311142,49.009895 
	C106.480362,48.778091 104.994324,48.537315 103.223892,48.209488 
	C105.403694,47.571369 107.867889,47.020309 110.332092,46.469246 
	C110.384689,47.212051 110.437286,47.954857 110.261803,48.839249 
z"/>
<path fill="#B237AC" opacity="1.000000" stroke="none" 
	d="
M112.155869,40.261707 
	C112.594200,40.493286 113.161003,40.980988 113.859123,41.722279 
	C113.421738,41.489853 112.853035,41.003841 112.155869,40.261707 
z"/>
</svg>