<svg version="1.1" id="Layer_1" xmlns="http://www.w3.org/2000/svg" xmlns:xlink="http://www.w3.org/1999/xlink" x="0px" y="0px"
	 width="100%" viewBox="0 0 360 360" enable-background="new 0 0 360 360" xml:space="preserve">
<path fill="#231F20" opacity="1.000000" stroke="none" 
	d="
M160.000000,361.000000 
	C106.684998,361.000000 53.870003,361.000000 1.027501,361.000000 
	C1.027501,241.059982 1.027501,121.119957 1.027501,1.089965 
	C120.898315,1.089965 240.796722,1.089965 360.847565,1.089965 
	C360.847565,120.999855 360.847565,240.999908 360.847565,361.000000 
	C294.119965,361.000000 227.309982,361.000000 160.000000,361.000000 
M162.026398,241.828308 
	C164.363113,243.169464 166.699829,244.510620 169.827225,245.883118 
	C176.178314,245.316879 178.638260,243.139679 179.921417,236.396240 
	C182.265488,224.077240 184.557953,211.746613 186.681534,199.388123 
	C187.967422,191.904724 188.895462,184.359863 190.309723,176.185287 
	C191.529419,169.671539 192.852371,163.174911 193.935989,156.638596 
	C194.794189,151.462112 195.782547,146.248611 195.925659,141.029938 
	C196.050095,136.492554 190.431641,130.793991 185.846603,131.750641 
	C182.294983,132.491684 177.278519,135.912415 176.578171,138.978943 
	C173.111664,154.157547 170.863098,169.614304 167.931076,185.720840 
	C166.294556,195.132019 164.658035,204.543213 162.669998,214.664200 
	C162.392654,217.062271 162.115326,219.460342 161.528198,222.559097 
	C160.813950,226.271744 159.636353,229.973495 159.548645,233.700897 
	C159.490356,236.177689 160.989899,238.691116 162.026398,241.828308 
M235.387833,244.295135 
	C232.324951,247.556778 228.542450,248.291977 224.180252,248.123138 
	C220.654175,247.986664 217.093048,248.755814 213.547470,249.123245 
	C213.421722,249.603638 213.295990,250.084015 213.170242,250.564407 
	C214.168335,251.322388 215.166412,252.080383 216.474564,253.469330 
	C223.209595,258.747375 230.878143,255.216446 238.115112,255.791580 
	C243.207779,256.196289 244.959991,252.520660 247.381516,248.857422 
	C247.799728,248.623291 248.217926,248.389160 248.851303,247.311111 
	C248.982544,244.851166 247.918762,243.750549 245.364136,243.899460 
	C242.269852,244.079834 239.162201,244.030960 235.387833,244.295135 
M253.409363,163.238403 
	C251.434799,163.211319 249.417465,163.431061 247.495956,163.097961 
	C244.775009,162.626297 242.124756,161.746826 239.293106,161.112808 
	C239.293106,161.112808 239.199081,160.974670 238.876785,160.347076 
	C237.728134,159.441986 236.668945,158.381668 235.415146,157.659027 
	C230.308212,154.715652 225.141678,151.875687 220.018646,148.959885 
	C220.018646,148.959885 220.002457,149.002975 219.250458,148.934464 
	C217.994995,148.520203 216.697388,148.202377 215.491135,147.675491 
	C209.250000,144.949341 205.659698,146.901611 205.455170,153.539047 
	C205.292343,158.823166 205.573166,164.128265 205.859772,169.413040 
	C205.919968,170.522995 206.580109,172.066193 207.453476,172.584259 
	C210.920807,174.640991 214.209229,177.572922 219.202667,176.712021 
	C224.990433,181.353760 231.518036,183.781799 239.503677,183.369141 
	C239.503677,183.369141 239.994507,183.449631 240.221191,184.035522 
	C241.916534,185.493210 243.611877,186.950912 245.656738,188.709137 
	C244.464233,189.744217 243.427979,191.174240 242.035583,191.765518 
	C233.428940,195.420303 224.743927,198.890701 216.076904,202.402481 
	C215.628967,202.583969 214.991241,202.428513 214.638962,202.692719 
	C212.731491,204.123306 210.886093,205.636673 208.797653,207.604446 
	C208.554230,207.866959 208.310806,208.129456 207.462967,208.766647 
	C206.927139,213.592529 206.353302,218.414566 205.864105,223.245163 
	C205.058411,231.201370 208.558655,233.819458 215.771576,230.518021 
	C222.694305,227.349411 229.561691,224.051315 236.356339,220.618057 
	C237.849365,219.863647 238.932724,218.298431 240.391693,216.944717 
	C240.391693,216.944717 240.642807,216.950104 241.518784,216.966431 
	C244.410538,216.301193 247.536346,216.125778 250.149384,214.877228 
	C257.471680,211.378586 264.348083,206.846069 271.855804,203.870438 
	C277.169220,201.764481 279.241333,198.756927 278.967224,193.443085 
	C278.855713,191.281418 278.828003,189.108383 278.903564,186.945465 
	C279.110809,181.016220 278.088928,175.935745 271.078918,174.547455 
	C270.304474,174.394089 269.402924,173.927444 268.938477,173.317932 
	C265.796692,169.194717 261.400909,168.968506 256.799164,169.240143 
	C256.799164,169.240143 256.775146,169.246933 256.796600,168.489685 
	C255.910110,166.623795 255.023621,164.757889 254.019852,163.009796 
	C254.019852,163.009796 253.905273,163.130188 253.409363,163.238403 
M85.302345,204.502686 
	C85.902794,205.749298 86.503242,206.995926 87.103699,208.242538 
	C88.015656,207.500000 88.927620,206.757477 90.586868,205.991821 
	C91.061798,206.128876 91.536728,206.265945 92.359703,206.932083 
	C93.278908,207.629089 94.112228,208.504044 95.130592,208.995590 
	C105.431671,213.967621 115.760017,218.883255 126.087158,223.801193 
	C130.877884,226.082581 135.598679,228.539597 140.502274,230.548080 
	C146.819031,233.135376 148.730286,231.784836 148.919235,225.085617 
	C148.989487,222.594940 148.945969,220.100952 148.947433,217.608475 
	C148.954987,204.786575 149.580551,206.617340 138.240189,201.929855 
	C128.420761,197.871048 118.638802,193.720932 108.888039,189.500839 
	C108.684067,189.412567 109.061066,187.981949 109.795166,187.141739 
	C112.005402,186.495834 114.210365,185.831192 116.426971,185.207916 
	C121.086815,183.897675 125.881607,182.944534 130.379730,181.216705 
	C134.818359,179.511719 138.796799,176.549286 143.280457,175.039062 
	C147.131943,173.741745 148.774979,171.485703 148.869797,167.827255 
	C149.007751,162.503693 149.048111,157.169800 148.878128,151.848358 
	C148.721756,146.952988 146.644272,145.427750 142.065872,147.235840 
	C136.976151,149.245880 132.125687,151.861832 126.499474,154.434402 
	C114.189293,160.104782 101.739311,165.496780 89.634445,171.576004 
	C84.444527,174.182449 77.545425,174.975235 75.754013,183.401993 
	C74.646423,181.197678 74.390671,179.952332 73.627609,179.304932 
	C71.108887,177.168045 68.618568,174.278473 65.688858,173.638062 
	C64.143181,173.300171 61.066277,176.704056 59.887840,179.030090 
	C59.018490,180.746033 59.323620,184.768433 60.474609,185.449585 
	C63.082863,186.993134 67.038635,188.461853 69.546364,187.532394 
	C75.474945,185.335098 75.261765,184.762390 75.772354,191.330109 
	C75.862373,192.487946 75.998962,193.643265 76.053162,194.802597 
	C76.366592,201.507095 78.241257,203.344269 85.237221,203.731781 
	C85.237221,203.731781 85.237930,203.769287 85.302345,204.502686 
M130.547073,112.742203 
	C128.470810,111.531036 126.203781,110.554405 124.361320,109.055801 
	C121.310188,106.574089 118.461044,106.837097 116.533127,110.211571 
	C115.709984,111.652344 114.657547,113.068108 114.276543,114.633308 
	C113.495384,117.842369 112.511078,121.258606 117.449524,122.422432 
	C118.665695,122.709045 119.527603,124.367287 120.629288,125.304558 
	C122.018318,126.486275 123.486237,127.575279 124.920120,128.704269 
	C125.827850,126.961700 127.338730,125.272476 127.498672,123.463783 
	C127.725456,120.899315 128.010986,119.176300 130.848343,118.206413 
	C134.332916,117.015274 133.368149,114.931587 130.547073,112.742203 
M302.698120,179.803894 
	C300.788605,179.291824 298.906708,178.591125 296.963867,178.306717 
	C292.848175,177.704269 287.949615,181.259857 286.916046,185.401154 
	C286.085968,188.726929 289.158264,194.880646 292.304535,196.194260 
	C297.883759,198.523636 299.149750,197.435196 302.637695,192.575470 
	C305.845673,188.105896 303.386017,184.411713 302.698120,179.803894 
M231.791870,113.849236 
	C229.655731,112.836060 227.519592,111.822884 225.383453,110.809708 
	C224.952637,111.145340 224.521820,111.480980 224.091003,111.816620 
	C225.227066,115.041504 226.363113,118.266388 227.353821,121.078674 
	C228.109421,120.719078 229.843857,119.903259 231.569336,119.068947 
	C232.642715,118.549950 233.702545,118.002953 234.768448,117.468513 
	C233.966309,116.366882 233.164154,115.265259 231.791870,113.849236 
M131.144531,242.380615 
	C128.221970,242.718781 124.004784,242.035431 122.718964,243.665039 
	C121.256668,245.518280 121.717857,249.689880 122.687523,252.366653 
	C123.286911,254.021286 126.449791,255.813202 128.361023,255.708176 
	C132.537811,255.478668 134.643875,251.826614 135.154388,248.197632 
	C135.389908,246.523422 133.029312,244.484024 131.144531,242.380615 
z"/>
<path fill="#053218" opacity="1.000000" stroke="none" 
	d="
M85.198441,203.728134 
	C78.241257,203.344269 76.366592,201.507095 76.053162,194.802597 
	C75.998962,193.643265 75.862373,192.487946 75.772354,191.330109 
	C75.261765,184.762390 75.474945,185.335098 69.546364,187.532394 
	C67.038635,188.461853 63.082863,186.993134 60.474609,185.449585 
	C59.323620,184.768433 59.018490,180.746033 59.887840,179.030090 
	C61.066277,176.704056 64.143181,173.300171 65.688858,173.638062 
	C68.618568,174.278473 71.108887,177.168045 73.627609,179.304932 
	C74.390671,179.952332 74.646423,181.197678 75.754013,183.401993 
	C77.545425,174.975235 84.444527,174.182449 89.634445,171.576004 
	C101.739311,165.496780 114.189293,160.104782 127.043556,154.444763 
	C128.043991,154.641403 128.500336,154.827667 128.705841,155.250214 
	C114.950233,161.911957 101.445465,168.337402 87.624939,174.943085 
	C85.506386,175.895004 83.583397,176.473236 81.936874,177.496384 
	C80.485893,178.398010 78.227348,179.813110 78.244461,180.973145 
	C78.365326,189.164032 75.248375,198.518051 85.198441,203.728134 
M66.535011,178.828125 
	C65.798447,178.311508 65.061890,177.794891 64.325325,177.278275 
	C64.136963,177.864929 63.948605,178.451569 63.760242,179.038223 
	C64.532425,179.069138 65.304611,179.100052 66.535011,178.828125 
z"/>
<path fill="#032B26" opacity="1.000000" stroke="none" 
	d="
M189.984283,176.842606 
	C188.895462,184.359863 187.967422,191.904724 186.681534,199.388123 
	C184.557953,211.746613 182.265488,224.077240 179.921417,236.396240 
	C178.638260,243.139679 176.178314,245.316879 169.429260,245.599548 
	C169.031570,244.955414 169.031845,244.594849 169.399384,244.169724 
	C171.262970,243.484482 172.759323,242.863815 174.180923,242.200653 
	C174.106171,242.158157 174.021439,242.307800 174.360291,242.379059 
	C175.156113,241.983536 175.613083,241.516754 176.348541,240.921722 
	C176.980927,239.856064 177.334824,238.918625 177.815308,237.568924 
	C179.506332,227.999237 181.021484,218.833023 182.653061,209.687592 
	C183.690704,203.871246 185.003281,198.087051 183.485886,192.253754 
	C182.956436,192.192154 182.426971,192.130554 181.897507,192.068954 
	C179.460831,206.617630 177.024155,221.166290 174.638245,235.826202 
	C174.689011,235.937424 174.916809,235.848511 174.627502,235.972321 
	C174.216293,236.698181 174.094421,237.300232 173.750687,238.087097 
	C173.222702,238.503342 172.916565,238.734756 172.576904,238.517700 
	C176.196060,216.777695 179.964584,195.505157 183.455200,174.187103 
	C185.359573,162.556656 186.792984,150.849091 188.766815,139.341812 
	C189.341141,142.022430 190.063370,144.599274 189.746536,147.041306 
	C188.702194,155.090607 187.281830,163.091095 185.852600,171.392242 
	C185.626373,172.096191 185.553436,172.518219 185.595276,173.002319 
	C185.710068,173.064392 185.834137,172.834793 185.569809,173.120377 
	C184.545944,177.761200 183.671402,182.102173 183.127502,186.484177 
	C183.023331,187.323502 184.220810,188.324402 184.817764,189.250748 
	C185.512604,188.509430 186.636459,187.862488 186.824081,187.009598 
	C187.458252,184.126846 187.760376,181.171051 188.328949,177.972504 
	C188.682800,177.131516 188.897110,176.561218 189.259277,176.131973 
	C189.602676,176.459686 189.795059,176.649551 189.984283,176.842606 
z"/>
<path fill="#053218" opacity="1.000000" stroke="none" 
	d="
M109.167038,187.177551 
	C109.061066,187.981949 108.684067,189.412567 108.888039,189.500839 
	C118.638802,193.720932 128.420761,197.871048 138.240189,201.929855 
	C149.580551,206.617340 148.954987,204.786575 148.947433,217.608475 
	C148.945969,220.100952 148.989487,222.594940 148.919235,225.085617 
	C148.730286,231.784836 146.819031,233.135376 140.502274,230.548080 
	C135.598679,228.539597 130.877884,226.082581 126.087158,223.801193 
	C115.760017,218.883255 105.431671,213.967621 95.130592,208.995590 
	C94.112228,208.504044 93.278908,207.629089 92.528992,206.690765 
	C95.045364,207.328949 97.392456,208.208435 99.997551,209.335876 
	C101.135490,209.943161 102.015434,210.302505 103.037384,210.805756 
	C103.560669,211.062866 103.941948,211.176041 104.596329,211.531906 
	C115.875038,216.887878 126.880661,222.001160 137.904633,227.099045 
	C137.922974,227.083649 137.876541,227.082352 138.106445,227.340515 
	C139.832550,228.225281 141.328751,228.851898 142.820007,229.429047 
	C142.815079,229.379547 142.716156,229.389999 142.938568,229.593109 
	C143.821396,229.545502 144.481827,229.294769 145.495972,228.849487 
	C146.199890,222.325638 146.595688,215.997986 146.822571,209.664276 
	C146.842957,209.094879 145.771072,208.486343 145.117828,207.544617 
	C143.616776,206.413132 142.271439,205.460480 140.781021,204.880798 
	C130.932480,201.050339 121.052757,197.300034 110.909317,193.301147 
	C108.172028,191.479309 105.708611,189.879944 103.607422,188.251083 
	C105.581627,187.713562 107.193604,187.205551 108.894806,186.818390 
	C108.984032,186.939240 109.167030,187.177551 109.167038,187.177551 
z"/>
<path fill="#2DABD0" opacity="1.000000" stroke="none" 
	d="
M239.199081,160.974670 
	C239.199081,160.974670 239.293106,161.112808 239.630768,161.349548 
	C245.570663,164.139832 251.172913,166.693375 256.775146,169.246933 
	C256.775146,169.246933 256.799164,169.240143 257.016388,169.510635 
	C259.317352,170.814255 261.297363,172.281906 263.502106,172.808029 
	C275.367889,175.639633 278.787750,183.209946 277.231567,194.710526 
	C276.632599,199.137054 275.230469,201.025848 271.047455,200.843567 
	C271.012482,199.985641 270.993286,199.495499 271.126709,198.838486 
	C271.471283,198.437424 271.685760,198.226089 272.179657,197.987549 
	C273.019745,197.507782 273.602875,197.078049 274.186005,196.648315 
	C273.741913,196.725601 273.297821,196.802902 272.911438,196.424042 
	C272.998566,192.180023 273.217407,188.378998 272.955292,184.611420 
	C272.862701,183.280609 271.911896,181.394791 270.813080,180.848862 
	C263.901245,177.414917 256.837250,174.287186 249.719116,170.981644 
	C249.614639,170.905060 249.355988,170.919525 249.127747,170.643204 
	C246.539413,169.303375 244.179306,168.239868 241.675354,167.093964 
	C241.531509,167.011536 241.200806,166.987457 240.972763,166.714264 
	C239.215469,165.803329 237.686218,165.165573 236.173157,164.600555 
	C236.189346,164.673294 236.334671,164.640366 236.102417,164.389862 
	C233.545609,163.159012 231.221069,162.178680 228.691223,161.130035 
	C228.485931,161.061707 228.064072,160.965347 227.944366,160.726166 
	C227.542969,160.272263 227.261276,160.057526 226.850174,159.548080 
	C226.137939,157.869263 225.555130,156.485153 225.328735,155.137787 
	C230.189789,157.107941 234.694443,159.041306 239.199081,160.974670 
M274.041138,186.108963 
	C274.133942,187.822372 274.226746,189.535767 274.319580,191.249176 
	C274.695282,191.233658 275.070953,191.218140 275.446655,191.202621 
	C275.446655,188.739349 275.446655,186.276062 275.446655,183.812790 
	C275.184082,183.784180 274.921509,183.755569 274.658936,183.726974 
	C274.464996,184.297928 274.271088,184.868881 274.041138,186.108963 
z"/>
<path fill="#0A3B3D" opacity="1.000000" stroke="none" 
	d="
M130.863220,112.897614 
	C133.368149,114.931587 134.332916,117.015274 130.848343,118.206413 
	C128.010986,119.176300 127.725456,120.899315 127.498672,123.463783 
	C127.338730,125.272476 125.827850,126.961700 124.920120,128.704269 
	C123.486237,127.575279 122.018318,126.486275 120.629288,125.304558 
	C119.527603,124.367287 118.665695,122.709045 117.449524,122.422432 
	C112.511078,121.258606 113.495384,117.842369 114.276543,114.633308 
	C114.657547,113.068108 115.709984,111.652344 116.533127,110.211571 
	C118.461044,106.837097 121.310188,106.574089 124.361320,109.055801 
	C126.203781,110.554405 128.470810,111.531036 130.863220,112.897614 
M116.308533,119.086151 
	C116.308533,119.086151 116.805794,119.085342 117.222313,118.896423 
	C117.474052,118.756981 117.725792,118.617538 117.977531,118.478111 
	C117.400208,118.377708 116.822876,118.277306 116.245560,118.176895 
	C116.210846,118.492226 116.176140,118.807556 116.308533,119.086151 
M121.508881,122.497520 
	C121.508881,122.497520 121.448303,122.523445 121.508881,122.497520 
z"/>
<path fill="#052B30" opacity="1.000000" stroke="none" 
	d="
M240.204742,217.106598 
	C238.932724,218.298431 237.849365,219.863647 236.356339,220.618057 
	C229.561691,224.051315 222.694305,227.349411 215.771576,230.518021 
	C208.558655,233.819458 205.058411,231.201370 205.864105,223.245163 
	C206.353302,218.414566 206.927139,213.592529 207.807648,209.005981 
	C208.154892,215.224792 208.111359,221.205109 208.216095,227.182816 
	C208.229752,227.963150 208.859528,228.915741 209.496460,229.416412 
	C209.769699,229.631210 211.198425,229.045425 211.381042,228.554916 
	C211.681824,227.746948 211.367828,226.720901 211.363266,225.786530 
	C211.346283,222.313156 211.265442,218.837219 211.367004,215.366882 
	C211.494278,211.017624 213.931915,208.632126 218.099625,207.736160 
	C218.522995,207.645142 218.761078,206.692184 219.485443,206.112335 
	C222.983582,205.124924 226.081421,204.164368 229.532837,203.153564 
	C231.877853,202.361893 233.869293,201.620468 235.716400,201.183472 
	C232.858032,202.971893 230.216736,204.614883 227.411026,205.898529 
	C224.116501,207.405823 220.476562,208.243439 217.350830,210.014587 
	C212.567978,212.724716 212.575104,220.037415 216.855560,223.359268 
	C215.339310,224.350143 214.038895,225.044296 212.738480,225.738449 
	C219.051147,228.306213 223.355804,224.459595 228.480652,222.190308 
	C232.624573,220.435989 236.414658,218.771301 240.204742,217.106598 
z"/>
<path fill="#2DDC8F" opacity="1.000000" stroke="none" 
	d="
M104.323227,211.289215 
	C103.941948,211.176041 103.560669,211.062866 102.775078,210.556717 
	C101.493698,209.805145 100.616631,209.446533 99.739555,209.087921 
	C97.392456,208.208435 95.045364,207.328949 92.354965,206.426239 
	C91.536728,206.265945 91.061798,206.128876 89.983681,205.781433 
	C87.999641,204.970459 86.618790,204.369873 85.237930,203.769287 
	C85.237930,203.769287 85.237221,203.731781 85.217834,203.729950 
	C75.248375,198.518051 78.365326,189.164032 78.244461,180.973145 
	C78.227348,179.813110 80.485893,178.398010 81.936874,177.496384 
	C83.583397,176.473236 85.506386,175.895004 87.897232,175.045197 
	C90.011963,175.363556 91.538635,175.760086 93.029663,176.346924 
	C92.994019,176.537231 92.924423,176.918167 92.557350,177.005157 
	C90.235847,177.862274 88.086533,178.341522 86.381454,179.483856 
	C84.655487,180.640198 82.328438,182.289459 82.059662,184.004166 
	C80.369301,194.787872 81.396881,196.403168 91.189972,200.987137 
	C92.084442,201.405838 93.043518,201.686523 94.021317,202.192047 
	C94.070045,202.352798 94.148209,202.679520 94.381683,202.933594 
	C96.089737,203.785751 97.564308,204.383850 99.251831,205.010803 
	C99.751007,205.124252 99.981949,205.287201 100.383102,205.805527 
	C102.133232,206.698761 103.657845,207.314987 105.453384,207.963745 
	C106.169960,208.286789 106.615601,208.577301 106.858223,209.178879 
	C105.877884,210.089706 105.100555,210.689468 104.323227,211.289215 
z"/>
<path fill="#052B30" opacity="1.000000" stroke="none" 
	d="
M190.147003,176.513947 
	C189.795059,176.649551 189.602676,176.459686 189.224670,175.720703 
	C190.734619,165.220810 192.460236,155.278732 194.106949,145.323608 
	C195.094772,139.351929 193.435898,136.227936 188.665543,134.731384 
	C184.012878,133.271729 180.568588,135.077682 177.559723,140.737808 
	C176.667969,144.688858 176.036713,148.320053 175.287567,152.255188 
	C173.839340,160.363800 172.509003,168.168488 171.084473,176.352142 
	C170.596085,178.496841 170.201874,180.262558 169.689941,182.325409 
	C169.402390,183.456116 169.232590,184.289734 169.086288,185.099686 
	C169.109787,185.076035 169.149017,185.129990 168.907837,185.092072 
	C168.666656,185.054138 168.185165,184.973007 168.185181,184.973007 
	C170.863098,169.614304 173.111664,154.157547 176.578171,138.978943 
	C177.278519,135.912415 182.294983,132.491684 185.846603,131.750641 
	C190.431641,130.793991 196.050095,136.492554 195.925659,141.029938 
	C195.782547,146.248611 194.794189,151.462112 193.935989,156.638596 
	C192.852371,163.174911 191.529419,169.671539 190.147003,176.513947 
z"/>
<path fill="#032B26" opacity="1.000000" stroke="none" 
	d="
M128.956680,155.013931 
	C128.500336,154.827667 128.043991,154.641403 127.379349,154.334564 
	C132.125687,151.861832 136.976151,149.245880 142.065872,147.235840 
	C146.644272,145.427750 148.721756,146.952988 148.878128,151.848358 
	C149.048111,157.169800 149.007751,162.503693 148.869797,167.827255 
	C148.774979,171.485703 147.131943,173.741745 143.280457,175.039062 
	C138.796799,176.549286 134.818359,179.511719 130.379730,181.216705 
	C125.881607,182.944534 121.086815,183.897675 116.426971,185.207916 
	C114.210365,185.831192 112.005402,186.495834 109.481094,187.159637 
	C109.167030,187.177551 108.984032,186.939240 109.162201,186.596497 
	C114.268661,183.852264 119.196945,181.450745 124.523254,179.116196 
	C131.332520,176.828857 137.743790,174.474548 144.493591,171.941727 
	C145.570724,170.061523 146.787247,168.403656 146.948090,166.649017 
	C147.279587,163.032974 147.052063,159.365265 147.046219,155.718811 
	C147.034271,148.257050 145.701813,147.485413 138.361511,150.915344 
	C134.993271,152.302933 131.974976,153.658432 128.956680,155.013931 
z"/>
<path fill="#052B30" opacity="1.000000" stroke="none" 
	d="
M239.037933,160.660873 
	C234.694443,159.041306 230.189789,157.107941 224.994476,154.989105 
	C220.570816,153.133865 216.837830,151.464066 212.841248,149.485107 
	C211.181610,149.051620 209.785599,148.927277 208.146423,148.781281 
	C208.146423,150.483521 208.146423,151.759460 208.097412,153.458160 
	C208.082779,155.581161 208.117172,157.281387 208.081818,159.317780 
	C208.050842,160.107941 208.089615,160.561920 208.075836,161.464020 
	C207.974854,171.210419 207.980255,171.196030 216.644333,174.452774 
	C217.515854,174.780334 218.271530,175.416092 219.010132,175.982513 
	C218.939270,176.056198 218.797623,176.203644 218.797623,176.203644 
	C214.209229,177.572922 210.920807,174.640991 207.453476,172.584259 
	C206.580109,172.066193 205.919968,170.522995 205.859772,169.413040 
	C205.573166,164.128265 205.292343,158.823166 205.455170,153.539047 
	C205.659698,146.901611 209.250000,144.949341 215.491135,147.675491 
	C216.697388,148.202377 217.994995,148.520203 219.625229,148.967224 
	C220.000000,149.000000 219.997101,148.997620 219.997101,148.997620 
	C225.141678,151.875687 230.308212,154.715652 235.415146,157.659027 
	C236.668945,158.381668 237.728134,159.441986 239.037933,160.660873 
z"/>
<path fill="#052B30" opacity="1.000000" stroke="none" 
	d="
M271.063232,201.211365 
	C275.230469,201.025848 276.632599,199.137054 277.231567,194.710526 
	C278.787750,183.209946 275.367889,175.639633 263.502106,172.808029 
	C261.297363,172.281906 259.317352,170.814255 257.025269,169.501923 
	C261.400909,168.968506 265.796692,169.194717 268.938477,173.317932 
	C269.402924,173.927444 270.304474,174.394089 271.078918,174.547455 
	C278.088928,175.935745 279.110809,181.016220 278.903564,186.945465 
	C278.828003,189.108383 278.855713,191.281418 278.967224,193.443085 
	C279.241333,198.756927 277.169220,201.764481 271.855804,203.870438 
	C264.348083,206.846069 257.471680,211.378586 250.149384,214.877228 
	C247.536346,216.125778 244.410538,216.301193 241.318237,216.675385 
	C242.882935,215.529251 244.700378,214.766266 246.402832,213.800537 
	C250.301239,211.589111 254.143494,209.278671 258.397644,207.070221 
	C262.878906,205.158463 266.971069,203.184921 271.063232,201.211365 
z"/>
<path fill="#022938" opacity="1.000000" stroke="none" 
	d="
M302.789246,180.080704 
	C303.386017,184.411713 305.845673,188.105896 302.637695,192.575470 
	C299.149750,197.435196 297.883759,198.523636 292.304535,196.194260 
	C289.158264,194.880646 286.085968,188.726929 286.916046,185.401154 
	C287.949615,181.259857 292.848175,177.704269 296.963867,178.306717 
	C298.906708,178.591125 300.788605,179.291824 302.789246,180.080704 
M296.243622,193.880051 
	C300.552368,192.856842 302.665649,189.870926 301.460480,185.848206 
	C300.893982,183.957428 298.017609,181.608398 296.097382,181.523804 
	C292.591492,181.369385 289.014587,183.132416 288.905853,187.436035 
	C288.803253,191.495590 291.186676,193.856262 296.243622,193.880051 
z"/>
<path fill="#052B30" opacity="1.000000" stroke="none" 
	d="
M209.019318,207.121521 
	C210.886093,205.636673 212.731491,204.123306 214.638962,202.692719 
	C214.991241,202.428513 215.628967,202.583969 216.076904,202.402481 
	C224.743927,198.890701 233.428940,195.420303 242.035583,191.765518 
	C243.427979,191.174240 244.464233,189.744217 245.656738,188.709137 
	C243.611877,186.950912 241.916534,185.493210 240.399811,183.908478 
	C244.695175,185.824738 248.811905,187.868042 252.592346,189.957642 
	C250.444611,190.795258 248.633163,191.586563 246.457718,192.485916 
	C242.946777,193.904694 239.799835,195.215439 236.657166,196.482666 
	C236.661453,196.439178 236.574463,196.430481 236.397430,196.467346 
	C236.220383,196.504227 235.969635,196.764893 235.596710,196.825470 
	C231.093826,198.902191 226.963852,200.918320 222.497726,202.917389 
	C221.125061,203.634186 220.088531,204.368042 218.634216,205.021271 
	C215.150726,205.667618 212.085022,206.394577 209.019318,207.121521 
z"/>
<path fill="#34BBC7" opacity="1.000000" stroke="none" 
	d="
M258.008545,207.008453 
	C254.143494,209.278671 250.301239,211.589111 246.402832,213.800537 
	C244.700378,214.766266 242.882935,215.529251 240.880249,216.667206 
	C240.642807,216.950104 240.391693,216.944717 240.298218,217.025665 
	C236.414658,218.771301 232.624573,220.435989 228.437500,221.748169 
	C227.976364,220.806580 227.912216,220.217468 228.009247,219.322754 
	C233.529816,216.071228 238.889206,213.125290 244.419098,210.156616 
	C244.589630,210.133850 244.847702,209.906296 245.124130,209.862518 
	C245.639862,209.557526 245.879181,209.296326 246.057053,209.043289 
	C245.995605,209.051453 246.011978,209.174332 246.384918,209.146759 
	C250.752670,207.312790 254.747467,205.506393 258.666595,204.030457 
	C258.396820,205.243408 258.202667,206.125931 258.008545,207.008453 
z"/>
<path fill="#2DABD0" opacity="1.000000" stroke="none" 
	d="
M232.076935,114.006439 
	C233.164154,115.265259 233.966309,116.366882 234.768448,117.468521 
	C233.702545,118.002953 232.642715,118.549950 231.569336,119.068947 
	C229.843857,119.903259 228.109421,120.719078 227.353821,121.078674 
	C226.363113,118.266388 225.227066,115.041504 224.091003,111.816620 
	C224.521820,111.480980 224.952637,111.145340 225.383453,110.809708 
	C227.519592,111.822884 229.655731,112.836060 232.076935,114.006439 
z"/>
<path fill="#38CAB9" opacity="1.000000" stroke="none" 
	d="
M208.908478,207.362976 
	C212.085022,206.394577 215.150726,205.667618 218.641907,205.280609 
	C219.073303,205.793427 219.079224,205.966309 219.085144,206.139206 
	C218.761078,206.692184 218.522995,207.645142 218.099625,207.736160 
	C213.931915,208.632126 211.494278,211.017624 211.367004,215.366882 
	C211.265442,218.837219 211.346283,222.313156 211.363266,225.786530 
	C211.367828,226.720901 211.681824,227.746948 211.381042,228.554916 
	C211.198425,229.045425 209.769699,229.631210 209.496460,229.416412 
	C208.859528,228.915741 208.229752,227.963150 208.216095,227.182816 
	C208.111359,221.205109 208.154892,215.224792 208.109863,208.818634 
	C208.310806,208.129456 208.554230,207.866959 208.908478,207.362976 
z"/>
<path fill="#053218" opacity="1.000000" stroke="none" 
	d="
M131.495178,242.495422 
	C133.029312,244.484024 135.389908,246.523422 135.154388,248.197632 
	C134.643875,251.826614 132.537811,255.478668 128.361023,255.708176 
	C126.449791,255.813202 123.286911,254.021286 122.687523,252.366653 
	C121.717857,249.689880 121.256668,245.518280 122.718964,243.665039 
	C124.004784,242.035431 128.221970,242.718781 131.495178,242.495422 
M129.085159,243.324188 
	C128.729248,243.279953 128.373337,243.235703 127.291557,243.158554 
	C122.233803,245.788986 121.651711,247.919174 125.230530,252.629959 
	C127.655975,254.196060 129.791473,254.028854 131.684326,251.545578 
	C131.684326,251.545578 131.657349,251.405273 132.151077,250.996948 
	C132.284119,249.601868 132.417160,248.206787 132.608780,246.706528 
	C132.608780,246.706528 132.504089,246.647110 132.271317,246.002258 
	C131.264481,245.165405 130.257645,244.328568 129.159958,243.707886 
	C129.159958,243.707886 129.376266,243.798386 129.085159,243.324188 
z"/>
<path fill="#032B26" opacity="1.000000" stroke="none" 
	d="
M246.905640,248.984894 
	C244.959991,252.520660 243.207779,256.196289 238.115112,255.791580 
	C230.878143,255.216446 223.209595,258.747375 216.437744,253.034210 
	C216.400909,252.599091 216.641525,252.356430 216.964691,252.596771 
	C217.828873,253.187012 218.380569,253.856247 218.909271,253.838577 
	C226.088104,253.598511 233.264664,253.279678 240.435150,252.865189 
	C240.633301,252.853745 240.757492,251.562912 241.096466,250.552155 
	C243.153061,249.818741 245.029343,249.401825 246.905640,248.984894 
z"/>
<path fill="#2EAFC8" opacity="1.000000" stroke="none" 
	d="
M252.928650,189.911331 
	C248.811905,187.868042 244.695175,185.824738 240.286469,183.615540 
	C239.994507,183.449631 239.503677,183.369141 239.009369,183.197083 
	C238.347473,182.929077 238.179871,182.833160 238.222504,182.613037 
	C238.958725,181.494202 239.484695,180.499573 240.341583,179.572647 
	C242.426163,180.205460 244.179810,180.770569 245.922546,181.259827 
	C245.911667,181.183960 245.759979,181.206024 246.001251,181.466644 
	C247.155289,181.958313 248.068054,182.189346 248.919525,182.329895 
	C248.858246,182.239395 248.677475,182.362259 248.928131,182.610535 
	C251.417694,183.657913 253.656570,184.457031 255.896286,185.215332 
	C255.897110,185.174530 255.815491,185.173172 255.976166,185.410278 
	C256.780365,186.026520 257.423920,186.405670 257.717651,186.844955 
	C255.942703,187.941299 254.517578,188.977493 253.051147,189.988647 
	C253.009842,189.963623 252.928650,189.911331 252.928650,189.911331 
z"/>
<path fill="#046056" opacity="1.000000" stroke="none" 
	d="
M247.143585,248.921158 
	C245.029343,249.401825 243.153061,249.818741 240.639648,250.585495 
	C237.178802,250.943649 234.347198,251.089539 231.533218,250.927994 
	C227.345139,250.687607 223.169525,250.230026 219.349548,249.666489 
	C223.290314,249.333694 226.922897,249.518997 230.429413,248.940323 
	C232.410339,248.613403 234.183914,247.030106 236.393585,246.220154 
	C237.769745,246.971527 238.771194,247.896103 239.842804,247.986160 
	C242.758041,248.231171 245.702972,248.123138 248.636124,248.155029 
	C248.217926,248.389160 247.799728,248.623291 247.143585,248.921158 
z"/>
<path fill="#052B30" opacity="1.000000" stroke="none" 
	d="
M256.785889,168.868317 
	C251.172913,166.693375 245.570663,164.139832 239.706360,161.313965 
	C242.124756,161.746826 244.775009,162.626297 247.495956,163.097961 
	C249.417465,163.431061 251.434799,163.211319 253.707062,163.205307 
	C254.004776,163.172211 254.137115,162.891998 254.137115,162.891998 
	C255.023621,164.757889 255.910110,166.623795 256.785889,168.868317 
z"/>
<path fill="#052B30" opacity="1.000000" stroke="none" 
	d="
M238.012253,182.737228 
	C238.179871,182.833160 238.347473,182.929077 238.761414,183.178009 
	C231.518036,183.781799 224.990433,181.353760 219.000153,176.457825 
	C218.797623,176.203644 218.939270,176.056198 219.379974,176.022858 
	C220.536407,176.162033 221.252121,176.334579 222.231216,176.719666 
	C226.681488,177.973160 230.868408,179.014114 235.024033,180.032104 
	C234.992752,180.009155 234.930145,179.963272 234.950653,180.289795 
	C235.984863,181.323303 236.998566,182.030258 238.012253,182.737228 
z"/>
<path fill="#032B26" opacity="1.000000" stroke="none" 
	d="
M168.058121,185.346924 
	C168.185165,184.973007 168.666656,185.054138 168.917007,185.503265 
	C168.758621,188.934952 168.349884,191.917496 167.786194,195.267365 
	C166.427032,201.760757 165.222824,207.886841 163.769318,213.998825 
	C163.520004,213.984741 163.021515,213.954391 163.021515,213.954391 
	C164.658035,204.543213 166.294556,195.132019 168.058121,185.346924 
z"/>
<path fill="#38CAB9" opacity="1.000000" stroke="none" 
	d="
M248.743713,247.733063 
	C245.702972,248.123138 242.758041,248.231171 239.842804,247.986160 
	C238.771194,247.896103 237.769745,246.971527 236.349182,245.899078 
	C235.994827,244.940826 236.027573,244.511047 236.060333,244.081284 
	C239.162201,244.030960 242.269852,244.079834 245.364136,243.899460 
	C247.918762,243.750549 248.982544,244.851166 248.743713,247.733063 
z"/>
<path fill="#032B26" opacity="1.000000" stroke="none" 
	d="
M235.724091,244.188202 
	C236.027573,244.511047 235.994827,244.940826 236.006470,245.691650 
	C234.183914,247.030106 232.410339,248.613403 230.429413,248.940323 
	C226.922897,249.518997 223.290314,249.333694 219.053467,249.730835 
	C217.811478,250.781174 217.226501,251.568802 216.641525,252.356430 
	C216.641525,252.356430 216.400909,252.599091 216.282715,252.718719 
	C215.166412,252.080383 214.168335,251.322388 213.170242,250.564407 
	C213.295990,250.084015 213.421722,249.603638 213.547470,249.123245 
	C217.093048,248.755814 220.654175,247.986664 224.180252,248.123138 
	C228.542450,248.291977 232.324951,247.556778 235.724091,244.188202 
z"/>
<path fill="#053218" opacity="1.000000" stroke="none" 
	d="
M161.792130,241.188156 
	C160.989899,238.691116 159.490356,236.177689 159.548645,233.700897 
	C159.636353,229.973495 160.813950,226.271744 161.750549,222.267303 
	C161.972916,221.975525 162.104385,222.091782 162.070831,222.522354 
	C162.010193,224.966034 161.983093,226.979141 161.723694,229.330719 
	C161.707916,233.406143 161.924438,237.143112 162.053848,240.957199 
	C161.966736,241.034332 161.792130,241.188156 161.792130,241.188156 
z"/>
<path fill="#053218" opacity="1.000000" stroke="none" 
	d="
M85.270142,204.135986 
	C86.618790,204.369873 87.999641,204.970459 89.610031,205.792999 
	C88.927620,206.757477 88.015656,207.500000 87.103699,208.242538 
	C86.503242,206.995926 85.902794,205.749298 85.270142,204.135986 
z"/>
<path fill="#053218" opacity="1.000000" stroke="none" 
	d="
M169.032135,244.234283 
	C169.031845,244.594849 169.031570,244.955414 169.033920,245.583878 
	C166.699829,244.510620 164.363113,243.169464 161.909271,241.508240 
	C161.792130,241.188156 161.966736,241.034332 162.303833,241.047485 
	C163.099304,241.322922 163.557693,241.585190 164.199432,242.082733 
	C164.920746,242.553864 165.458740,242.789764 165.999329,243.006424 
	C166.001938,242.987198 165.970291,243.009766 166.200287,243.258545 
	C167.297562,243.749649 168.164841,243.991974 169.032135,244.234283 
z"/>
<path fill="#053218" opacity="1.000000" stroke="none" 
	d="
M162.845764,214.309296 
	C163.021515,213.954391 163.520004,213.984741 163.784378,214.393295 
	C163.400635,217.231827 162.752502,219.661804 162.104385,222.091782 
	C162.104385,222.091782 161.972916,221.975525 161.905457,221.916962 
	C162.115326,219.460342 162.392654,217.062271 162.845764,214.309296 
z"/>
<path fill="#052B30" opacity="1.000000" stroke="none" 
	d="
M220.001221,149.001495 
	C220.002457,149.002975 220.018646,148.959885 220.007874,148.978760 
	C219.997101,148.997620 220.000000,149.000000 220.001221,149.001495 
z"/>
<path fill="#31D1A8" opacity="1.000000" stroke="none" 
	d="
M128.705841,155.250214 
	C131.974976,153.658432 134.993271,152.302933 138.624298,151.110474 
	C139.854523,151.886398 140.472000,152.499268 140.928345,153.429108 
	C135.462860,156.443268 130.158508,159.140427 124.503189,161.916382 
	C118.121834,164.745529 112.091446,167.495850 105.704590,170.220795 
	C101.253853,172.182480 97.159584,174.169540 93.065315,176.156601 
	C91.538635,175.760086 90.011963,175.363556 88.212990,174.864929 
	C101.445465,168.337402 114.950233,161.911957 128.705841,155.250214 
z"/>
<path fill="#32D490" opacity="1.000000" stroke="none" 
	d="
M66.305908,178.979553 
	C65.304611,179.100052 64.532425,179.069138 63.760242,179.038223 
	C63.948605,178.451569 64.136963,177.864929 64.325333,177.278275 
	C65.061890,177.794891 65.798447,178.311508 66.305908,178.979553 
z"/>
<path fill="#231F20" opacity="1.000000" stroke="none" 
	d="
M188.438797,139.176300 
	C186.792984,150.849091 185.359573,162.556656 183.455200,174.187103 
	C179.964584,195.505157 176.196060,216.777695 172.552963,238.518127 
	C172.562515,238.967026 172.556396,238.914719 172.068527,238.776169 
	C169.906311,238.630081 168.231964,238.622543 166.490952,238.624710 
	C166.424286,238.634415 166.403641,238.501266 166.438477,238.095551 
	C166.685059,235.051956 166.686707,232.377289 167.141373,229.781982 
	C171.260300,206.269897 175.476990,182.774933 179.621353,159.267273 
	C180.763779,152.787201 181.759598,146.281281 182.856110,139.795502 
	C182.889511,139.803757 182.831573,139.840958 183.298782,139.863846 
	C185.308670,139.677750 186.851349,139.468765 188.386230,139.228607 
	C188.378418,139.197449 188.438797,139.176300 188.438797,139.176300 
z"/>
<path fill="#2AB7C1" opacity="1.000000" stroke="none" 
	d="
M177.820251,140.417938 
	C180.568588,135.077682 184.012878,133.271729 188.665543,134.731384 
	C193.435898,136.227936 195.094772,139.351929 194.106949,145.323608 
	C192.460236,155.278732 190.734619,165.220810 189.076828,175.579651 
	C188.897110,176.561218 188.682800,177.131516 188.159058,177.935257 
	C187.177795,176.390717 186.505966,174.612762 185.834137,172.834793 
	C185.834137,172.834793 185.710068,173.064392 185.742081,172.842361 
	C185.851349,172.117004 185.928619,171.613663 186.005890,171.110336 
	C187.281830,163.091095 188.702194,155.090607 189.746536,147.041306 
	C190.063370,144.599274 189.341141,142.022430 188.766815,139.341812 
	C188.438797,139.176300 188.378418,139.197449 188.164017,139.004211 
	C186.243607,139.154312 184.537582,139.497635 182.831573,139.840958 
	C182.831573,139.840958 182.889511,139.803757 182.497437,139.880173 
	C181.462463,141.753632 180.819580,143.550674 180.025177,144.991333 
	C179.189178,143.229263 178.504715,141.823593 177.820251,140.417938 
z"/>
<path fill="#3AD9AE" opacity="1.000000" stroke="none" 
	d="
M174.587463,235.714966 
	C177.024155,221.166290 179.460831,206.617630 181.897507,192.068954 
	C182.426971,192.130554 182.956436,192.192154 183.485886,192.253754 
	C185.003281,198.087051 183.690704,203.871246 182.653061,209.687592 
	C181.021484,218.833023 179.506332,227.999237 177.593628,237.336456 
	C176.359390,236.915833 175.473434,236.315399 174.587463,235.714966 
z"/>
<path fill="#2ED99B" opacity="1.000000" stroke="none" 
	d="
M174.638245,235.826202 
	C175.473434,236.315399 176.359390,236.915833 177.467041,237.748734 
	C177.334824,238.918625 176.980927,239.856064 176.077072,241.050583 
	C175.025208,241.641052 174.523331,241.974426 174.021439,242.307800 
	C174.021439,242.307800 174.106171,242.158157 173.775818,242.254395 
	C170.953735,242.570343 168.462006,242.790054 165.970291,243.009766 
	C165.970291,243.009766 166.001938,242.987198 165.899734,242.807816 
	C165.203720,242.368118 164.609909,242.107788 164.016083,241.847473 
	C163.557693,241.585190 163.099304,241.322922 162.390930,240.970367 
	C161.924438,237.143112 161.707916,233.406143 162.006134,229.448486 
	C163.048233,229.535461 163.575562,229.843155 164.141541,230.534042 
	C164.921356,233.445251 165.662506,235.973251 166.403641,238.501266 
	C166.403641,238.501266 166.424286,238.634415 166.663818,238.933441 
	C168.787689,239.126556 170.672043,239.020645 172.556396,238.914734 
	C172.556396,238.914719 172.562515,238.967026 172.586456,238.966599 
	C172.916565,238.734756 173.222702,238.503342 173.882843,237.836044 
	C174.463486,236.882950 174.690140,236.365723 174.916809,235.848511 
	C174.916809,235.848511 174.689011,235.937424 174.638245,235.826202 
z"/>
<path fill="#38CAB9" opacity="1.000000" stroke="none" 
	d="
M185.569809,173.120377 
	C186.505966,174.612762 187.177795,176.390717 188.019531,178.205933 
	C187.760376,181.171051 187.458252,184.126846 186.824081,187.009598 
	C186.636459,187.862488 185.512604,188.509430 184.817764,189.250748 
	C184.220810,188.324402 183.023331,187.323502 183.127502,186.484177 
	C183.671402,182.102173 184.545944,177.761200 185.569809,173.120377 
z"/>
<path fill="#3AD9AE" opacity="1.000000" stroke="none" 
	d="
M166.200287,243.258545 
	C168.462006,242.790054 170.953735,242.570343 173.850555,242.296875 
	C172.759323,242.863815 171.262970,243.484482 169.399384,244.169724 
	C168.164841,243.991974 167.297562,243.749649 166.200287,243.258545 
z"/>
<path fill="#3AD9AE" opacity="1.000000" stroke="none" 
	d="
M174.627487,235.972321 
	C174.690140,236.365723 174.463486,236.882950 174.104675,237.651230 
	C174.094421,237.300232 174.216293,236.698181 174.627487,235.972321 
z"/>
<path fill="#38CAB9" opacity="1.000000" stroke="none" 
	d="
M185.852600,171.392242 
	C185.928619,171.613663 185.851349,172.117004 185.627289,172.780304 
	C185.553436,172.518219 185.626373,172.096191 185.852600,171.392242 
z"/>
<path fill="#3AD9AE" opacity="1.000000" stroke="none" 
	d="
M174.360291,242.379059 
	C174.523331,241.974426 175.025208,241.641052 175.798569,241.178833 
	C175.613083,241.516754 175.156113,241.983536 174.360291,242.379059 
z"/>
<path fill="#32D490" opacity="1.000000" stroke="none" 
	d="
M104.596321,211.531891 
	C105.100555,210.689468 105.877884,210.089706 107.216019,209.230911 
	C113.788528,211.718536 119.800224,214.465195 126.039627,217.481812 
	C131.231995,220.157944 136.196640,222.564133 140.831421,225.057465 
	C139.629776,225.801224 138.758026,226.457840 137.886276,227.114441 
	C126.880661,222.001160 115.875038,216.887878 104.596321,211.531891 
z"/>
<path fill="#2ED99B" opacity="1.000000" stroke="none" 
	d="
M111.183197,193.523605 
	C121.052757,197.300034 130.932480,201.050339 140.781021,204.880798 
	C142.271439,205.460480 143.616776,206.413132 144.845062,207.555664 
	C143.932907,208.398239 143.204910,208.878403 142.115387,209.311600 
	C138.502426,208.116669 135.250992,206.968689 131.941010,205.749771 
	C131.882477,205.678818 131.739914,205.795105 131.452942,205.539459 
	C127.355026,203.858124 123.544083,202.432434 119.696938,200.953308 
	C119.660736,200.899887 119.553780,200.972153 119.283035,200.703278 
	C117.334190,199.933578 115.656090,199.432770 113.989777,198.965820 
	C114.001564,198.999680 114.069275,198.976074 113.856888,198.700790 
	C111.705521,197.304703 109.766548,196.183899 108.192169,194.977142 
	C109.432243,194.435349 110.307716,193.979477 111.183197,193.523605 
z"/>
<path fill="#2ED99B" opacity="1.000000" stroke="none" 
	d="
M124.125237,179.049240 
	C119.196945,181.450745 114.268661,183.852264 109.072983,186.475647 
	C107.193604,187.205551 105.581627,187.713562 103.619019,187.972565 
	C103.167221,186.793015 103.066063,185.862488 103.195587,184.663544 
	C108.382561,182.480347 113.338852,180.565567 118.779541,178.704254 
	C120.884377,178.854889 122.504807,178.952072 124.125237,179.049240 
z"/>
<path fill="#1CDF99" opacity="1.000000" stroke="none" 
	d="
M142.476913,209.358566 
	C143.204910,208.878403 143.932907,208.398239 144.933685,207.907028 
	C145.771072,208.486343 146.842957,209.094879 146.822571,209.664276 
	C146.595688,215.997986 146.199890,222.325638 145.088852,228.883453 
	C143.790726,229.204636 143.253448,229.297318 142.716156,229.389999 
	C142.716156,229.389999 142.815079,229.379547 142.625580,229.117615 
	C140.916245,228.264572 139.396393,227.673462 137.876541,227.082352 
	C137.876541,227.082352 137.922974,227.083649 137.904633,227.099060 
	C138.758026,226.457840 139.629776,225.801224 141.188828,225.117218 
	C142.099823,225.181732 142.323532,225.273621 142.651001,225.391846 
	C143.064117,225.262650 143.373474,225.107117 143.802155,224.619446 
	C144.860596,219.089508 145.630722,213.906738 142.616791,209.160553 
	C142.666138,209.256149 142.476913,209.358566 142.476913,209.358566 
z"/>
<path fill="#1CDF99" opacity="1.000000" stroke="none" 
	d="
M102.964905,184.931946 
	C103.066063,185.862488 103.167221,186.793015 103.256790,188.002075 
	C105.708611,189.879944 108.172028,191.479309 110.909317,193.301147 
	C110.307716,193.979477 109.432243,194.435349 107.831505,194.874664 
	C103.018265,193.416306 98.930283,191.974487 94.842308,190.532654 
	C94.867096,189.928268 94.891891,189.323883 94.916679,188.719482 
	C97.599419,187.456970 100.282166,186.194458 102.964905,184.931946 
z"/>
<path fill="#32D490" opacity="1.000000" stroke="none" 
	d="
M138.106445,227.340515 
	C139.396393,227.673462 140.916245,228.264572 142.630524,229.167114 
	C141.328751,228.851898 139.832550,228.225281 138.106445,227.340515 
z"/>
<path fill="#32D490" opacity="1.000000" stroke="none" 
	d="
M99.997551,209.335876 
	C100.616631,209.446533 101.493698,209.805145 102.633072,210.412811 
	C102.015434,210.302505 101.135490,209.943161 99.997551,209.335876 
z"/>
<path fill="#32D490" opacity="1.000000" stroke="none" 
	d="
M142.938568,229.593109 
	C143.253448,229.297318 143.790726,229.204636 144.735138,229.078003 
	C144.481827,229.294769 143.821396,229.545502 142.938568,229.593109 
z"/>
<path fill="#212022" opacity="1.000000" stroke="none" 
	d="
M244.847702,209.906296 
	C244.847702,209.906296 244.589630,210.133850 244.122040,210.080139 
	C235.255508,213.715683 226.845398,217.380081 218.479599,221.142975 
	C217.835297,221.432785 217.503036,222.416321 217.028107,223.046982 
	C217.030472,223.016556 217.071365,223.062546 217.071365,223.062546 
	C212.575104,220.037415 212.567978,212.724716 217.350830,210.014587 
	C220.476562,208.243439 224.116501,207.405823 227.411026,205.898529 
	C230.216736,204.614883 232.858032,202.971893 235.729248,201.209045 
	C235.886414,200.930206 235.859818,200.879883 236.273117,200.907013 
	C239.447830,199.780884 242.209244,198.627640 245.197784,197.305374 
	C246.264816,196.714569 247.104752,196.292786 248.296494,195.815323 
	C250.763962,194.851166 252.879593,193.942688 255.292358,193.032959 
	C256.107513,192.780838 256.625519,192.529999 257.463867,192.213593 
	C260.235718,191.418076 262.126953,190.347015 260.522156,187.021530 
	C258.804474,186.230652 257.309967,185.701920 255.815491,185.173172 
	C255.815491,185.173172 255.897110,185.174530 255.741150,184.889801 
	C253.282608,183.857452 250.980042,183.109863 248.677475,182.362274 
	C248.677475,182.362259 248.858246,182.239395 248.635391,182.117798 
	C247.528351,181.732819 246.644165,181.469421 245.759979,181.206024 
	C245.759979,181.206024 245.911667,181.183960 245.719879,180.959167 
	C241.309219,179.217987 237.090347,177.701599 232.895020,176.162384 
	C232.918564,176.139572 232.913651,176.204010 232.754639,175.881714 
	C230.059860,174.764114 227.524109,173.968796 224.645706,173.098404 
	C223.837402,172.975723 223.371765,172.928131 222.782532,172.571121 
	C221.561783,171.308746 220.597244,170.102615 219.344650,169.446304 
	C213.667328,166.471741 212.464294,163.165298 215.000916,156.458496 
	C219.350052,157.958969 223.707062,159.462158 228.064072,160.965347 
	C228.064072,160.965347 228.485931,161.061707 228.867783,161.420975 
	C231.611313,162.733612 233.972992,163.686981 236.334671,164.640350 
	C236.334671,164.640366 236.189346,164.673294 236.367111,164.918884 
	C238.096848,165.772141 239.648819,166.379807 241.200806,166.987457 
	C241.200806,166.987457 241.531509,167.011536 241.866333,167.385223 
	C244.586105,168.812439 246.971054,169.865982 249.355988,170.919525 
	C249.355988,170.919525 249.614639,170.905060 249.903381,171.278687 
	C255.547272,174.471420 260.873688,177.346848 266.264526,180.095947 
	C273.738495,183.907425 274.595764,192.175980 268.036072,197.274643 
	C267.161499,197.954407 266.575043,199.004822 265.743774,199.976807 
	C265.632385,200.069992 265.342712,200.091492 265.005981,200.111206 
	C263.743347,200.674942 262.817444,201.218979 261.687012,201.843018 
	C261.482483,201.923050 261.047424,201.983459 260.662537,202.020126 
	C255.522430,204.429306 250.767212,206.801834 246.011978,209.174347 
	C246.011978,209.174332 245.995605,209.051453 245.826233,209.154968 
	C245.387131,209.474426 245.117416,209.690369 244.847702,209.906296 
z"/>
<path fill="#022938" opacity="1.000000" stroke="none" 
	d="
M227.944366,160.726166 
	C223.707062,159.462158 219.350052,157.958969 215.000916,156.458496 
	C212.464294,163.165298 213.667328,166.471741 219.344650,169.446304 
	C220.597244,170.102615 221.561783,171.308746 222.423126,172.607635 
	C217.071381,170.413727 209.683731,169.835312 211.932678,160.666245 
	C211.951538,159.891983 211.901199,159.447876 211.908417,158.603577 
	C212.052887,156.623016 212.139816,155.042633 212.252548,152.992783 
	C217.493301,155.430420 222.236450,157.636612 226.979599,159.842789 
	C227.261276,160.057526 227.542969,160.272263 227.944366,160.726166 
z"/>
<path fill="#2ABFD7" opacity="1.000000" stroke="none" 
	d="
M226.850174,159.548080 
	C222.236450,157.636612 217.493301,155.430420 212.252548,152.992783 
	C212.139816,155.042633 212.052887,156.623016 211.538361,158.603897 
	C210.124344,158.996796 209.137955,158.989197 208.151550,158.981598 
	C208.117172,157.281387 208.082779,155.581161 208.345032,153.343048 
	C210.129410,151.801529 211.617142,150.797897 213.104858,149.794281 
	C216.837830,151.464066 220.570816,153.133865 224.638046,154.952347 
	C225.555130,156.485153 226.137939,157.869263 226.850174,159.548080 
z"/>
<path fill="#022938" opacity="1.000000" stroke="none" 
	d="
M265.855164,199.883606 
	C266.575043,199.004822 267.161499,197.954407 268.036072,197.274643 
	C274.595764,192.175980 273.738495,183.907425 266.264526,180.095947 
	C260.873688,177.346848 255.547272,174.471420 250.007843,171.355286 
	C256.837250,174.287186 263.901245,177.414917 270.813080,180.848862 
	C271.911896,181.394791 272.862701,183.280609 272.955292,184.611420 
	C273.217407,188.378998 272.998566,192.180023 272.654144,196.536041 
	C272.200317,197.415314 272.061523,197.726440 271.922729,198.037582 
	C271.685760,198.226089 271.471283,198.437424 270.755280,198.809387 
	C268.772552,199.259308 267.313873,199.571442 265.855164,199.883606 
z"/>
<path fill="#2EAFC8" opacity="1.000000" stroke="none" 
	d="
M265.743774,199.976791 
	C267.313873,199.571442 268.772552,199.259308 270.602661,198.976257 
	C270.993286,199.495499 271.012482,199.985641 271.047455,200.843567 
	C266.971069,203.184921 262.878906,205.158463 258.397644,207.070221 
	C258.202667,206.125931 258.396820,205.243408 258.759766,204.077576 
	C258.928558,203.794235 258.836456,203.981659 259.023682,203.824112 
	C259.476959,203.471909 259.744385,203.279160 260.213409,202.931595 
	C260.624908,202.511078 260.836182,202.247269 261.047424,201.983459 
	C261.047424,201.983459 261.482483,201.923050 262.015686,201.814392 
	C263.480194,201.167648 264.411469,200.629578 265.342712,200.091492 
	C265.342712,200.091492 265.632385,200.069992 265.743774,199.976791 
z"/>
<path fill="#2ABFD7" opacity="1.000000" stroke="none" 
	d="
M274.059143,185.774414 
	C274.271088,184.868881 274.464996,184.297928 274.658936,183.726974 
	C274.921509,183.755569 275.184082,183.784180 275.446655,183.812790 
	C275.446655,186.276062 275.446655,188.739349 275.446655,191.202621 
	C275.070953,191.218140 274.695282,191.233658 274.319580,191.249176 
	C274.226746,189.535767 274.133942,187.822372 274.059143,185.774414 
z"/>
<path fill="#022938" opacity="1.000000" stroke="none" 
	d="
M236.102417,164.389847 
	C233.972992,163.686981 231.611313,162.733612 229.073090,161.489288 
	C231.221069,162.178680 233.545609,163.159012 236.102417,164.389847 
z"/>
<path fill="#022938" opacity="1.000000" stroke="none" 
	d="
M249.127747,170.643204 
	C246.971054,169.865982 244.586105,168.812439 242.010193,167.467636 
	C244.179306,168.239868 246.539413,169.303375 249.127747,170.643204 
z"/>
<path fill="#022938" opacity="1.000000" stroke="none" 
	d="
M240.972763,166.714264 
	C239.648819,166.379807 238.096848,165.772141 236.350922,164.846130 
	C237.686218,165.165573 239.215469,165.803329 240.972763,166.714264 
z"/>
<path fill="#2ABFD7" opacity="1.000000" stroke="none" 
	d="
M272.179657,197.987549 
	C272.061523,197.726440 272.200317,197.415314 272.596436,196.992188 
	C273.297821,196.802902 273.741913,196.725601 274.186005,196.648315 
	C273.602875,197.078049 273.019745,197.507782 272.179657,197.987549 
z"/>
<path fill="#31D1A8" opacity="1.000000" stroke="none" 
	d="
M116.141434,119.122887 
	C116.176140,118.807556 116.210846,118.492226 116.245560,118.176895 
	C116.822876,118.277306 117.400208,118.377708 117.977531,118.478104 
	C117.725792,118.617538 117.474052,118.756981 116.847626,118.968903 
	C116.472939,119.041382 116.141426,119.122887 116.141434,119.122887 
z"/>
<path fill="#231F20" opacity="1.000000" stroke="none" 
	d="
M116.224976,119.104523 
	C116.141426,119.122887 116.472939,119.041382 116.639366,119.063362 
	C116.805794,119.085342 116.308533,119.086151 116.224976,119.104523 
z"/>
<path fill="#231F20" opacity="1.000000" stroke="none" 
	d="
M121.478592,122.510483 
	C121.448303,122.523445 121.508881,122.497520 121.478592,122.510483 
z"/>
<path fill="#38CAB9" opacity="1.000000" stroke="none" 
	d="
M227.848068,219.628372 
	C227.912216,220.217468 227.976364,220.806580 228.083679,221.837799 
	C223.355804,224.459595 219.051147,228.306213 212.738480,225.738449 
	C214.038895,225.044296 215.339310,224.350143 216.855560,223.359268 
	C217.071365,223.062546 217.030472,223.016556 217.383377,222.994949 
	C221.106873,221.858353 224.477478,220.743362 227.848068,219.628372 
z"/>
<path fill="#34BBC7" opacity="1.000000" stroke="none" 
	d="
M219.485443,206.112335 
	C219.079224,205.966309 219.073303,205.793427 219.059692,205.361206 
	C220.088531,204.368042 221.125061,203.634186 222.825012,202.987274 
	C225.318619,203.035706 227.148834,202.997192 229.029083,203.019958 
	C229.079132,203.081253 229.179260,203.203781 229.179260,203.203796 
	C226.081421,204.164368 222.983582,205.124924 219.485443,206.112335 
z"/>
<path fill="#34BBC7" opacity="1.000000" stroke="none" 
	d="
M235.873566,200.904617 
	C233.869293,201.620468 231.877853,202.361893 229.532837,203.153549 
	C229.179260,203.203781 229.079132,203.081253 229.263611,202.767044 
	C231.651245,201.655594 233.854401,200.858353 236.004059,200.264771 
	C235.950577,200.468414 235.859818,200.879883 235.859818,200.879883 
	C235.859818,200.879883 235.886414,200.930206 235.873566,200.904617 
z"/>
<path fill="#053218" opacity="1.000000" stroke="none" 
	d="
M93.972588,202.031296 
	C93.043518,201.686523 92.084442,201.405838 91.189972,200.987137 
	C81.396881,196.403168 80.369301,194.787872 82.059662,184.004166 
	C82.328438,182.289459 84.655487,180.640198 86.381454,179.483856 
	C88.086533,178.341522 90.235847,177.862274 92.630371,177.090302 
	C93.070473,177.088486 93.216400,177.258896 93.016113,177.523636 
	C91.209045,178.918625 89.334091,179.810333 88.063133,181.239273 
	C86.462128,183.039307 84.656471,185.126541 84.171761,187.357651 
	C82.967972,192.898743 85.086937,197.028549 90.718628,199.091019 
	C92.047119,199.577560 93.115326,200.774796 94.220627,201.741669 
	C94.137970,201.838226 93.972588,202.031296 93.972588,202.031296 
z"/>
<path fill="#053218" opacity="1.000000" stroke="none" 
	d="
M125.811920,217.211853 
	C119.800224,214.465195 113.788528,211.718536 107.419037,208.919846 
	C106.615601,208.577301 106.169960,208.286789 105.276039,207.721558 
	C104.150398,207.045547 103.473038,206.644302 102.903107,206.115295 
	C103.010536,205.987534 103.225464,205.732086 103.589966,205.806992 
	C111.362511,209.516998 118.770554,213.152100 126.086937,216.893387 
	C125.995285,216.999557 125.811920,217.211853 125.811920,217.211853 
z"/>
<path fill="#053218" opacity="1.000000" stroke="none" 
	d="
M93.029663,176.346924 
	C97.159584,174.169540 101.253853,172.182480 105.697342,170.492188 
	C106.043388,171.151535 106.040215,171.514130 105.744904,172.082520 
	C101.373985,173.945175 97.295197,175.602036 93.216400,177.258896 
	C93.216400,177.258896 93.070473,177.088486 92.997452,177.003326 
	C92.924423,176.918167 92.994019,176.537231 93.029663,176.346924 
z"/>
<path fill="#053218" opacity="1.000000" stroke="none" 
	d="
M100.157593,205.528503 
	C99.981949,205.287201 99.751007,205.124252 99.072388,204.779953 
	C98.029709,204.120285 97.379417,203.720291 96.818909,203.202698 
	C96.908684,203.085098 97.084282,202.846939 97.446831,202.894684 
	C99.614738,203.872299 101.420105,204.802185 103.225464,205.732086 
	C103.225464,205.732086 103.010536,205.987534 102.569885,206.034332 
	C101.472023,205.896912 100.814812,205.712708 100.157593,205.528503 
z"/>
<path fill="#32D490" opacity="1.000000" stroke="none" 
	d="
M96.729126,203.320297 
	C97.379417,203.720291 98.029709,204.120285 98.859444,204.751099 
	C97.564308,204.383850 96.089737,203.785751 94.708313,202.999466 
	C95.444008,202.980957 96.086571,203.150620 96.729126,203.320297 
z"/>
<path fill="#32D490" opacity="1.000000" stroke="none" 
	d="
M100.383102,205.805527 
	C100.814812,205.712708 101.472023,205.896912 102.462456,206.162079 
	C103.473038,206.644302 104.150398,207.045547 105.005112,207.689011 
	C103.657845,207.314987 102.133232,206.698761 100.383102,205.805527 
z"/>
<path fill="#053218" opacity="1.000000" stroke="none" 
	d="
M96.818909,203.202698 
	C96.086571,203.150620 95.444008,202.980957 94.474831,202.745392 
	C94.148209,202.679520 94.070045,202.352798 94.021317,202.192047 
	C93.972588,202.031296 94.137970,201.838226 94.504936,201.841309 
	C95.609360,202.178574 96.346817,202.512756 97.084282,202.846939 
	C97.084282,202.846939 96.908684,203.085098 96.818909,203.202698 
z"/>
<path fill="#2AB7C1" opacity="1.000000" stroke="none" 
	d="
M171.178650,175.973160 
	C172.509003,168.168488 173.839340,160.363800 175.483200,152.078888 
	C176.244247,150.980560 176.691788,150.362488 177.374390,149.419769 
	C177.984467,151.370956 178.393799,152.680115 178.820831,154.392181 
	C177.416443,162.174713 175.994370,169.554337 174.341629,176.976974 
	C173.133530,176.671036 172.156082,176.322098 171.178650,175.973160 
z"/>
<path fill="#38CAB9" opacity="1.000000" stroke="none" 
	d="
M171.084473,176.352142 
	C172.156082,176.322098 173.133530,176.671036 174.385956,177.378983 
	C173.404541,184.480942 172.148148,191.223877 170.758865,197.727722 
	C169.731033,196.625748 168.836090,195.762894 167.941147,194.900040 
	C168.349884,191.917496 168.758621,188.934952 169.158188,185.541199 
	C169.149017,185.129990 169.109787,185.076035 169.290527,184.841446 
	C169.583405,183.747330 169.695526,182.887817 169.807663,182.028290 
	C170.201874,180.262558 170.596085,178.496841 171.084473,176.352142 
z"/>
<path fill="#34BBC7" opacity="1.000000" stroke="none" 
	d="
M178.803131,153.989273 
	C178.393799,152.680115 177.984467,151.370956 177.374390,149.419769 
	C176.691788,150.362488 176.244247,150.980560 175.601089,151.774933 
	C176.036713,148.320053 176.667969,144.688858 177.559738,140.737808 
	C178.504715,141.823593 179.189178,143.229263 180.035858,145.388092 
	C179.733109,148.757263 179.268127,151.373260 178.803131,153.989273 
z"/>
<path fill="#032B26" opacity="1.000000" stroke="none" 
	d="
M169.689911,182.325409 
	C169.695526,182.887817 169.583405,183.747330 169.267029,184.865097 
	C169.232590,184.289734 169.402390,183.456116 169.689911,182.325409 
z"/>
<path fill="#25DEB9" opacity="1.000000" stroke="none" 
	d="
M141.089478,153.112122 
	C140.472000,152.499268 139.854523,151.886398 138.974243,151.078400 
	C145.701813,147.485413 147.034271,148.257050 147.046219,155.718811 
	C147.052063,159.365265 147.279587,163.032974 146.948090,166.649017 
	C146.787247,168.403656 145.570724,170.061523 144.260071,171.741272 
	C143.154388,170.863739 142.620743,170.008133 142.412811,168.866776 
	C142.826172,164.302231 143.023499,160.020554 142.912186,155.746918 
	C142.888916,154.853439 141.726791,153.989609 141.089478,153.112122 
z"/>
<path fill="#31D1A8" opacity="1.000000" stroke="none" 
	d="
M142.087097,169.152512 
	C142.620743,170.008133 143.154388,170.863739 143.921539,171.919800 
	C137.743790,174.474548 131.332520,176.828857 124.523254,179.116196 
	C122.504807,178.952072 120.884377,178.854889 119.073563,178.475098 
	C120.925407,177.329285 122.967621,176.466095 125.333397,175.528809 
	C127.812477,174.321899 129.968002,173.189117 132.067551,172.026550 
	C132.011581,171.996750 131.952057,172.108704 132.312012,172.105255 
	C133.519363,171.793976 134.366791,171.486160 135.187531,171.177216 
	C135.160843,171.176086 135.151978,171.229507 135.519745,171.229889 
	C137.954041,170.537689 140.020569,169.845108 142.087097,169.152512 
z"/>
<path fill="#2ABFD7" opacity="1.000000" stroke="none" 
	d="
M211.863480,160.996399 
	C209.683731,169.835312 217.071381,170.413727 222.546707,172.917053 
	C223.371765,172.928131 223.837402,172.975723 224.655243,173.301758 
	C225.007416,173.580185 225.069611,173.985397 224.850677,174.094696 
	C223.743774,174.971710 222.855804,175.739410 221.967850,176.507111 
	C221.252121,176.334579 220.536407,176.162033 219.450836,175.949158 
	C218.271530,175.416092 217.515854,174.780334 216.644333,174.452774 
	C207.980255,171.196030 207.974854,171.210419 208.449387,161.450806 
	C209.871490,160.991760 210.867493,160.994080 211.863480,160.996399 
z"/>
<path fill="#2DABD0" opacity="1.000000" stroke="none" 
	d="
M212.841248,149.485107 
	C211.617142,150.797897 210.129410,151.801529 208.394043,152.920288 
	C208.146423,151.759460 208.146423,150.483521 208.146423,148.781281 
	C209.785599,148.927277 211.181610,149.051620 212.841248,149.485107 
z"/>
<path fill="#2DABD0" opacity="1.000000" stroke="none" 
	d="
M211.932678,160.666245 
	C210.867493,160.994080 209.871490,160.991760 208.501953,161.002670 
	C208.089615,160.561920 208.050842,160.107941 208.081818,159.317780 
	C209.137955,158.989197 210.124344,158.996796 211.480789,159.004089 
	C211.901199,159.447876 211.951538,159.891983 211.932678,160.666245 
z"/>
<path fill="#2DABD0" opacity="1.000000" stroke="none" 
	d="
M295.849915,193.890839 
	C291.186676,193.856262 288.803253,191.495590 288.905853,187.436035 
	C289.014587,183.132416 292.591492,181.369385 296.097382,181.523804 
	C298.017609,181.608398 300.893982,183.957428 301.460480,185.848206 
	C302.665649,189.870926 300.552368,192.856842 295.849915,193.890839 
M294.782745,189.942749 
	C295.692657,188.629730 296.602539,187.316696 297.512451,186.003677 
	C296.354218,185.657578 295.195953,185.311478 294.037720,184.965363 
	C294.058655,186.560684 294.079590,188.155991 294.782745,189.942749 
z"/>
<path fill="#2AB7C1" opacity="1.000000" stroke="none" 
	d="
M236.057541,200.061111 
	C233.854401,200.858353 231.651245,201.655594 229.213562,202.705750 
	C227.148834,202.997192 225.318619,203.035706 223.161133,203.004333 
	C226.963852,200.918320 231.093826,198.902191 235.688751,196.825745 
	C236.342667,196.721252 236.482925,196.609604 236.574463,196.430481 
	C236.574463,196.430481 236.661453,196.439178 237.066971,196.593750 
	C239.053513,197.197769 240.634521,197.647202 241.969971,198.279999 
	C240.950500,198.682648 240.176605,198.901932 239.044647,199.152618 
	C237.779999,199.475845 236.873413,199.767670 235.989960,200.034485 
	C236.013092,200.009476 236.057541,200.061111 236.057541,200.061111 
z"/>
<path fill="#34BBC7" opacity="1.000000" stroke="none" 
	d="
M242.215546,198.096619 
	C240.634521,197.647202 239.053513,197.197769 237.062683,196.637253 
	C239.799835,195.215439 242.946777,193.904694 246.585052,192.830551 
	C247.365814,194.001755 247.655243,194.936386 247.944672,195.871002 
	C247.104752,196.292786 246.264816,196.714569 244.851868,197.386627 
	C243.591064,197.790146 242.903305,197.943375 242.215546,198.096619 
z"/>
<path fill="#2EAFC8" opacity="1.000000" stroke="none" 
	d="
M248.296494,195.815323 
	C247.655243,194.936386 247.365814,194.001755 246.949036,192.722504 
	C248.633163,191.586563 250.444611,190.795258 252.592346,189.957642 
	C252.928650,189.911331 253.009842,189.963623 253.153931,190.270569 
	C253.863754,191.396408 254.429489,192.215302 254.995224,193.034210 
	C252.879593,193.942688 250.763962,194.851166 248.296494,195.815323 
z"/>
<path fill="#34BBC7" opacity="1.000000" stroke="none" 
	d="
M236.397430,196.467346 
	C236.482925,196.609604 236.342667,196.721252 236.061676,196.765152 
	C235.969635,196.764893 236.220383,196.504227 236.397430,196.467346 
z"/>
<path fill="#052B30" opacity="1.000000" stroke="none" 
	d="
M228.009247,219.322754 
	C224.477478,220.743362 221.106873,221.858353 217.381012,223.025375 
	C217.503036,222.416321 217.835297,221.432785 218.479599,221.142975 
	C226.845398,217.380081 235.255508,213.715683 243.951508,210.102905 
	C238.889206,213.125290 233.529816,216.071228 228.009247,219.322754 
z"/>
<path fill="#022938" opacity="1.000000" stroke="none" 
	d="
M260.662537,202.020142 
	C260.836182,202.247269 260.624908,202.511078 259.929321,202.951324 
	C259.242157,203.412399 259.039307,203.697021 258.836456,203.981659 
	C258.836456,203.981659 258.928558,203.794235 258.835388,203.747116 
	C254.747467,205.506393 250.752670,207.312790 246.384918,209.146774 
	C250.767212,206.801834 255.522430,204.429306 260.662537,202.020142 
z"/>
<path fill="#022938" opacity="1.000000" stroke="none" 
	d="
M245.124130,209.862518 
	C245.117416,209.690369 245.387131,209.474426 245.887665,209.146820 
	C245.879181,209.296326 245.639862,209.557526 245.124130,209.862518 
z"/>
<path fill="#2DDC8F" opacity="1.000000" stroke="none" 
	d="
M124.852867,252.082947 
	C121.651711,247.919174 122.233803,245.788986 127.876312,243.284653 
	C128.762634,243.548203 129.067703,243.677414 129.376266,243.798386 
	C129.376266,243.798386 129.159958,243.707886 129.330597,243.919159 
	C130.502197,244.969315 131.503143,245.808212 132.504089,246.647110 
	C132.504089,246.647110 132.608780,246.706528 132.410583,247.121429 
	C132.027374,248.825974 131.842361,250.115631 131.657349,251.405273 
	C131.657349,251.405273 131.684326,251.545578 131.191376,251.574066 
	C128.749924,251.762680 126.801392,251.922821 124.852867,252.082947 
z"/>
<path fill="#32D490" opacity="1.000000" stroke="none" 
	d="
M125.041702,252.356445 
	C126.801392,251.922821 128.749924,251.762680 131.121368,251.588196 
	C129.791473,254.028854 127.655975,254.196060 125.041702,252.356445 
z"/>
<path fill="#32D490" opacity="1.000000" stroke="none" 
	d="
M131.904221,251.201111 
	C131.842361,250.115631 132.027374,248.825974 132.381287,247.174011 
	C132.417160,248.206787 132.284119,249.601868 131.904221,251.201111 
z"/>
<path fill="#32D490" opacity="1.000000" stroke="none" 
	d="
M132.387695,246.324677 
	C131.503143,245.808212 130.502197,244.969315 129.376007,243.811066 
	C130.257645,244.328568 131.264481,245.165405 132.387695,246.324677 
z"/>
<path fill="#32D490" opacity="1.000000" stroke="none" 
	d="
M129.230713,243.561279 
	C129.067703,243.677414 128.762634,243.548203 128.239243,243.301102 
	C128.373337,243.235703 128.729248,243.279953 129.230713,243.561279 
z"/>
<path fill="#3AD9AE" opacity="1.000000" stroke="none" 
	d="
M216.964691,252.596771 
	C217.226501,251.568802 217.811478,250.781174 218.692535,249.929214 
	C223.169525,250.230026 227.345139,250.687607 231.533218,250.927994 
	C234.347198,251.089539 237.178802,250.943649 240.459351,250.901978 
	C240.757492,251.562912 240.633301,252.853745 240.435150,252.865189 
	C233.264664,253.279678 226.088104,253.598511 218.909271,253.838577 
	C218.380569,253.856247 217.828873,253.187012 216.964691,252.596771 
z"/>
<path fill="#2DABD0" opacity="1.000000" stroke="none" 
	d="
M255.292358,193.032944 
	C254.429489,192.215302 253.863754,191.396408 253.195236,190.295593 
	C254.517578,188.977493 255.942703,187.941299 257.730225,186.854553 
	C258.092651,186.803986 258.114594,186.819702 258.182587,187.129150 
	C257.881561,189.052109 257.512512,190.665619 257.143494,192.279144 
	C256.625519,192.529999 256.107513,192.780838 255.292358,193.032944 
z"/>
<path fill="#052B30" opacity="1.000000" stroke="none" 
	d="
M232.871460,176.185211 
	C237.090347,177.701599 241.309219,179.217987 245.730759,181.035034 
	C244.179810,180.770569 242.426163,180.205460 239.996185,179.395309 
	C237.856613,179.421280 236.393387,179.692276 234.930145,179.963272 
	C234.930145,179.963272 234.992752,180.009155 235.113083,179.680084 
	C234.446106,178.295746 233.658783,177.240479 232.871460,176.185211 
z"/>
<path fill="#2AB7C1" opacity="1.000000" stroke="none" 
	d="
M234.950653,180.289795 
	C236.393387,179.692276 237.856613,179.421280 239.665253,179.327606 
	C239.484695,180.499573 238.958725,181.494202 238.222504,182.613037 
	C236.998566,182.030258 235.984863,181.323303 234.950653,180.289795 
z"/>
<path fill="#052B30" opacity="1.000000" stroke="none" 
	d="
M248.928131,182.610535 
	C250.980042,183.109863 253.282608,183.857452 255.740326,184.930603 
	C253.656570,184.457031 251.417694,183.657913 248.928131,182.610535 
z"/>
<path fill="#052B30" opacity="1.000000" stroke="none" 
	d="
M255.976166,185.410278 
	C257.309967,185.701920 258.804474,186.230652 260.193665,186.969452 
	C259.430481,187.059570 258.772522,186.939636 258.114594,186.819702 
	C258.114594,186.819702 258.092651,186.803986 258.080048,186.794403 
	C257.423920,186.405670 256.780365,186.026520 255.976166,185.410278 
z"/>
<path fill="#052B30" opacity="1.000000" stroke="none" 
	d="
M246.001251,181.466644 
	C246.644165,181.469421 247.528351,181.732819 248.696671,182.208298 
	C248.068054,182.189346 247.155289,181.958313 246.001251,181.466644 
z"/>
<path fill="#231F20" opacity="1.000000" stroke="none" 
	d="
M254.078491,162.950897 
	C254.137115,162.891998 254.004776,163.172211 253.955017,163.151199 
	C253.905273,163.130188 254.019852,163.009796 254.078491,162.950897 
z"/>
<path fill="#2AB7C1" opacity="1.000000" stroke="none" 
	d="
M232.895020,176.162384 
	C233.658783,177.240479 234.446106,178.295746 235.144363,179.703033 
	C230.868408,179.014114 226.681488,177.973160 222.231216,176.719666 
	C222.855804,175.739410 223.743774,174.971710 225.221024,174.130585 
	C228.178085,174.772797 230.545868,175.488403 232.913651,176.204010 
	C232.913651,176.204010 232.918564,176.139572 232.895020,176.162384 
z"/>
<path fill="#31D1A8" opacity="1.000000" stroke="none" 
	d="
M167.786194,195.267365 
	C168.836090,195.762894 169.731033,196.625748 170.782074,198.139496 
	C169.335205,207.839096 167.787766,216.898346 166.073746,225.925964 
	C165.792816,227.405655 164.778336,228.746078 164.102890,230.150848 
	C163.575562,229.843155 163.048233,229.535461 162.238434,229.110016 
	C161.983093,226.979141 162.010193,224.966034 162.070831,222.522354 
	C162.752502,219.661804 163.400635,217.231827 164.033691,214.407379 
	C165.222824,207.886841 166.427032,201.760757 167.786194,195.267365 
z"/>
<path fill="#3AD9AE" opacity="1.000000" stroke="none" 
	d="
M164.199432,242.082718 
	C164.609909,242.107788 165.203720,242.368118 165.897125,242.827042 
	C165.458740,242.789764 164.920746,242.553864 164.199432,242.082718 
z"/>
<path fill="#032B26" opacity="1.000000" stroke="none" 
	d="
M142.412811,168.866776 
	C140.020569,169.845108 137.954041,170.537689 135.752258,170.964340 
	C137.007339,169.819534 138.434494,168.993179 139.779388,168.049576 
	C141.827530,166.612564 143.382950,159.472977 141.426605,158.228775 
	C139.955490,157.293182 137.073242,158.136276 134.973083,158.731003 
	C131.655350,159.670517 128.466568,161.065491 125.130966,162.160156 
	C125.038712,162.052612 124.854156,161.837585 124.854156,161.837585 
	C130.158508,159.140427 135.462860,156.443268 140.928345,153.429108 
	C141.726791,153.989609 142.888916,154.853439 142.912186,155.746918 
	C143.023499,160.020554 142.826172,164.302231 142.412811,168.866776 
z"/>
<path fill="#032B26" opacity="1.000000" stroke="none" 
	d="
M106.037033,171.876724 
	C106.040215,171.514130 106.043388,171.151535 106.053802,170.517563 
	C112.091446,167.495850 118.121834,164.745529 124.503189,161.916382 
	C124.854156,161.837585 125.038712,162.052612 124.903740,162.400909 
	C118.524864,165.791718 112.280952,168.834229 106.037033,171.876724 
z"/>
<path fill="#032B26" opacity="1.000000" stroke="none" 
	d="
M164.141541,230.534058 
	C164.778336,228.746078 165.792816,227.405655 166.073746,225.925964 
	C167.787766,216.898346 169.335205,207.839096 170.914978,198.378601 
	C172.148148,191.223877 173.404541,184.480942 174.616608,177.335983 
	C175.994370,169.554337 177.416443,162.174713 178.820831,154.392181 
	C179.268127,151.373260 179.733109,148.757263 180.187393,145.744492 
	C180.819580,143.550674 181.462463,141.753632 182.464020,139.871918 
	C181.759598,146.281281 180.763779,152.787201 179.621353,159.267273 
	C175.476990,182.774933 171.260300,206.269897 167.141373,229.781982 
	C166.686707,232.377289 166.685059,235.051956 166.438477,238.095551 
	C165.662506,235.973251 164.921356,233.445251 164.141541,230.534058 
z"/>
<path fill="#032B26" opacity="1.000000" stroke="none" 
	d="
M172.068527,238.776184 
	C170.672043,239.020645 168.787689,239.126556 166.730469,238.923737 
	C168.231964,238.622543 169.906311,238.630081 172.068527,238.776184 
z"/>
<path fill="#032B26" opacity="1.000000" stroke="none" 
	d="
M183.298782,139.863846 
	C184.537582,139.497635 186.243607,139.154312 188.171814,139.035385 
	C186.851349,139.468765 185.308670,139.677750 183.298782,139.863846 
z"/>
<path fill="#053218" opacity="1.000000" stroke="none" 
	d="
M142.547256,225.365509 
	C142.323532,225.273621 142.099823,225.181732 141.518707,225.030075 
	C136.196640,222.564133 131.231995,220.157944 126.039627,217.481812 
	C125.811920,217.211853 125.995285,216.999557 126.459732,216.949448 
	C130.326920,218.125259 133.784851,219.219482 137.116135,220.615875 
	C140.159363,221.891510 141.435638,220.743790 141.832077,217.812912 
	C142.243118,214.774063 141.577805,212.447998 138.566757,210.810104 
	C136.179428,209.511475 134.174362,207.510086 131.999557,205.820724 
	C135.250992,206.968689 138.502426,208.116669 142.115387,209.311600 
	C142.476913,209.358566 142.666138,209.256149 142.714767,209.629272 
	C142.890656,214.978912 143.017914,219.955444 142.969376,225.004059 
	C142.793579,225.076141 142.547256,225.365509 142.547256,225.365509 
z"/>
<path fill="#231F20" opacity="1.000000" stroke="none" 
	d="
M131.941010,205.749771 
	C134.174362,207.510086 136.179428,209.511475 138.566757,210.810104 
	C141.577805,212.447998 142.243118,214.774063 141.832077,217.812912 
	C141.435638,220.743790 140.159363,221.891510 137.116135,220.615875 
	C133.784851,219.219482 130.326920,218.125259 126.551392,216.843277 
	C118.770554,213.152100 111.362511,209.516998 103.589966,205.806976 
	C101.420105,204.802185 99.614738,203.872299 97.446831,202.894684 
	C96.346817,202.512756 95.609360,202.178574 94.587585,201.744751 
	C93.115326,200.774796 92.047119,199.577560 90.718628,199.091019 
	C85.086937,197.028549 82.967972,192.898743 84.171761,187.357651 
	C84.656471,185.126541 86.462128,183.039307 88.063133,181.239273 
	C89.334091,179.810333 91.209045,178.918625 93.016113,177.523636 
	C97.295197,175.602036 101.373985,173.945175 105.744911,172.082520 
	C112.280952,168.834229 118.524864,165.791718 124.995987,162.508453 
	C128.466568,161.065491 131.655350,159.670517 134.973083,158.731003 
	C137.073242,158.136276 139.955490,157.293182 141.426605,158.228775 
	C143.382950,159.472977 141.827530,166.612564 139.779388,168.049576 
	C138.434494,168.993179 137.007339,169.819534 135.384491,170.963959 
	C135.151978,171.229507 135.160843,171.176086 134.840881,171.180481 
	C133.664627,171.492813 132.808334,171.800766 131.952057,172.108704 
	C131.952057,172.108704 132.011581,171.996750 131.687454,172.049576 
	C129.237045,172.824631 127.110756,173.546860 124.646881,174.383759 
	C115.489273,177.790939 106.606514,180.930405 97.899338,184.498383 
	C96.040863,185.259933 94.125198,187.372086 93.566383,189.256577 
	C93.230865,190.388046 95.154152,193.149429 96.609978,193.682465 
	C102.311447,195.770081 108.230850,197.262497 114.069275,198.976074 
	C114.069275,198.976074 114.001564,198.999680 114.246880,199.242523 
	C116.179390,199.980957 117.866585,200.476547 119.553780,200.972137 
	C119.553780,200.972153 119.660736,200.899887 119.906281,201.252045 
	C124.014519,203.001160 127.877220,204.398132 131.739914,205.795105 
	C131.739914,205.795105 131.882477,205.678818 131.941010,205.749771 
z"/>
<path fill="#053218" opacity="1.000000" stroke="none" 
	d="
M113.856888,198.700790 
	C108.230850,197.262497 102.311447,195.770081 96.609978,193.682465 
	C95.154152,193.149429 93.230865,190.388046 93.566383,189.256577 
	C94.125198,187.372086 96.040863,185.259933 97.899338,184.498383 
	C106.606514,180.930405 115.489273,177.790939 124.649048,174.603394 
	C124.989639,175.006714 124.996658,175.304886 125.009842,175.602921 
	C122.967621,176.466095 120.925407,177.329285 118.589157,178.421631 
	C113.338852,180.565567 108.382561,182.480347 103.195587,184.663544 
	C100.282166,186.194458 97.599419,187.456970 94.916679,188.719482 
	C94.891891,189.323883 94.867096,189.928268 94.842308,190.532654 
	C98.930283,191.974487 103.018265,193.416306 107.466911,194.960602 
	C109.766548,196.183899 111.705521,197.304703 113.856888,198.700790 
z"/>
<path fill="#053218" opacity="1.000000" stroke="none" 
	d="
M131.452942,205.539459 
	C127.877220,204.398132 124.014519,203.001160 119.942482,201.305450 
	C123.544083,202.432434 127.355026,203.858124 131.452942,205.539459 
z"/>
<path fill="#053218" opacity="1.000000" stroke="none" 
	d="
M119.283035,200.703262 
	C117.866585,200.476547 116.179390,199.980957 114.235092,199.208679 
	C115.656090,199.432770 117.334190,199.933578 119.283035,200.703262 
z"/>
<path fill="#2ED99B" opacity="1.000000" stroke="none" 
	d="
M143.145172,224.931976 
	C143.017914,219.955444 142.890656,214.978912 142.665421,209.533661 
	C145.630722,213.906738 144.860596,219.089508 143.669922,224.615433 
	C143.418381,224.943558 143.145187,224.931976 143.145172,224.931976 
z"/>
<path fill="#32D490" opacity="1.000000" stroke="none" 
	d="
M142.969391,225.004059 
	C143.145187,224.931976 143.418381,224.943558 143.550613,224.947571 
	C143.373474,225.107117 143.064117,225.262650 142.651001,225.391846 
	C142.547256,225.365509 142.793579,225.076141 142.969391,225.004059 
z"/>
<path fill="#2EAFC8" opacity="1.000000" stroke="none" 
	d="
M258.182587,187.129150 
	C258.772522,186.939636 259.430481,187.059570 260.416901,187.231583 
	C262.126953,190.347015 260.235718,191.418076 257.463867,192.213593 
	C257.512512,190.665619 257.881561,189.052109 258.182587,187.129150 
z"/>
<path fill="#052B30" opacity="1.000000" stroke="none" 
	d="
M241.969971,198.279999 
	C242.903305,197.943375 243.591064,197.790146 244.624741,197.555634 
	C242.209244,198.627640 239.447830,199.780884 236.273117,200.907013 
	C235.859818,200.879883 235.950577,200.468414 236.004059,200.264771 
	C236.057541,200.061111 236.013092,200.009476 236.359619,200.015778 
	C237.604996,199.721802 238.503845,199.421509 239.402710,199.121216 
	C240.176605,198.901932 240.950500,198.682648 241.969971,198.279999 
z"/>
<path fill="#052B30" opacity="1.000000" stroke="none" 
	d="
M232.754639,175.881714 
	C230.545868,175.488403 228.178085,174.772797 225.439957,174.021286 
	C225.069611,173.985397 225.007416,173.580185 224.997894,173.376831 
	C227.524109,173.968796 230.059860,174.764114 232.754639,175.881714 
z"/>
<path fill="#022938" opacity="1.000000" stroke="none" 
	d="
M265.005981,200.111206 
	C264.411469,200.629578 263.480194,201.167648 262.220245,201.734360 
	C262.817444,201.218979 263.743347,200.674942 265.005981,200.111206 
z"/>
<path fill="#34BBC7" opacity="1.000000" stroke="none" 
	d="
M259.023682,203.824112 
	C259.039307,203.697021 259.242157,203.412399 259.729126,203.108032 
	C259.744385,203.279160 259.476959,203.471909 259.023682,203.824112 
z"/>
<path fill="#032B26" opacity="1.000000" stroke="none" 
	d="
M125.333397,175.528809 
	C124.996658,175.304886 124.989639,175.006714 124.986626,174.488739 
	C127.110756,173.546860 129.237045,172.824631 131.743423,172.079376 
	C129.968002,173.189117 127.812477,174.321899 125.333397,175.528809 
z"/>
<path fill="#032B26" opacity="1.000000" stroke="none" 
	d="
M132.312012,172.105255 
	C132.808334,171.800766 133.664627,171.492813 134.867554,171.181610 
	C134.366791,171.486160 133.519363,171.793976 132.312012,172.105255 
z"/>
<path fill="#0A3B3D" opacity="1.000000" stroke="none" 
	d="
M294.441620,189.847031 
	C294.079590,188.155991 294.058655,186.560684 294.037720,184.965363 
	C295.195953,185.311478 296.354218,185.657578 297.512451,186.003662 
	C296.602539,187.316696 295.692657,188.629730 294.441620,189.847031 
z"/>
<path fill="#34BBC7" opacity="1.000000" stroke="none" 
	d="
M239.044647,199.152603 
	C238.503845,199.421509 237.604996,199.721802 236.336487,200.040802 
	C236.873413,199.767670 237.779999,199.475845 239.044647,199.152603 
z"/>
</svg>