<svg version="1.1" id="Layer_1" xmlns="http://www.w3.org/2000/svg" xmlns:xlink="http://www.w3.org/1999/xlink" x="0px" y="0px"
	 width="100%" viewBox="0 0 736 414" enable-background="new 0 0 736 414" xml:space="preserve">
<path fill="#000000" opacity="1.000000" stroke="none" 
	d="
M737.000000,178.000000 
	C737.000000,182.690811 737.000000,187.381607 736.618774,192.548279 
	C735.474731,193.011765 734.711914,192.999405 733.994995,192.602448 
	C733.303955,189.785065 736.971863,185.198410 730.821411,185.052505 
	C730.821411,187.511398 730.654846,189.587784 730.920105,191.607437 
	C731.002747,192.236404 732.253845,192.711914 733.052551,193.572479 
	C733.970703,194.527863 734.806335,195.168396 735.717407,195.866730 
	C735.408203,196.866272 735.087463,197.902939 734.373779,198.982819 
	C733.718872,199.054764 733.456909,199.083511 733.035767,198.854523 
	C731.479370,199.660645 729.391357,200.437012 728.807617,201.839462 
	C726.599792,207.144226 724.880005,212.652115 722.594849,217.794830 
	C723.521851,210.096924 724.831604,202.688171 726.230103,194.777145 
	C723.427185,195.317383 721.361023,195.715622 718.980286,196.174484 
	C717.039062,213.270432 715.118408,230.185150 713.197754,247.099869 
	C713.614380,247.154327 714.031067,247.208786 714.447693,247.263229 
	C715.358704,245.467789 716.269714,243.672348 717.180725,241.876907 
	C717.451782,241.971344 717.722839,242.065781 717.993896,242.160202 
	C717.993896,245.440872 717.993896,248.721527 717.866943,252.385559 
	C717.608093,258.240845 714.014099,256.341644 711.101440,255.814697 
	C709.742188,259.268494 708.807922,262.889984 707.001404,266.005798 
	C700.912659,276.507294 696.696411,287.464966 696.891052,299.834137 
	C696.908630,300.949432 695.692993,302.084076 695.050049,303.209747 
	C694.625977,303.048309 694.201843,302.886871 693.777710,302.725403 
	C693.777710,298.884583 693.777710,295.043762 693.777710,290.603607 
	C686.983337,297.143799 682.848206,305.749725 673.451416,308.019470 
	C677.883850,302.117828 682.901794,296.832458 687.612366,291.285980 
	C696.519470,280.798065 703.764465,269.228455 707.094849,255.784027 
	C709.640442,245.507675 711.276123,234.990479 712.975891,224.525085 
	C714.271790,216.546326 715.033325,208.480804 716.104736,199.874939 
	C702.518921,201.664688 689.762146,203.345230 676.928162,204.648010 
	C674.286438,204.376556 671.356140,205.335464 669.228699,204.422852 
	C663.735962,202.066589 665.858826,205.715363 665.570312,208.108826 
	C664.049927,208.327484 662.950134,208.391830 661.850342,208.456177 
	C662.097534,207.399231 662.344727,206.342270 662.780518,204.478592 
	C652.027527,204.478592 641.334900,204.478592 630.260742,204.311539 
	C628.242371,205.167007 626.605469,206.189514 624.641235,207.178055 
	C623.887512,207.048660 623.461060,206.953217 622.997620,206.559204 
	C622.293823,206.242859 621.627014,206.225082 620.633362,206.198822 
	C619.882629,206.092194 619.458740,205.994049 619.155029,205.602783 
	C619.201782,204.698410 619.128418,204.087189 619.055054,203.475937 
	C618.679810,204.197235 618.304626,204.918549 617.536987,205.531891 
	C604.209412,203.191391 591.274353,200.958862 576.971619,198.490265 
	C578.633240,216.032684 580.143433,231.975952 581.335083,247.838959 
	C580.384460,247.167603 579.752319,246.576508 578.996094,245.581360 
	C577.346191,228.852859 575.820435,212.528412 574.296326,196.221771 
	C571.273132,195.165512 568.153809,194.075684 564.854980,192.641327 
	C564.519775,191.826599 564.431824,191.319244 564.197327,190.892380 
	C562.843994,188.428726 564.504272,183.089920 560.119751,183.822815 
	C555.163269,184.651306 559.319702,188.993851 558.562744,191.922791 
	C552.461243,200.227051 553.422424,209.569046 555.354004,218.111374 
	C557.074341,225.719788 561.694031,232.672592 565.031128,240.300903 
	C565.365845,242.153870 565.703552,243.620667 566.002502,245.520905 
	C565.114685,254.279053 564.265686,262.603760 563.416687,270.928436 
	C563.763550,271.041351 564.110352,271.154236 564.457214,271.267120 
	C566.209839,267.891357 567.962463,264.515625 570.437378,259.748657 
	C571.073853,273.153168 571.638000,285.032410 571.927246,297.046814 
	C571.419189,297.510254 571.186096,297.838470 570.555542,298.169067 
	C545.422974,292.253326 522.242859,283.115356 502.710754,266.423431 
	C502.611572,265.769043 502.512360,265.114624 502.413147,264.460236 
	C510.549652,260.822327 518.686096,257.184418 527.879089,253.074173 
	C525.771667,253.074173 524.765625,252.830002 523.940796,253.113388 
	C518.133484,255.108582 512.340759,257.151733 506.587952,259.298828 
	C501.081238,261.354126 498.179688,265.568024 498.787079,271.287628 
	C500.557770,287.962402 502.306885,304.660217 504.895874,321.218994 
	C506.289459,330.132111 509.386383,338.778961 511.580963,347.042114 
	C507.983765,348.842834 504.661896,350.279175 501.574493,352.110840 
	C498.035645,354.210388 494.868042,356.965424 491.253082,358.901581 
	C480.266693,364.785828 469.102539,370.337189 458.081177,376.157471 
	C442.117371,384.587708 433.750946,399.163025 427.000000,415.000000 
	C285.037018,415.000000 143.074020,415.000000 1.055519,415.000000 
	C1.055519,277.072998 1.055519,139.145981 1.055519,1.109473 
	C246.333298,1.109473 491.666656,1.109473 737.000000,1.109473 
	C737.000000,25.749382 737.000000,50.409679 736.556274,75.452934 
	C727.096619,77.045219 718.080750,78.254539 709.064880,79.463867 
	C708.671082,79.146355 708.277283,78.828850 707.883484,78.511337 
	C716.403870,67.032776 724.924255,55.554218 733.418945,44.110317 
	C733.516968,44.159733 733.265686,43.924957 733.016724,43.927330 
	C732.186462,43.935249 731.351501,43.986153 730.528076,44.094723 
	C712.073059,46.527985 694.438965,51.670914 677.704834,59.898537 
	C676.093506,60.690781 674.034302,60.572147 672.182983,60.876358 
	C672.019165,59.164631 671.523865,57.408466 671.746338,55.748505 
	C673.028320,46.183479 674.513306,36.645817 675.842590,27.086796 
	C676.068665,25.461222 675.874512,23.777212 675.874512,22.120201 
	C675.439758,21.974241 675.005005,21.828279 674.570312,21.682318 
	C663.869629,34.694588 653.168945,47.706860 642.290344,60.935463 
	C636.673096,48.246010 631.207092,35.898232 625.741089,23.550457 
	C625.373291,23.590628 625.005493,23.630800 624.637695,23.670973 
	C620.993835,37.690651 617.349976,51.710335 613.654846,65.927132 
	C597.206970,59.136288 581.568848,51.406624 563.876953,47.191544 
	C570.331360,59.855141 576.332642,71.629807 582.076050,82.898460 
	C566.097534,81.455376 550.188660,80.018570 534.279785,78.581764 
	C534.148560,79.130653 534.017395,79.679535 533.886169,80.228416 
	C542.716980,88.403290 553.020081,95.106445 560.705139,105.097099 
	C549.020081,110.048561 538.338928,114.574646 527.657776,119.100731 
	C527.727051,119.538605 527.796387,119.976471 527.865723,120.414345 
	C539.022339,122.336647 548.309265,132.985947 561.331299,126.229111 
	C550.501526,137.538513 540.107361,148.393112 529.713135,159.247711 
	C530.036133,159.657532 530.359131,160.067352 530.682129,160.477173 
	C541.452332,155.507401 551.152405,148.744431 560.956482,141.890045 
	C561.486145,142.297760 561.705383,142.451111 561.814331,142.942505 
	C553.243896,155.533920 553.712036,170.139191 549.751648,183.577911 
	C550.244080,183.743652 550.736450,183.909393 551.228882,184.075134 
	C561.795349,168.337952 572.361816,152.600769 582.928345,136.863586 
	C583.534607,137.140564 584.140808,137.417526 584.747070,137.694489 
	C573.377747,154.618149 575.341919,174.087891 572.859253,192.687271 
	C581.959290,178.499878 590.955994,164.418381 599.285706,149.952866 
	C602.489807,144.388550 606.563110,142.286575 612.679810,141.674957 
	C637.490906,139.194138 662.249634,140.597656 687.013306,142.131622 
	C688.378113,142.216171 690.047974,143.390656 690.911011,144.551880 
	C695.371643,150.553680 699.925171,156.524933 703.854004,162.873398 
	C708.418274,170.248566 712.368469,178.003799 716.648560,185.708099 
	C718.642639,170.932755 715.335754,157.607010 706.702881,145.340317 
	C708.832397,146.229263 710.096252,147.548096 711.305603,148.915192 
	C719.876648,158.604584 728.436523,168.303879 737.000000,178.000000 
M701.866882,183.297836 
	C702.544678,172.077408 702.963806,160.891922 693.682922,152.357544 
	C692.385986,151.164917 690.461121,149.905090 688.841919,149.924545 
	C660.703918,150.262482 632.568054,150.781876 604.433044,151.334534 
	C603.245300,151.357880 601.492859,151.724060 600.980652,152.542252 
	C595.967957,160.548523 589.351379,167.606186 590.912109,178.624008 
	C592.388977,189.050613 593.594116,191.433807 604.102661,193.022858 
	C605.748413,193.271713 607.401855,193.583923 609.058350,193.630280 
	C637.348267,194.421677 665.644470,195.962616 693.905640,192.941345 
	C700.320557,192.255554 701.873169,190.631485 701.866882,183.297836 
z"/>
<path fill="#010101" opacity="1.000000" stroke="none" 
	d="
M737.000000,295.000000 
	C737.000000,334.926361 737.000000,374.852692 737.000000,415.000000 
	C697.979370,415.000000 658.958374,415.000000 619.473511,414.546082 
	C619.009705,380.417236 619.009705,346.742310 619.009705,313.246796 
	C617.886536,312.873413 617.427490,312.648438 616.944763,312.570984 
	C606.882446,310.955627 606.400513,311.146637 606.661377,321.196869 
	C607.286621,345.288513 608.086853,369.376984 609.035156,393.458099 
	C609.318481,400.653351 610.324890,407.820160 611.000000,415.000000 
	C551.312439,415.000000 491.624878,415.000000 431.132019,414.741211 
	C438.227112,394.850159 451.845001,380.846802 471.256195,372.304016 
	C479.005127,368.893768 486.517334,364.925018 494.022247,360.990936 
	C497.080780,359.387634 499.783264,357.118988 502.741669,355.306427 
	C505.099487,353.861816 507.524261,351.728973 510.052460,351.521118 
	C515.817566,351.047272 515.602417,347.926941 514.215393,344.056824 
	C506.902374,323.650787 504.188324,302.391327 502.372070,280.962006 
	C502.087799,277.607910 501.984497,274.238403 501.843109,271.696289 
	C513.799500,278.168732 525.090698,285.744202 537.436035,290.686127 
	C572.650452,304.782654 609.456848,311.497101 647.455505,312.008392 
	C664.548584,312.238312 681.184448,311.119354 697.588684,305.535858 
	C710.433105,301.164001 723.841919,298.450378 737.000000,295.000000 
z"/>
<path fill="#FBFBFB" opacity="1.000000" stroke="none" 
	d="
M560.646057,141.635681 
	C551.152405,148.744431 541.452332,155.507401 530.682129,160.477173 
	C530.359131,160.067352 530.036133,159.657532 529.713135,159.247711 
	C540.107361,148.393112 550.501526,137.538513 561.331299,126.229111 
	C548.309265,132.985947 539.022339,122.336647 527.865723,120.414345 
	C527.796387,119.976471 527.727051,119.538605 527.657776,119.100731 
	C538.338928,114.574646 549.020081,110.048561 560.705139,105.097099 
	C553.020081,95.106445 542.716980,88.403290 533.886169,80.228416 
	C534.017395,79.679535 534.148560,79.130653 534.279785,78.581764 
	C550.188660,80.018570 566.097534,81.455376 582.076050,82.898460 
	C576.332642,71.629807 570.331360,59.855141 563.876953,47.191544 
	C581.568848,51.406624 597.206970,59.136288 613.654846,65.927132 
	C617.349976,51.710335 620.993835,37.690651 624.637695,23.670973 
	C625.005493,23.630800 625.373291,23.590628 625.741089,23.550457 
	C631.207092,35.898232 636.673096,48.246010 642.290344,60.935463 
	C653.168945,47.706860 663.869629,34.694588 674.570312,21.682318 
	C675.005005,21.828279 675.439758,21.974241 675.874512,22.120201 
	C675.874512,23.777212 676.068665,25.461222 675.842590,27.086796 
	C674.513306,36.645817 673.028320,46.183479 671.746338,55.748505 
	C671.523865,57.408466 672.019165,59.164631 672.182983,60.876358 
	C674.034302,60.572147 676.093506,60.690781 677.704834,59.898537 
	C694.438965,51.670914 712.073059,46.527985 730.528076,44.094723 
	C731.351501,43.986153 732.186462,43.935249 733.016724,43.927330 
	C733.265686,43.924957 733.516968,44.159733 733.418945,44.110317 
	C724.924255,55.554218 716.403870,67.032776 707.883484,78.511337 
	C708.277283,78.828850 708.671082,79.146355 709.064880,79.463867 
	C718.080750,78.254539 727.096619,77.045219 736.556274,75.917946 
	C737.000000,82.021156 737.000000,88.042305 736.742554,94.210175 
	C733.836914,96.558510 731.188721,98.760117 727.545654,101.788788 
	C731.646606,103.181686 734.323303,104.090843 737.000000,105.000000 
	C737.000000,118.687561 737.000000,132.375122 736.644104,146.683594 
	C733.677307,146.705399 731.066345,146.106293 729.027100,145.638351 
	C730.848755,148.548477 732.514526,151.250244 734.224060,153.923950 
	C735.109314,155.308273 736.072205,156.642899 737.000000,158.000000 
	C737.000000,164.354401 737.000000,170.708786 737.000000,177.531586 
	C728.436523,168.303879 719.876648,158.604584 711.305603,148.915192 
	C710.096252,147.548096 708.832397,146.229263 706.702881,145.340317 
	C715.335754,157.607010 718.642639,170.932755 716.648560,185.708099 
	C712.368469,178.003799 708.418274,170.248566 703.854004,162.873398 
	C699.925171,156.524933 695.371643,150.553680 690.911011,144.551880 
	C690.047974,143.390656 688.378113,142.216171 687.013306,142.131622 
	C662.249634,140.597656 637.490906,139.194138 612.679810,141.674957 
	C606.563110,142.286575 602.489807,144.388550 599.285706,149.952866 
	C590.955994,164.418381 581.959290,178.499878 572.859253,192.687271 
	C575.341919,174.087891 573.377747,154.618149 584.747070,137.694489 
	C584.140808,137.417526 583.534607,137.140564 582.928345,136.863586 
	C572.361816,152.600769 561.795349,168.337952 551.228882,184.075134 
	C550.736450,183.909393 550.244080,183.743652 549.751648,183.577911 
	C553.712036,170.139191 553.243896,155.533920 562.114807,142.736847 
	C562.592834,141.689026 562.660095,141.184906 562.727417,140.680786 
	C562.033630,140.999069 561.339844,141.317368 560.646057,141.635681 
M705.703979,143.939850 
	C705.667847,144.304611 705.484680,144.896530 705.625671,144.987808 
	C705.938477,145.190323 706.413818,145.141769 706.822937,145.195557 
	C706.740051,144.809082 706.657104,144.422623 705.703979,143.939850 
z"/>
<path fill="#F7F7F7" opacity="1.000000" stroke="none" 
	d="
M737.000000,294.625000 
	C723.841919,298.450378 710.433105,301.164001 697.588684,305.535858 
	C681.184448,311.119354 664.548584,312.238312 647.455505,312.008392 
	C609.456848,311.497101 572.650452,304.782654 537.436035,290.686127 
	C525.090698,285.744202 513.799500,278.168732 501.843109,271.696289 
	C501.984497,274.238403 502.087799,277.607910 502.372070,280.962006 
	C504.188324,302.391327 506.902374,323.650787 514.215393,344.056824 
	C515.602417,347.926941 515.817566,351.047272 510.052460,351.521118 
	C507.524261,351.728973 505.099487,353.861816 502.741669,355.306427 
	C499.783264,357.118988 497.080780,359.387634 494.022247,360.990936 
	C486.517334,364.925018 479.005127,368.893768 471.256195,372.304016 
	C451.845001,380.846802 438.227112,394.850159 430.663330,414.741211 
	C429.933319,415.000000 428.866669,415.000000 427.399994,415.000000 
	C433.750946,399.163025 442.117371,384.587708 458.081177,376.157471 
	C469.102539,370.337189 480.266693,364.785828 491.253082,358.901581 
	C494.868042,356.965424 498.035645,354.210388 501.574493,352.110840 
	C504.661896,350.279175 507.983765,348.842834 511.580963,347.042114 
	C509.386383,338.778961 506.289459,330.132111 504.895874,321.218994 
	C502.306885,304.660217 500.557770,287.962402 498.787079,271.287628 
	C498.179688,265.568024 501.081238,261.354126 506.587952,259.298828 
	C512.340759,257.151733 518.133484,255.108582 523.940796,253.113388 
	C524.765625,252.830002 525.771667,253.074173 527.879089,253.074173 
	C518.686096,257.184418 510.549652,260.822327 502.413147,264.460236 
	C502.512360,265.114624 502.611572,265.769043 502.710754,266.423431 
	C522.242859,283.115356 545.422974,292.253326 570.832886,298.419037 
	C576.118469,299.722717 580.729248,300.778778 586.130249,302.015869 
	C584.279236,294.224731 582.595398,287.137238 580.911499,280.049713 
	C578.591858,283.020782 577.414612,286.192383 576.039062,289.275482 
	C574.879639,291.874207 573.489868,294.370148 572.202087,296.911621 
	C571.638000,285.032410 571.073853,273.153168 570.437378,259.748657 
	C567.962463,264.515625 566.209839,267.891357 564.457214,271.267120 
	C564.110352,271.154236 563.763550,271.041351 563.416687,270.928436 
	C564.265686,262.603760 565.114685,254.279053 566.252075,245.484283 
	C566.699463,244.959122 566.858398,244.904068 567.246582,244.919357 
	C567.475830,244.989700 567.954285,245.023987 568.111938,245.325897 
	C570.634216,249.071564 572.998901,252.515335 575.509827,256.172058 
	C576.943115,255.511719 578.515503,254.787323 579.769348,254.209656 
	C587.197937,266.681610 592.736572,279.520325 592.696411,294.136963 
	C592.690002,296.454468 592.920715,298.820526 593.440491,301.072113 
	C593.717102,302.270630 594.847900,303.272003 595.593140,304.362366 
	C596.000671,304.168793 596.408264,303.975220 596.815796,303.781616 
	C596.373108,297.787659 595.930481,291.793701 595.373413,284.250214 
	C603.187134,293.719666 610.198669,301.812836 619.557129,307.290375 
	C616.908447,303.371216 613.824341,299.927307 610.570801,296.651764 
	C596.838867,282.827026 586.815857,266.820038 581.653564,247.919220 
	C580.143433,231.975952 578.633240,216.032684 576.971619,198.490265 
	C591.274353,200.958862 604.209412,203.191391 617.679688,205.691162 
	C618.214844,205.958405 618.633789,206.044449 618.633789,206.044449 
	C618.633789,206.044449 619.034912,205.895905 619.034912,205.895905 
	C619.458740,205.994049 619.882629,206.092194 620.804382,206.441956 
	C621.879761,206.748306 622.457214,206.803055 623.034668,206.857788 
	C623.461060,206.953217 623.887512,207.048660 624.876343,207.473328 
	C629.216675,208.524002 632.994507,209.245422 636.772278,209.966827 
	C636.797974,209.661072 636.823608,209.355301 636.849243,209.049530 
	C634.780212,207.525894 632.711243,206.002243 630.642212,204.478592 
	C641.334900,204.478592 652.027527,204.478592 662.780518,204.478592 
	C662.344727,206.342270 662.097534,207.399231 661.850342,208.456177 
	C662.950134,208.391830 664.049927,208.327484 665.967712,208.166473 
	C670.192261,207.055130 673.598816,206.040451 677.005371,205.025757 
	C689.762146,203.345230 702.518921,201.664688 716.104736,199.874939 
	C715.033325,208.480804 714.271790,216.546326 712.975891,224.525085 
	C711.276123,234.990479 709.640442,245.507675 707.094849,255.784027 
	C703.764465,269.228455 696.519470,280.798065 687.612366,291.285980 
	C682.901794,296.832458 677.883850,302.117828 673.451416,308.019470 
	C682.848206,305.749725 686.983337,297.143799 693.777710,290.603607 
	C693.777710,295.043762 693.777710,298.884583 693.777710,302.725403 
	C694.201843,302.886871 694.625977,303.048309 695.050049,303.209747 
	C695.692993,302.084076 696.908630,300.949432 696.891052,299.834137 
	C696.696411,287.464966 700.912659,276.507294 707.001404,266.005798 
	C708.807922,262.889984 709.742188,259.268494 711.101440,255.814697 
	C714.014099,256.341644 717.608093,258.240845 718.098022,252.252686 
	C718.616394,251.255264 718.776672,250.774063 719.331360,250.336731 
	C721.932068,248.896667 724.138428,247.412720 726.448792,245.858826 
	C724.971558,244.132050 724.107056,243.121460 722.637329,241.403427 
	C724.978394,241.129257 726.458557,240.955917 727.987305,241.191864 
	C728.106262,241.866806 728.176636,242.132431 728.206787,242.838989 
	C728.166443,255.051285 728.166443,266.822632 728.166443,279.385803 
	C726.524963,274.624847 725.118347,270.545319 723.711792,266.465790 
	C723.471191,266.529175 723.230530,266.592560 722.989929,266.655945 
	C722.159607,276.197205 721.329346,285.738464 720.477295,295.529419 
	C726.156677,294.316254 731.578308,293.158142 737.000000,292.000000 
	C737.000000,292.750000 737.000000,293.500000 737.000000,294.625000 
M657.913879,208.992523 
	C658.654480,208.819565 659.395081,208.646606 660.135681,208.473648 
	C660.043823,208.091492 659.951904,207.709335 659.859985,207.327179 
	C658.915710,207.602753 657.971436,207.878326 656.433533,208.030136 
	C656.093445,208.316711 655.753357,208.603287 655.413269,208.889862 
	C655.948303,208.950256 656.483337,209.010651 657.913879,208.992523 
M670.303711,213.127914 
	C670.540344,213.857071 670.776917,214.586243 670.713013,215.794617 
	C670.353882,216.219925 669.994812,216.645233 668.948975,217.423584 
	C667.744263,219.079712 666.539551,220.735840 664.995911,222.857864 
	C668.238892,223.233322 670.623596,223.509415 673.643799,223.823318 
	C674.391663,223.518723 675.139587,223.214127 676.705994,223.170242 
	C682.163208,223.424561 687.620483,223.678894 693.788879,223.950455 
	C700.910156,221.614883 703.562378,215.509903 706.762634,209.867142 
	C706.553467,209.255478 706.344299,208.643799 706.135132,208.032135 
	C700.112183,208.032135 694.089172,208.032135 687.580750,207.837067 
	C687.045654,208.144272 686.510498,208.451492 685.214478,208.975220 
	C684.183105,209.185715 683.151794,209.396225 682.080017,208.858475 
	C681.941040,208.100571 681.802063,207.342682 681.376221,205.020691 
	C679.612915,209.568146 672.371155,206.225082 673.759399,213.511414 
	C673.291931,213.733383 672.824402,213.955353 671.806885,213.908737 
	C671.541321,213.608292 671.275818,213.307831 671.513367,212.694992 
	C671.743286,211.953842 671.973145,211.212677 672.203003,210.471512 
	C671.913879,210.416199 671.624756,210.360886 671.335632,210.305557 
	C671.219360,211.199493 671.103088,212.093414 670.303711,213.127914 
M657.096130,287.149628 
	C657.096130,287.149628 657.319702,287.217987 657.319702,287.217987 
	C657.319702,287.217987 656.971008,287.002441 656.763306,286.228394 
	C651.248535,283.929749 635.114441,284.633270 633.591858,286.938873 
	C641.274231,286.938873 649.155884,286.938873 657.096130,287.149628 
M616.655518,224.010178 
	C618.430542,223.780411 620.205505,223.550659 622.654724,223.376083 
	C623.941833,223.376083 625.229004,223.376083 626.681519,223.376083 
	C620.598206,210.471283 605.138367,202.746170 585.398682,208.818390 
	C587.587402,212.001129 589.690125,215.058838 592.080078,218.745728 
	C595.929321,220.646042 599.607178,223.329437 603.677368,224.220154 
	C607.528687,225.062958 611.791809,224.024109 616.655518,224.010178 
M713.368713,297.938110 
	C714.240234,297.134003 715.935059,296.235199 715.855164,295.540497 
	C715.108948,289.052490 714.058350,282.599457 713.095825,276.136322 
	C712.552551,276.153290 712.009277,276.170288 711.466003,276.187256 
	C710.149231,283.714783 708.832397,291.242310 707.401306,299.423218 
	C709.735046,298.842346 711.140564,298.492493 713.368713,297.938110 
M633.243652,234.591705 
	C635.173157,234.748642 637.102661,234.905579 639.458374,235.097183 
	C639.209412,230.184250 638.990295,225.861877 638.799072,222.088745 
	C641.135071,225.401276 640.467285,227.525467 635.961548,227.913605 
	C631.061646,228.335678 630.415649,230.479843 633.243652,234.591705 
M654.143433,241.750046 
	C653.760010,243.986008 653.376526,246.221970 652.986877,248.493866 
	C661.528931,249.370438 661.957275,248.997620 661.200134,241.613464 
	C659.163330,241.613464 657.060242,241.613464 654.143433,241.750046 
M634.300842,254.861389 
	C630.382446,254.733612 630.809448,258.737213 631.622498,259.521820 
	C633.369324,261.207672 636.207886,261.762329 639.358887,263.103210 
	C639.546204,259.457123 639.659363,257.253937 639.795898,254.595642 
	C637.915894,254.680359 636.503845,254.743988 634.300842,254.861389 
M639.759949,242.816666 
	C637.283081,242.241409 634.806274,241.666168 631.751404,240.956680 
	C631.955261,244.292374 632.071106,246.188995 632.193237,248.187164 
	C634.732178,248.187164 636.938416,248.187164 639.444519,248.187164 
	C639.582764,246.518936 639.701721,245.083527 639.759949,242.816666 
M657.156738,228.627701 
	C655.895264,228.627701 654.633850,228.627701 653.200989,228.627701 
	C653.200989,231.194061 653.200989,233.410065 653.200989,235.780640 
	C655.900330,235.427414 658.276001,235.116547 660.611633,234.810928 
	C661.356689,229.642883 661.356689,229.642883 657.156738,228.627701 
M652.883179,258.544983 
	C652.764038,266.074310 657.965881,260.564148 660.778381,262.423462 
	C660.618591,258.963562 662.471619,255.450928 657.538269,255.144287 
	C655.594971,255.023499 652.590027,253.314270 652.883179,258.544983 
M656.230530,295.696869 
	C656.230530,297.674164 656.230530,299.651459 656.230530,301.628754 
	C656.687622,301.683105 657.144714,301.737457 657.601807,301.791809 
	C658.658569,299.015778 659.715393,296.239777 660.772217,293.463745 
	C660.375305,293.086029 659.978455,292.708313 659.581604,292.330597 
	C658.456848,293.170349 657.332092,294.010071 656.230530,295.696869 
M635.258667,299.792389 
	C635.675110,300.412109 636.091492,301.031830 637.200745,302.682678 
	C637.406128,298.742310 637.551758,295.948090 637.699890,293.105713 
	C636.140198,293.105713 634.908264,293.105713 633.448792,293.105713 
	C634.014709,295.259430 634.512268,297.152832 635.258667,299.792389 
M665.697327,217.535995 
	C666.145630,216.732925 666.593933,215.929855 667.042297,215.126801 
	C666.666260,214.976746 666.290161,214.826706 665.914124,214.676666 
	C665.697693,215.484711 665.481262,216.292755 665.697327,217.535995 
z"/>
<path fill="#F8F8F8" opacity="1.000000" stroke="none" 
	d="
M611.444153,415.000000 
	C610.324890,407.820160 609.318481,400.653351 609.035156,393.458099 
	C608.086853,369.376984 607.286621,345.288513 606.661377,321.196869 
	C606.400513,311.146637 606.882446,310.955627 616.944763,312.570984 
	C617.427490,312.648438 617.886536,312.873413 619.009705,313.246796 
	C619.009705,346.742310 619.009705,380.417236 619.004883,414.546082 
	C616.629456,415.000000 614.258850,415.000000 611.444153,415.000000 
z"/>
<path fill="#090909" opacity="1.000000" stroke="none" 
	d="
M737.000000,291.531342 
	C731.578308,293.158142 726.156677,294.316254 720.477295,295.529419 
	C721.329346,285.738464 722.159607,276.197205 722.989929,266.655945 
	C723.230530,266.592560 723.471191,266.529175 723.711792,266.465790 
	C725.118347,270.545319 726.524963,274.624847 728.166443,279.385803 
	C728.166443,266.822632 728.166443,255.051285 728.511475,242.659882 
	C730.643738,238.013870 732.430908,233.987930 734.565063,229.987961 
	C735.608093,230.009293 736.304077,230.004639 737.000000,230.000000 
	C737.000000,250.354233 737.000000,270.708466 737.000000,291.531342 
z"/>
<path fill="#090909" opacity="1.000000" stroke="none" 
	d="
M727.938721,240.782562 
	C726.458557,240.955917 724.978394,241.129257 722.637329,241.403427 
	C724.107056,243.121460 724.971558,244.132050 726.448792,245.858826 
	C724.138428,247.412720 721.932068,248.896667 719.344604,249.887878 
	C719.458618,244.640106 719.953918,239.885086 720.434570,235.105225 
	C720.419983,235.080399 720.464783,235.064682 720.835022,235.068939 
	C722.204712,234.061661 723.204224,233.050095 724.511597,231.990845 
	C724.880981,230.304810 724.942505,228.666458 725.167603,226.700439 
	C725.973267,223.927155 726.615479,221.481506 727.560547,219.063263 
	C728.407288,218.905136 728.951172,218.719604 729.495056,218.534058 
	C728.993896,218.022018 728.492737,217.509995 727.922363,216.597153 
	C728.605042,212.524704 729.154968,208.795197 730.184753,205.203232 
	C730.798828,203.061295 732.166138,201.135315 733.194885,199.112244 
	C733.456909,199.083511 733.718872,199.054764 734.461182,199.343475 
	C735.333374,201.032333 735.725159,202.403748 736.260132,204.276215 
	C735.058960,203.357239 734.366150,202.827164 733.673340,202.297073 
	C735.400940,205.451736 731.303589,210.602585 737.000000,212.000000 
	C737.000000,212.750000 737.000000,213.500000 736.631226,214.606537 
	C735.343689,216.052887 734.424866,217.142715 733.506042,218.232559 
	C734.670715,218.821701 735.835327,219.410858 737.000000,220.000000 
	C737.000000,220.000000 737.000000,220.500000 736.635742,220.806915 
	C735.175781,224.038345 734.080078,226.962875 732.886536,230.262238 
	C731.173340,231.677628 729.558044,232.718216 729.190002,232.955292 
	C728.656982,236.289459 728.297852,238.536026 727.938721,240.782562 
M730.852051,223.746979 
	C730.837769,224.109299 730.823486,224.471603 730.170471,224.971893 
	C729.776123,225.669556 729.381714,226.367218 728.987366,227.064865 
	C729.317505,227.227020 729.647705,227.389160 729.977905,227.551315 
	C730.374084,226.745987 730.770264,225.940659 731.620911,224.782578 
	C731.486511,224.125076 731.352112,223.467575 730.936768,222.314880 
	C730.406006,222.118988 729.875305,221.923096 729.344543,221.727219 
	C729.812439,222.222397 730.280396,222.717590 730.852051,223.746979 
z"/>
<path fill="#151515" opacity="1.000000" stroke="none" 
	d="
M737.000000,104.545891 
	C734.323303,104.090843 731.646606,103.181686 727.545654,101.788788 
	C731.188721,98.760117 733.836914,96.558510 736.742554,94.678452 
	C737.000000,98.030594 737.000000,101.061188 737.000000,104.545891 
z"/>
<path fill="#171717" opacity="1.000000" stroke="none" 
	d="
M737.000000,157.541931 
	C736.072205,156.642899 735.109314,155.308273 734.224060,153.923950 
	C732.514526,151.250244 730.848755,148.548477 729.027100,145.638351 
	C731.066345,146.106293 733.677307,146.705399 736.644104,147.152252 
	C737.000000,150.361282 737.000000,153.722580 737.000000,157.541931 
z"/>
<path fill="#1A1A1A" opacity="1.000000" stroke="none" 
	d="
M737.000000,211.531723 
	C731.303589,210.602585 735.400940,205.451736 733.673340,202.297073 
	C734.366150,202.827164 735.058960,203.357239 736.260132,204.276215 
	C735.725159,202.403748 735.333374,201.032333 734.854126,199.300247 
	C735.087463,197.902939 735.408203,196.866272 735.717407,195.866730 
	C734.806335,195.168396 733.970703,194.527863 733.290894,193.481522 
	C733.614197,193.046173 733.781677,193.016602 733.949158,192.987030 
	C734.711914,192.999405 735.474731,193.011765 736.618774,193.012070 
	C737.000000,199.021149 737.000000,205.042297 737.000000,211.531723 
z"/>
<path fill="#1A1A1A" opacity="1.000000" stroke="none" 
	d="
M732.984436,229.887421 
	C734.080078,226.962875 735.175781,224.038345 736.635742,221.056915 
	C737.000000,223.700012 737.000000,226.400024 737.000000,229.550018 
	C736.304077,230.004639 735.608093,230.009293 734.260132,229.913483 
	C733.400146,229.837814 733.192261,229.862625 732.984436,229.887421 
z"/>
<path fill="#1A1A1A" opacity="1.000000" stroke="none" 
	d="
M737.000000,219.583344 
	C735.835327,219.410858 734.670715,218.821701 733.506042,218.232559 
	C734.424866,217.142715 735.343689,216.052887 736.631226,214.981537 
	C737.000000,216.388885 737.000000,217.777786 737.000000,219.583344 
z"/>
<path fill="#F9F9F9" opacity="1.000000" stroke="none" 
	d="
M701.864990,183.764862 
	C701.873169,190.631485 700.320557,192.255554 693.905640,192.941345 
	C665.644470,195.962616 637.348267,194.421677 609.058350,193.630280 
	C607.401855,193.583923 605.748413,193.271713 604.102661,193.022858 
	C593.594116,191.433807 592.388977,189.050613 590.912109,178.624008 
	C589.351379,167.606186 595.967957,160.548523 600.980652,152.542252 
	C601.492859,151.724060 603.245300,151.357880 604.433044,151.334534 
	C632.568054,150.781876 660.703918,150.262482 688.841919,149.924545 
	C690.461121,149.905090 692.385986,151.164917 693.682922,152.357544 
	C702.963806,160.891922 702.544678,172.077408 701.864990,183.764862 
M619.695190,175.073776 
	C623.808289,175.393692 627.921387,175.713623 631.367493,175.981659 
	C632.494385,178.775497 633.373596,180.955170 634.252808,183.134842 
	C634.775208,182.947647 635.297668,182.760452 635.820068,182.573273 
	C635.820068,180.482300 635.820068,178.391342 635.820068,176.273529 
	C637.715454,176.273529 639.292847,176.273529 640.480896,176.273529 
	C641.122437,178.781464 641.664307,180.899612 642.206177,183.017761 
	C642.708618,182.927994 643.211121,182.838211 643.713562,182.748444 
	C644.016418,180.704071 644.319336,178.659698 644.641113,176.487457 
	C646.101379,176.487457 647.451599,176.487457 648.511414,176.487457 
	C649.192810,178.769684 649.753418,180.647369 650.629211,183.580811 
	C653.458191,175.794678 653.458191,175.794678 657.058655,176.833954 
	C657.170898,178.790253 657.283752,180.757751 657.418457,183.105255 
	C662.837891,182.747421 659.223267,177.874664 661.595337,175.863190 
	C666.801147,175.459656 672.365540,175.028305 677.929993,174.596954 
	C677.913452,174.160294 677.896912,173.723633 677.880371,173.286972 
	C674.658997,173.027084 671.426819,172.859970 668.218384,172.488327 
	C661.196045,171.674835 661.200928,171.632446 658.177795,165.155380 
	C657.722839,167.289856 657.267822,169.424332 656.761169,171.801132 
	C655.306824,171.801132 653.752686,171.801132 652.452576,171.801132 
	C651.966675,169.286377 651.545471,167.106400 650.923340,163.886520 
	C647.766357,167.169373 651.288025,173.434952 644.509338,171.606842 
	C644.367188,169.440552 644.223816,167.256165 644.070374,164.917984 
	C639.028381,165.039001 642.650085,174.542572 635.834717,171.623779 
	C634.350342,169.638702 637.653931,164.538467 631.627441,165.368973 
	C631.483887,167.768356 631.346558,170.062790 631.142334,173.475616 
	C625.806213,173.475616 620.558960,173.475616 615.311768,173.475616 
	C615.360535,173.906555 615.409363,174.337494 615.458130,174.768433 
	C616.581482,174.847351 617.704834,174.926270 619.695190,175.073776 
z"/>
<path fill="#171717" opacity="1.000000" stroke="none" 
	d="
M567.017273,244.849014 
	C566.858398,244.904068 566.699463,244.959122 566.290894,245.050827 
	C565.703552,243.620667 565.365845,242.153870 565.397217,240.228394 
	C565.415955,236.986313 565.065491,234.202896 564.707825,231.362061 
	C559.811401,230.495697 559.668640,230.151245 562.106201,224.204559 
	C562.888550,224.772675 563.405212,225.232910 563.921875,225.693130 
	C564.087769,225.291504 564.253723,224.889877 564.419617,224.488235 
	C563.568298,224.378983 562.716919,224.269730 561.514404,224.013351 
	C556.500000,222.564011 556.163269,220.169067 560.410828,215.055023 
	C554.595459,213.944962 554.787048,211.394196 558.663330,208.084213 
	C558.966919,207.824951 558.649597,206.838470 558.956970,205.962402 
	C559.486938,204.702240 559.680847,203.669678 559.848877,202.246094 
	C559.864746,201.335159 559.906494,200.815262 560.388916,200.342102 
	C563.080261,209.206497 565.330994,218.024155 567.280945,226.928558 
	C566.924622,227.988205 566.869141,228.961075 567.030396,230.228882 
	C569.072876,234.132126 570.898621,237.740463 572.529724,240.964096 
	C572.690674,240.228653 573.046875,238.600891 573.551270,236.296005 
	C575.148682,240.569031 576.532898,244.271652 577.917114,247.974289 
	C578.198792,247.920761 578.480530,247.867249 578.762207,247.813721 
	C578.881531,247.204285 579.000854,246.594833 579.120117,245.985397 
	C579.752319,246.576508 580.384460,247.167603 581.335083,247.838959 
	C586.815857,266.820038 596.838867,282.827026 610.570801,296.651764 
	C613.824341,299.927307 616.908447,303.371216 619.557129,307.290375 
	C610.198669,301.812836 603.187134,293.719666 595.373413,284.250214 
	C595.930481,291.793701 596.373108,297.787659 596.815796,303.781616 
	C596.408264,303.975220 596.000671,304.168793 595.593140,304.362366 
	C594.847900,303.272003 593.717102,302.270630 593.440491,301.072113 
	C592.920715,298.820526 592.690002,296.454468 592.696411,294.136963 
	C592.736572,279.520325 587.197937,266.681610 579.769348,254.209656 
	C578.515503,254.787323 576.943115,255.511719 575.509827,256.172058 
	C572.998901,252.515335 570.634216,249.071564 568.328979,245.164917 
	C568.377319,244.305435 568.366211,243.908844 568.355103,243.512253 
	C567.909180,243.957840 567.463196,244.403427 567.017273,244.849014 
M562.182800,221.762299 
	C562.125183,221.589951 562.067566,221.417587 562.009888,221.245239 
	C561.954102,221.418655 561.898315,221.592056 562.182800,221.762299 
M595.550720,284.886719 
	C595.630920,284.806091 595.769165,284.729340 595.774841,284.643707 
	C595.780579,284.558105 595.653809,284.463654 595.585083,284.373047 
	C595.504944,284.453705 595.424805,284.534332 595.550720,284.886719 
z"/>
<path fill="#ECECEC" opacity="1.000000" stroke="none" 
	d="
M567.581787,226.841797 
	C565.330994,218.024155 563.080261,209.206497 560.445190,200.044098 
	C560.052612,198.889816 560.044434,198.080276 560.375244,197.254913 
	C563.510376,201.920822 566.306458,206.602554 569.176025,211.407303 
	C568.536255,205.224686 569.234192,198.701569 564.150635,193.580368 
	C564.505737,193.216888 564.755005,193.074829 565.034546,192.985855 
	C568.153809,194.075684 571.273132,195.165512 574.296326,196.221771 
	C575.820435,212.528412 577.346191,228.852859 578.996033,245.581345 
	C579.000854,246.594833 578.881531,247.204285 578.762207,247.813721 
	C578.480530,247.867249 578.198792,247.920761 577.917114,247.974289 
	C576.532898,244.271652 575.148682,240.569031 573.551270,236.296005 
	C573.046875,238.600891 572.690674,240.228653 572.529724,240.964096 
	C570.898621,237.740463 569.072876,234.132126 567.340942,230.149368 
	C567.483826,228.797226 567.532776,227.819504 567.581787,226.841797 
z"/>
<path fill="#ECECEC" opacity="1.000000" stroke="none" 
	d="
M720.449219,235.130066 
	C719.953918,239.885086 719.458618,244.640106 718.950195,249.843994 
	C718.776672,250.774063 718.616394,251.255264 718.224976,251.869324 
	C717.993896,248.721527 717.993896,245.440872 717.993896,242.160202 
	C717.722839,242.065781 717.451782,241.971344 717.180725,241.876907 
	C716.269714,243.672348 715.358704,245.467789 714.447693,247.263229 
	C714.031067,247.208786 713.614380,247.154327 713.197754,247.099869 
	C715.118408,230.185150 717.039062,213.270432 718.980286,196.174484 
	C721.361023,195.715622 723.427185,195.317383 726.230103,194.777145 
	C724.831604,202.688171 723.521851,210.096924 722.629028,217.763443 
	C723.046021,218.021210 723.009644,217.934616 722.608032,217.850082 
	C721.972351,218.817780 721.738159,219.870010 721.313171,221.262115 
	C720.897949,226.111343 720.673584,230.620697 720.449219,235.130066 
z"/>
<path fill="#D0D0D0" opacity="1.000000" stroke="none" 
	d="
M560.036255,197.270752 
	C560.044434,198.080276 560.052612,198.889816 560.004517,199.997345 
	C559.906494,200.815262 559.864746,201.335159 559.546387,202.178711 
	C558.859680,202.140335 558.449524,201.778305 558.039429,201.416290 
	C558.233276,203.007507 558.427063,204.598755 558.620911,206.189987 
	C558.649597,206.838470 558.966919,207.824951 558.663330,208.084213 
	C554.787048,211.394196 554.595459,213.944962 560.410828,215.055023 
	C556.163269,220.169067 556.500000,222.564011 561.567688,223.974442 
	C561.972107,224.082657 561.840393,224.096664 561.840393,224.096664 
	C559.668640,230.151245 559.811401,230.495697 564.707825,231.362061 
	C565.065491,234.202896 565.415955,236.986313 565.400269,239.842239 
	C561.694031,232.672592 557.074341,225.719788 555.354004,218.111374 
	C553.422424,209.569046 552.461243,200.227051 558.627563,192.279724 
	C558.990601,192.660355 559.015259,192.900955 558.913452,193.503296 
	C558.295044,195.413620 557.803101,196.962204 557.311157,198.510788 
	C557.606018,198.631866 557.900879,198.752930 558.195740,198.874008 
	C558.809265,198.339584 559.422729,197.805161 560.036255,197.270752 
z"/>
<path fill="#0F0F0F" opacity="1.000000" stroke="none" 
	d="
M571.927246,297.046814 
	C573.489868,294.370148 574.879639,291.874207 576.039062,289.275482 
	C577.414612,286.192383 578.591858,283.020782 580.911499,280.049713 
	C582.595398,287.137238 584.279236,294.224731 586.130249,302.015869 
	C580.729248,300.778778 576.118469,299.722717 571.230347,298.416687 
	C571.186096,297.838470 571.419189,297.510254 571.927246,297.046814 
z"/>
<path fill="#E4E5E4" opacity="1.000000" stroke="none" 
	d="
M727.257690,219.035858 
	C726.615479,221.481506 725.973267,223.927155 724.826599,226.556778 
	C723.853455,224.819565 723.384827,222.898376 723.014343,220.583450 
	C723.078186,219.438019 723.043945,218.686325 723.009644,217.934616 
	C723.009644,217.934616 723.046021,218.021210 723.011841,218.052612 
	C724.880005,212.652115 726.599792,207.144226 728.807617,201.839462 
	C729.391357,200.437012 731.479370,199.660645 733.035767,198.854523 
	C732.166138,201.135315 730.798828,203.061295 730.184753,205.203232 
	C729.154968,208.795197 728.605042,212.524704 727.682190,216.766586 
	C727.426636,217.903183 727.342163,218.469528 727.257690,219.035858 
z"/>
<path fill="#E4E5E4" opacity="1.000000" stroke="none" 
	d="
M559.039917,193.141541 
	C559.015259,192.900955 558.990601,192.660355 558.901123,192.062805 
	C559.319702,188.993851 555.163269,184.651306 560.119751,183.822815 
	C564.504272,183.089920 562.843994,188.428726 564.197327,190.892380 
	C564.431824,191.319244 564.519775,191.826599 564.854980,192.641327 
	C564.755005,193.074829 564.505737,193.216888 563.800659,193.418854 
	C561.889771,193.330933 560.464844,193.236237 559.039917,193.141541 
z"/>
<path fill="#232323" opacity="1.000000" stroke="none" 
	d="
M676.928162,204.648010 
	C673.598816,206.040451 670.192261,207.055130 666.388306,208.012177 
	C665.858826,205.715363 663.735962,202.066589 669.228699,204.422852 
	C671.356140,205.335464 674.286438,204.376556 676.928162,204.648010 
z"/>
<path fill="#302C35" opacity="1.000000" stroke="none" 
	d="
M630.260742,204.311539 
	C632.711243,206.002243 634.780212,207.525894 636.849243,209.049530 
	C636.823608,209.355301 636.797974,209.661072 636.772278,209.966827 
	C632.994507,209.245422 629.216675,208.524002 625.203735,207.507294 
	C626.605469,206.189514 628.242371,205.167007 630.260742,204.311539 
z"/>
<path fill="#D0D0D0" opacity="1.000000" stroke="none" 
	d="
M733.994995,192.602448 
	C733.781677,193.016602 733.614197,193.046173 733.208374,193.166687 
	C732.253845,192.711914 731.002747,192.236404 730.920105,191.607437 
	C730.654846,189.587784 730.821411,187.511398 730.821411,185.052505 
	C736.971863,185.198410 733.303955,189.785065 733.994995,192.602448 
z"/>
<path fill="#302C35" opacity="1.000000" stroke="none" 
	d="
M619.155029,205.602783 
	C619.034912,205.895905 618.633789,206.044449 618.633789,206.044449 
	C618.633789,206.044449 618.214844,205.958405 618.072144,205.799133 
	C618.304626,204.918549 618.679810,204.197235 619.055054,203.475937 
	C619.128418,204.087189 619.201782,204.698410 619.155029,205.602783 
z"/>
<path fill="#302C35" opacity="1.000000" stroke="none" 
	d="
M622.997620,206.559204 
	C622.457214,206.803055 621.879761,206.748306 621.131287,206.450439 
	C621.627014,206.225082 622.293823,206.242859 622.997620,206.559204 
z"/>
<path fill="#000000" opacity="1.000000" stroke="none" 
	d="
M706.139038,143.988007 
	C706.657104,144.422623 706.740051,144.809082 706.822937,145.195557 
	C706.413818,145.141769 705.938477,145.190323 705.625671,144.987808 
	C705.484680,144.896530 705.667847,144.304611 706.139038,143.988007 
z"/>
<path fill="#000000" opacity="1.000000" stroke="none" 
	d="
M560.956482,141.890045 
	C561.339844,141.317368 562.033630,140.999069 562.727417,140.680786 
	C562.660095,141.184906 562.592834,141.689026 562.225098,142.398804 
	C561.705383,142.451111 561.486145,142.297760 560.956482,141.890045 
z"/>
<path fill="#9D91A9" opacity="1.000000" stroke="none" 
	d="
M693.077637,223.933212 
	C687.620483,223.678894 682.163208,223.424561 676.251404,222.740738 
	C675.226501,221.525223 674.656189,220.739197 674.050537,219.636414 
	C674.051819,218.897858 674.088318,218.476074 674.419434,218.026245 
	C675.157227,217.692612 675.600403,217.387054 676.304565,216.937317 
	C677.397888,216.335373 678.230286,215.877625 679.304443,215.317505 
	C679.689148,215.114227 679.832092,215.013336 680.366699,214.933182 
	C683.025879,215.626862 685.293457,216.299805 687.498657,216.954239 
	C692.383240,211.982559 695.664673,211.494751 699.938477,215.339783 
	C697.578857,218.425308 695.328247,221.179245 693.077637,223.933212 
z"/>
<path fill="#151515" opacity="1.000000" stroke="none" 
	d="
M591.792969,218.116547 
	C589.690125,215.058838 587.587402,212.001129 585.398682,208.818390 
	C605.138367,202.746170 620.598206,210.471283 626.681519,223.376083 
	C625.229004,223.376083 623.941833,223.376083 622.325073,222.966370 
	C620.294189,220.758057 618.592957,218.959427 616.901489,216.814072 
	C616.362976,215.762390 615.814697,215.057449 615.266418,214.352509 
	C614.840515,214.911041 614.414673,215.469589 613.743286,215.945465 
	C613.334656,215.569458 613.171631,215.276123 613.015991,214.600143 
	C610.107300,210.168518 603.373657,208.937454 598.602417,211.701233 
	C597.870483,211.756027 597.449524,211.747467 596.907166,211.375153 
	C595.379333,210.519836 593.972961,210.028244 592.203369,209.409683 
	C592.047668,212.712570 591.920288,215.414566 591.792969,218.116547 
z"/>
<path fill="#1A1A1A" opacity="1.000000" stroke="none" 
	d="
M693.433228,223.941833 
	C695.328247,221.179245 697.578857,218.425308 700.266235,215.295746 
	C701.365784,211.931656 699.676453,209.970627 696.544128,210.199966 
	C693.508484,210.422211 690.363037,210.330307 687.483215,211.144897 
	C684.842285,211.891907 680.903809,210.613571 679.975037,214.912445 
	C679.832092,215.013336 679.689148,215.114227 679.272461,214.990860 
	C678.457825,214.494461 677.916931,214.222336 677.375977,213.950211 
	C676.931885,214.993988 676.487793,216.037766 676.043701,217.081512 
	C675.600403,217.387054 675.157227,217.692612 674.083374,218.012024 
	C672.180420,217.707413 670.908020,217.388977 669.635681,217.070557 
	C669.994812,216.645233 670.353882,216.219925 671.094116,215.508820 
	C671.769104,214.874435 672.062988,214.525864 672.356873,214.177307 
	C672.824402,213.955353 673.291931,213.733383 674.236572,213.239410 
	C676.150452,212.217514 677.587280,211.467606 679.294678,210.702301 
	C680.031189,210.411697 680.496948,210.136490 681.169434,209.914871 
	C681.685547,209.974121 681.933655,209.853546 682.120422,209.606735 
	C683.151794,209.396225 684.183105,209.185715 685.901611,208.919571 
	C687.081177,208.586655 687.573730,208.309402 688.066223,208.032135 
	C694.089172,208.032135 700.112183,208.032135 706.135132,208.032135 
	C706.344299,208.643799 706.553467,209.255478 706.762634,209.867142 
	C703.562378,215.509903 700.910156,221.614883 693.433228,223.941833 
z"/>
<path fill="#151515" opacity="1.000000" stroke="none" 
	d="
M712.957397,298.040405 
	C711.140564,298.492493 709.735046,298.842346 707.401306,299.423218 
	C708.832397,291.242310 710.149231,283.714783 711.466003,276.187256 
	C712.009277,276.170288 712.552551,276.153290 713.095825,276.136322 
	C714.058350,282.599457 715.108948,289.052490 715.855164,295.540497 
	C715.935059,296.235199 714.240234,297.134003 712.957397,298.040405 
z"/>
<path fill="#171717" opacity="1.000000" stroke="none" 
	d="
M632.857422,234.481964 
	C630.415649,230.479843 631.061646,228.335678 635.961548,227.913605 
	C640.467285,227.525467 641.135071,225.401276 638.799072,222.088745 
	C638.990295,225.861877 639.209412,230.184250 639.458374,235.097183 
	C637.102661,234.905579 635.173157,234.748642 632.857422,234.481964 
z"/>
<path fill="#1A1A1A" opacity="1.000000" stroke="none" 
	d="
M654.550293,241.681763 
	C657.060242,241.613464 659.163330,241.613464 661.200134,241.613464 
	C661.957275,248.997620 661.528931,249.370438 652.986877,248.493866 
	C653.376526,246.221970 653.760010,243.986008 654.550293,241.681763 
z"/>
<path fill="#302C35" opacity="1.000000" stroke="none" 
	d="
M591.936523,218.431137 
	C591.920288,215.414566 592.047668,212.712570 592.203369,209.409683 
	C593.972961,210.028244 595.379333,210.519836 596.561035,211.447006 
	C595.555176,212.958649 593.880676,214.623611 594.138489,215.014633 
	C595.744080,217.449936 597.401306,220.846527 599.761658,221.568054 
	C603.847046,222.816864 608.457275,222.348724 613.138977,222.760345 
	C614.244995,223.217560 615.059387,223.515198 615.873779,223.812836 
	C611.791809,224.024109 607.528687,225.062958 603.677368,224.220154 
	C599.607178,223.329437 595.929321,220.646042 591.936523,218.431137 
z"/>
<path fill="#1C1C1C" opacity="1.000000" stroke="none" 
	d="
M634.696289,254.834503 
	C636.503845,254.743988 637.915894,254.680359 639.795898,254.595642 
	C639.659363,257.253937 639.546204,259.457123 639.358887,263.103210 
	C636.207886,261.762329 633.369324,261.207672 631.622498,259.521820 
	C630.809448,258.737213 630.382446,254.733612 634.696289,254.834503 
z"/>
<path fill="#1C1C1C" opacity="1.000000" stroke="none" 
	d="
M639.790283,243.232391 
	C639.701721,245.083527 639.582764,246.518936 639.444519,248.187164 
	C636.938416,248.187164 634.732178,248.187164 632.193237,248.187164 
	C632.071106,246.188995 631.955261,244.292374 631.751404,240.956680 
	C634.806274,241.666168 637.283081,242.241409 639.790283,243.232391 
z"/>
<path fill="#0F0F0F" opacity="1.000000" stroke="none" 
	d="
M657.582092,228.660126 
	C661.356689,229.642883 661.356689,229.642883 660.611633,234.810928 
	C658.276001,235.116547 655.900330,235.427414 653.200989,235.780640 
	C653.200989,233.410065 653.200989,231.194061 653.200989,228.627701 
	C654.633850,228.627701 655.895264,228.627701 657.582092,228.660126 
z"/>
<path fill="#090909" opacity="1.000000" stroke="none" 
	d="
M652.889282,258.073730 
	C652.590027,253.314270 655.594971,255.023499 657.538269,255.144287 
	C662.471619,255.450928 660.618591,258.963562 660.778381,262.423462 
	C657.965881,260.564148 652.764038,266.074310 652.889282,258.073730 
z"/>
<path fill="#736D7B" opacity="1.000000" stroke="none" 
	d="
M657.037537,286.938873 
	C649.155884,286.938873 641.274231,286.938873 633.591858,286.938873 
	C635.114441,284.633270 651.248535,283.929749 656.886841,286.602905 
	C657.010437,286.977417 657.037537,286.938873 657.037537,286.938873 
z"/>
<path fill="#736D7B" opacity="1.000000" stroke="none" 
	d="
M616.264648,223.911499 
	C615.059387,223.515198 614.244995,223.217560 613.254395,222.420990 
	C613.414612,220.250824 613.750977,218.579590 614.434692,216.969604 
	C615.485291,217.074173 616.188477,217.117493 616.891724,217.160828 
	C618.592957,218.959427 620.294189,220.758057 621.987976,222.938782 
	C620.205505,223.550659 618.430542,223.780411 616.264648,223.911499 
z"/>
<path fill="#232323" opacity="1.000000" stroke="none" 
	d="
M669.292358,217.247070 
	C670.908020,217.388977 672.180420,217.707413 673.788818,218.040070 
	C674.088318,218.476074 674.051819,218.897858 673.776611,219.849945 
	C673.361450,221.515320 673.184875,222.650421 673.008301,223.785522 
	C670.623596,223.509415 668.238892,223.233322 664.995911,222.857864 
	C666.539551,220.735840 667.744263,219.079712 669.292358,217.247070 
z"/>
<path fill="#D0D0D0" opacity="1.000000" stroke="none" 
	d="
M732.886536,230.262238 
	C733.192261,229.862625 733.400146,229.837814 733.913025,229.887512 
	C732.430908,233.987930 730.643738,238.013870 728.551819,242.218933 
	C728.176636,242.132431 728.106262,241.866806 727.987305,241.191879 
	C728.297852,238.536026 728.656982,236.289459 729.190002,232.955292 
	C729.558044,232.718216 731.173340,231.677628 732.886536,230.262238 
z"/>
<path fill="#302C35" opacity="1.000000" stroke="none" 
	d="
M656.218933,295.273346 
	C657.332092,294.010071 658.456848,293.170349 659.581604,292.330597 
	C659.978455,292.708313 660.375305,293.086029 660.772217,293.463745 
	C659.715393,296.239777 658.658569,299.015778 657.601807,301.791809 
	C657.144714,301.737457 656.687622,301.683105 656.230530,301.628754 
	C656.230530,299.651459 656.230530,297.674164 656.218933,295.273346 
z"/>
<path fill="#302C35" opacity="1.000000" stroke="none" 
	d="
M635.134277,299.419312 
	C634.512268,297.152832 634.014709,295.259430 633.448792,293.105713 
	C634.908264,293.105713 636.140198,293.105713 637.699890,293.105713 
	C637.551758,295.948090 637.406128,298.742310 637.200745,302.682678 
	C636.091492,301.031830 635.675110,300.412109 635.134277,299.419312 
z"/>
<path fill="#E4E5E4" opacity="1.000000" stroke="none" 
	d="
M682.100220,209.232605 
	C681.933655,209.853546 681.685547,209.974121 681.003784,209.715424 
	C680.095642,209.880814 679.559875,210.299255 679.024048,210.717682 
	C677.587280,211.467606 676.150452,212.217514 674.369385,213.013931 
	C672.371155,206.225082 679.612915,209.568146 681.376221,205.020691 
	C681.802063,207.342682 681.941040,208.100571 682.100220,209.232605 
z"/>
<path fill="#1A1A1A" opacity="1.000000" stroke="none" 
	d="
M673.326050,223.804413 
	C673.184875,222.650421 673.361450,221.515320 673.811951,220.166702 
	C674.656189,220.739197 675.226501,221.525223 675.842163,222.610382 
	C675.139587,223.214127 674.391663,223.518723 673.326050,223.804413 
z"/>
<path fill="#E4E5E4" opacity="1.000000" stroke="none" 
	d="
M665.481079,217.318390 
	C665.481262,216.292755 665.697693,215.484711 665.914124,214.676666 
	C666.290161,214.826706 666.666260,214.976746 667.042297,215.126801 
	C666.593933,215.929855 666.145630,216.732925 665.481079,217.318390 
z"/>
<path fill="#E4E5E4" opacity="1.000000" stroke="none" 
	d="
M672.081909,214.043015 
	C672.062988,214.525864 671.769104,214.874435 671.244385,215.269226 
	C670.776917,214.586243 670.540344,213.857071 670.651306,213.063416 
	C670.998901,212.998901 671.010315,213.007370 671.010315,213.007385 
	C671.275818,213.307831 671.541321,213.608292 672.081909,214.043015 
z"/>
<path fill="#E4E5E4" opacity="1.000000" stroke="none" 
	d="
M670.992920,212.993134 
	C671.103088,212.093414 671.219360,211.199493 671.335632,210.305557 
	C671.624756,210.360886 671.913879,210.416199 672.203003,210.471512 
	C671.973145,211.212677 671.743286,211.953842 671.261841,212.851181 
	C671.010315,213.007370 670.998901,212.998901 670.992920,212.993134 
z"/>
<path fill="#000000" opacity="1.000000" stroke="none" 
	d="
M567.246582,244.919357 
	C567.463196,244.403427 567.909180,243.957840 568.355103,243.512253 
	C568.366211,243.908844 568.377319,244.305435 568.171326,244.863007 
	C567.954285,245.023987 567.475830,244.989700 567.246582,244.919357 
z"/>
<path fill="#E4E5E4" opacity="1.000000" stroke="none" 
	d="
M687.823486,207.934601 
	C687.573730,208.309402 687.081177,208.586655 686.282043,208.811310 
	C686.510498,208.451492 687.045654,208.144272 687.823486,207.934601 
z"/>
<path fill="#232323" opacity="1.000000" stroke="none" 
	d="
M657.018372,209.071045 
	C656.483337,209.010651 655.948303,208.950256 655.413269,208.889862 
	C655.753357,208.603287 656.093445,208.316711 656.748291,208.321503 
	C657.062988,208.612869 657.018372,209.071045 657.018372,209.071045 
z"/>
<path fill="#000000" opacity="1.000000" stroke="none" 
	d="
M657.466125,209.031784 
	C657.018372,209.071045 657.062988,208.612869 657.045044,208.383392 
	C657.971436,207.878326 658.915710,207.602753 659.859985,207.327179 
	C659.951904,207.709335 660.043823,208.091492 660.135681,208.473648 
	C659.395081,208.646606 658.654480,208.819565 657.466125,209.031784 
z"/>
<path fill="#736D7B" opacity="1.000000" stroke="none" 
	d="
M656.990723,286.989929 
	C656.971008,287.002441 657.319702,287.217987 657.319702,287.217987 
	C657.319702,287.217987 657.096130,287.149628 657.066833,287.044250 
	C657.037537,286.938873 657.010437,286.977417 656.990723,286.989929 
z"/>
<path fill="#302C35" opacity="1.000000" stroke="none" 
	d="
M722.916199,220.977173 
	C723.384827,222.898376 723.853455,224.819565 724.663086,226.884430 
	C724.942505,228.666458 724.880981,230.304810 724.434448,231.600525 
	C721.186096,229.736115 720.745483,230.204041 720.464783,235.064682 
	C720.464783,235.064682 720.419983,235.080399 720.434570,235.105225 
	C720.673584,230.620697 720.897949,226.111343 721.666748,221.263702 
	C722.446167,220.942688 722.681152,220.959930 722.916199,220.977173 
z"/>
<path fill="#ECECEC" opacity="1.000000" stroke="none" 
	d="
M720.835022,235.068939 
	C720.745483,230.204041 721.186096,229.736115 724.126587,231.648193 
	C723.204224,233.050095 722.204712,234.061661 720.835022,235.068939 
z"/>
<path fill="#232323" opacity="1.000000" stroke="none" 
	d="
M731.166382,225.135315 
	C730.770264,225.940659 730.374084,226.745987 729.977905,227.551315 
	C729.647705,227.389160 729.317505,227.227020 728.987366,227.064865 
	C729.381714,226.367218 729.776123,225.669556 730.578979,224.978455 
	C730.987427,224.985016 731.166382,225.135315 731.166382,225.135315 
z"/>
<path fill="#232323" opacity="1.000000" stroke="none" 
	d="
M727.560547,219.063263 
	C727.342163,218.469528 727.426636,217.903183 727.751343,217.167404 
	C728.492737,217.509995 728.993896,218.022018 729.495056,218.534058 
	C728.951172,218.719604 728.407288,218.905136 727.560547,219.063263 
z"/>
<path fill="#232323" opacity="1.000000" stroke="none" 
	d="
M730.748352,223.212769 
	C730.280396,222.717590 729.812439,222.222397 729.344543,221.727203 
	C729.875305,221.923096 730.406006,222.118988 730.960571,222.664474 
	C730.984375,223.014069 730.748352,223.212753 730.748352,223.212769 
z"/>
<path fill="#232323" opacity="1.000000" stroke="none" 
	d="
M730.898315,224.909470 
	C730.823486,224.471603 730.837769,224.109299 730.800171,223.479858 
	C730.748352,223.212753 730.984375,223.014069 731.101074,222.912064 
	C731.352112,223.467575 731.486511,224.125076 731.393677,224.958954 
	C731.166382,225.135315 730.987427,224.985016 730.898315,224.909470 
z"/>
<path fill="#1C1C1C" opacity="1.000000" stroke="none" 
	d="
M619.261719,175.039490 
	C617.704834,174.926270 616.581482,174.847351 615.458130,174.768433 
	C615.409363,174.337494 615.360535,173.906555 615.311768,173.475616 
	C620.558960,173.475616 625.806213,173.475616 631.142334,173.475616 
	C631.346558,170.062790 631.483887,167.768356 631.627441,165.368973 
	C637.653931,164.538467 634.350342,169.638702 635.834717,171.623779 
	C642.650085,174.542572 639.028381,165.039001 644.070374,164.917984 
	C644.223816,167.256165 644.367188,169.440552 644.509338,171.606842 
	C651.288025,173.434952 647.766357,167.169373 650.923340,163.886520 
	C651.545471,167.106400 651.966675,169.286377 652.452576,171.801132 
	C653.752686,171.801132 655.306824,171.801132 656.761169,171.801132 
	C657.267822,169.424332 657.722839,167.289856 658.177795,165.155380 
	C661.200928,171.632446 661.196045,171.674835 668.218384,172.488327 
	C671.426819,172.859970 674.658997,173.027084 677.880371,173.286972 
	C677.896912,173.723633 677.913452,174.160294 677.929993,174.596954 
	C672.365540,175.028305 666.801147,175.459656 661.595337,175.863190 
	C659.223267,177.874664 662.837891,182.747421 657.418457,183.105255 
	C657.283752,180.757751 657.170898,178.790253 657.058655,176.833954 
	C653.458191,175.794678 653.458191,175.794678 650.629211,183.580811 
	C649.753418,180.647369 649.192810,178.769684 648.511414,176.487457 
	C647.451599,176.487457 646.101379,176.487457 644.641113,176.487457 
	C644.319336,178.659698 644.016418,180.704071 643.713562,182.748444 
	C643.211121,182.838211 642.708618,182.927994 642.206177,183.017761 
	C641.664307,180.899612 641.122437,178.781464 640.480896,176.273529 
	C639.292847,176.273529 637.715454,176.273529 635.820068,176.273529 
	C635.820068,178.391342 635.820068,180.482300 635.820068,182.573273 
	C635.297668,182.760452 634.775208,182.947647 634.252808,183.134842 
	C633.373596,180.955170 632.494385,178.775497 631.367493,175.981659 
	C627.921387,175.713623 623.808289,175.393692 619.261719,175.039490 
z"/>
<path fill="#1C1C1C" opacity="1.000000" stroke="none" 
	d="
M558.956970,205.962402 
	C558.427063,204.598755 558.233276,203.007507 558.039429,201.416290 
	C558.449524,201.778305 558.859680,202.140335 559.572266,202.569733 
	C559.680847,203.669678 559.486938,204.702240 558.956970,205.962402 
z"/>
<path fill="#1A1A1A" opacity="1.000000" stroke="none" 
	d="
M567.280945,226.928558 
	C567.532776,227.819504 567.483826,228.797226 567.124268,229.854431 
	C566.869141,228.961075 566.924622,227.988205 567.280945,226.928558 
z"/>
<path fill="#1C1C1C" opacity="1.000000" stroke="none" 
	d="
M561.918823,224.121567 
	C562.716919,224.269730 563.568298,224.378983 564.419617,224.488235 
	C564.253723,224.889877 564.087769,225.291504 563.921875,225.693130 
	C563.405212,225.232910 562.888550,224.772675 562.106201,224.204559 
	C561.840393,224.096664 561.972107,224.082657 561.918823,224.121567 
z"/>
<path fill="#1C1C1C" opacity="1.000000" stroke="none" 
	d="
M562.012695,221.763885 
	C561.898315,221.592056 561.954102,221.418655 562.009888,221.245239 
	C562.067566,221.417587 562.125183,221.589951 562.012695,221.763885 
z"/>
<path fill="#F7F7F7" opacity="1.000000" stroke="none" 
	d="
M595.447693,284.750854 
	C595.424805,284.534332 595.504944,284.453705 595.585083,284.373047 
	C595.653809,284.463654 595.780579,284.558105 595.774841,284.643707 
	C595.769165,284.729340 595.630920,284.806091 595.447693,284.750854 
z"/>
<path fill="#1A1A1A" opacity="1.000000" stroke="none" 
	d="
M558.913452,193.503296 
	C560.464844,193.236237 561.889771,193.330933 563.664673,193.587158 
	C569.234192,198.701569 568.536255,205.224686 569.176025,211.407303 
	C566.306458,206.602554 563.510376,201.920822 560.375244,197.254913 
	C559.422729,197.805161 558.809265,198.339584 558.195740,198.874008 
	C557.900879,198.752930 557.606018,198.631866 557.311157,198.510788 
	C557.803101,196.962204 558.295044,195.413620 558.913452,193.503296 
z"/>
<path fill="#000000" opacity="1.000000" stroke="none" 
	d="
M723.014343,220.583450 
	C722.681152,220.959930 722.446167,220.942688 721.857544,220.923828 
	C721.738159,219.870010 721.972351,218.817780 722.608093,217.850082 
	C723.043945,218.686325 723.078186,219.438019 723.014343,220.583450 
z"/>
<path fill="#302C35" opacity="1.000000" stroke="none" 
	d="
M680.366699,214.933182 
	C680.903809,210.613571 684.842285,211.891907 687.483215,211.144897 
	C690.363037,210.330307 693.508484,210.422211 696.544128,210.199966 
	C699.676453,209.970627 701.365784,211.931656 700.375244,214.964172 
	C695.664673,211.494751 692.383240,211.982559 687.498657,216.954239 
	C685.293457,216.299805 683.025879,215.626862 680.366699,214.933182 
z"/>
<path fill="#302C35" opacity="1.000000" stroke="none" 
	d="
M676.304565,216.937317 
	C676.487793,216.037766 676.931885,214.993988 677.375977,213.950211 
	C677.916931,214.222336 678.457825,214.494461 679.030762,215.093231 
	C678.230286,215.877625 677.397888,216.335373 676.304565,216.937317 
z"/>
<path fill="#9D91A9" opacity="1.000000" stroke="none" 
	d="
M614.087280,216.908356 
	C613.750977,218.579590 613.414612,220.250824 612.962769,222.261414 
	C608.457275,222.348724 603.847046,222.816864 599.761658,221.568054 
	C597.401306,220.846527 595.744080,217.449936 594.138489,215.014633 
	C593.880676,214.623611 595.555176,212.958649 596.682495,211.810760 
	C597.449524,211.747467 597.870483,211.756027 598.764648,211.798828 
	C599.488403,211.881027 599.728943,211.959335 599.999207,212.437012 
	C602.159851,219.952225 605.412048,220.895996 610.589905,215.886917 
	C611.054138,215.437851 611.642456,215.117050 612.381470,214.799896 
	C612.589844,214.863068 613.008606,214.982773 613.008606,214.982788 
	C613.171631,215.276123 613.334656,215.569458 613.760132,216.166397 
	C614.022522,216.470001 614.087280,216.908340 614.087280,216.908356 
z"/>
<path fill="#302C35" opacity="1.000000" stroke="none" 
	d="
M599.959656,212.067993 
	C599.728943,211.959335 599.488403,211.881027 599.075684,211.735474 
	C603.373657,208.937454 610.107300,210.168518 613.015991,214.600128 
	C613.008606,214.982773 612.589844,214.863068 612.224060,214.618439 
	C611.593872,214.183243 611.302551,214.052795 610.814941,213.719589 
	C610.256592,213.316025 609.867554,213.175369 609.151367,213.073105 
	C607.741699,213.650620 606.659180,214.189758 606.717529,214.160690 
	C603.824219,213.264725 601.891968,212.666351 599.959656,212.067993 
z"/>
<path fill="#302C35" opacity="1.000000" stroke="none" 
	d="
M614.434692,216.969604 
	C614.087280,216.908340 614.022522,216.470001 614.005615,216.249069 
	C614.414673,215.469589 614.840515,214.911041 615.266418,214.352509 
	C615.814697,215.057449 616.362976,215.762390 616.901489,216.814087 
	C616.188477,217.117493 615.485291,217.074173 614.434692,216.969604 
z"/>
<path fill="#F7F7F7" opacity="1.000000" stroke="none" 
	d="
M679.294678,210.702301 
	C679.559875,210.299255 680.095642,209.880814 680.797119,209.661804 
	C680.496948,210.136490 680.031189,210.411697 679.294678,210.702301 
z"/>
<path fill="#736D7B" opacity="1.000000" stroke="none" 
	d="
M599.999207,212.437012 
	C601.891968,212.666351 603.824219,213.264725 606.717529,214.160690 
	C606.659180,214.189758 607.741699,213.650620 609.331299,213.336426 
	C610.220398,213.701752 610.602295,213.842117 610.984253,213.982483 
	C611.302551,214.052795 611.593872,214.183243 612.015686,214.555267 
	C611.642456,215.117050 611.054138,215.437851 610.589905,215.886917 
	C605.412048,220.895996 602.159851,219.952225 599.999207,212.437012 
z"/>
<path fill="#151515" opacity="1.000000" stroke="none" 
	d="
M610.814941,213.719574 
	C610.602295,213.842117 610.220398,213.701752 609.658508,213.298050 
	C609.867554,213.175369 610.256592,213.316025 610.814941,213.719574 
z"/>
</svg>