<svg version="1.1" id="Layer_1" xmlns="http://www.w3.org/2000/svg" xmlns:xlink="http://www.w3.org/1999/xlink" x="0px" y="0px"
	 width="100%" viewBox="0 0 736 736" enable-background="new 0 0 736 736" xml:space="preserve">
<path fill="#000000" opacity="1.000000" stroke="none" 
	d="
M601.420654,416.431885 
	C412.191528,586.406555 149.932358,531.394409 30.002478,385.531464 
	C144.848801,470.158203 269.842957,493.285858 405.526672,450.438995 
	C470.154663,430.030457 525.035583,393.277466 571.986816,343.217621 
	C557.124695,329.075287 542.596069,315.250336 526.740662,300.162842 
	C587.956177,282.033447 647.886475,264.284668 709.368896,246.076233 
	C694.448792,308.311279 679.872009,369.114563 664.957886,431.324738 
	C658.585388,425.365936 653.273560,420.452118 648.021851,415.474823 
	C641.492249,409.286407 634.942810,403.115936 628.542419,396.795532 
	C625.636963,393.926422 623.533447,393.976715 620.829163,397.206329 
	C615.046631,404.112335 608.294006,410.093445 601.420654,416.431885 
z"/>
<path fill="#000000" opacity="1.000000" stroke="none" 
	d="
M392.578186,652.102661 
	C396.404755,653.005737 399.852020,653.669189 403.149597,654.777893 
	C405.149902,655.450439 407.412628,656.613953 407.226990,659.217896 
	C407.067291,661.458374 405.026001,662.386536 403.134399,663.144958 
	C396.856445,665.661926 390.180786,666.473145 383.565186,666.652039 
	C359.636139,667.298950 335.692902,668.080139 311.777374,666.123901 
	C309.585114,665.944580 307.509369,665.451904 305.617828,664.299133 
	C303.868561,663.233093 302.155731,662.040527 302.305084,659.713867 
	C302.447571,657.494629 304.407013,656.931824 306.068359,656.182007 
	C314.741669,652.267639 324.041534,651.623108 333.339539,650.870544 
	C352.982330,649.280518 372.559143,650.570007 392.578186,652.102661 
z"/>
</svg>