<svg version="1.1" id="Layer_1" xmlns="http://www.w3.org/2000/svg" xmlns:xlink="http://www.w3.org/1999/xlink" x="0px" y="0px"
	 width="100%" viewBox="0 0 256 256" enable-background="new 0 0 256 256" xml:space="preserve">
<path fill="#000000" opacity="1.000000" stroke="none" 
	d="
M138.788116,114.779022 
	C143.397995,110.167648 147.721985,105.772484 152.114899,101.447319 
	C153.689102,99.897408 155.651749,98.196541 157.702393,100.286171 
	C159.706909,102.328804 158.095779,104.352783 156.542709,105.925468 
	C149.986404,112.564613 143.437576,119.214592 136.728867,125.697990 
	C134.240295,128.102982 134.222427,129.892349 136.706329,132.292145 
	C142.935989,138.310822 148.991882,144.509338 155.119522,150.633682 
	C155.590927,151.104828 156.104126,151.536316 156.553436,152.026962 
	C158.063416,153.675858 159.740433,155.602966 157.770630,157.657547 
	C155.764908,159.749619 153.843842,158.173843 152.218094,156.555359 
	C147.258636,151.618057 142.245010,146.734146 137.339310,141.744080 
	C129.201508,133.466339 129.222000,133.430222 120.981148,141.582153 
	C116.006653,146.502975 111.089127,151.481659 106.088058,156.375168 
	C104.408890,158.018219 102.348633,160.001328 100.147568,157.587067 
	C98.269806,155.527451 99.961357,153.568466 101.551605,151.975464 
	C107.908943,145.607117 114.124123,139.084732 120.711403,132.963150 
	C124.026970,129.881989 123.758804,127.873505 120.608994,124.932037 
	C114.522980,119.248581 108.770073,113.208229 102.886650,107.308273 
	C102.064270,106.483582 101.212883,105.671883 100.502098,104.755516 
	C99.415489,103.354637 98.721420,101.709526 100.212425,100.267212 
	C101.618698,98.906860 103.339661,99.274406 104.762138,100.408173 
	C106.060410,101.442963 107.237900,102.637115 108.415390,103.814285 
	C114.070221,109.467598 119.858925,114.998276 125.288994,120.860649 
	C128.200104,124.003532 130.309280,123.896828 132.909668,120.707710 
	C134.585861,118.652069 136.643021,116.907082 138.788116,114.779022 
z"/>
</svg>