<svg version="1.1" id="Layer_1" xmlns="http://www.w3.org/2000/svg" xmlns:xlink="http://www.w3.org/1999/xlink" x="0px" y="0px"
	 width="100%" viewBox="0 0 496 496" enable-background="new 0 0 496 496" xml:space="preserve">
<path fill="#000000" opacity="1.000000" stroke="none" 
	d="
M310.185425,431.342041 
	C277.142578,436.146393 244.490601,436.867676 211.675858,433.518555 
	C170.906509,429.357483 131.384003,419.988190 92.674919,406.744812 
	C87.446976,404.956177 85.389290,402.482635 85.536087,396.781921 
	C85.985947,379.312775 85.939774,361.869781 87.429642,344.397095 
	C90.128006,312.751373 106.035484,291.492432 135.094635,279.438660 
	C147.569199,274.264160 160.367493,270.036987 173.085556,265.556488 
	C175.930771,264.554138 177.790878,265.578217 179.883011,267.158539 
	C195.330704,278.827209 212.523636,286.372406 231.812576,288.859375 
	C264.601807,293.086914 293.931946,284.937653 319.393921,263.803406 
	C323.600220,260.312042 327.158997,259.320618 332.441071,261.023407 
	C346.403381,265.524475 360.165558,270.337738 373.385559,276.835327 
	C398.190918,289.027100 409.964539,309.573517 413.376526,336.148071 
	C416.057129,357.026062 416.208038,377.976044 416.384186,398.954437 
	C416.415710,402.714417 415.187134,404.594147 411.619659,405.886078 
	C381.016907,416.968567 349.648560,425.042908 317.538269,430.281708 
	C315.240021,430.656647 312.931793,430.970398 310.185425,431.342041 
z"/>
<path fill="#000000" opacity="1.000000" stroke="none" 
	d="
M345.240906,145.092194 
	C354.570251,192.818695 331.929993,237.746429 288.765381,257.682556 
	C229.757599,284.936066 159.392258,247.715012 148.723450,183.604813 
	C139.675537,129.234695 174.568237,78.046799 228.623520,68.110107 
	C283.264343,58.065784 331.810638,91.875519 344.389771,141.787994 
	C344.633392,142.754593 344.923645,143.709457 345.240906,145.092194 
z"/>
<path fill="#000000" opacity="1.000000" stroke="none" 
	d="
M11.831732,466.166290 
	C7.495979,464.296478 8.608758,460.956146 9.692587,457.771210 
	C11.022024,453.864532 11.858932,450.113617 7.986340,446.683075 
	C11.752648,444.661987 11.115396,442.379974 8.449970,440.355316 
	C8.541134,438.173706 10.747076,438.998291 10.877560,438.723145 
	C6.740386,422.828430 9.426608,407.504791 8.947849,392.130829 
	C11.102347,390.571899 13.307112,390.029785 15.575710,391.198792 
	C16.670155,398.603668 15.964148,405.805145 16.187334,412.978394 
	C16.419630,420.444550 16.583796,427.922852 15.956985,435.325378 
	C15.744013,437.840485 16.825567,438.327911 18.188791,439.281738 
	C15.337820,443.893005 16.889797,448.938904 16.257469,453.711945 
	C15.736934,457.641144 18.009041,461.982086 14.071213,465.615784 
	C12.955578,465.875641 12.393655,466.020966 11.831732,466.166290 
z"/>
<path fill="#000000" opacity="1.000000" stroke="none" 
	d="
M11.651859,466.496887 
	C12.393655,466.020966 12.955578,465.875641 13.720554,465.827881 
	C15.520812,467.233551 16.222111,468.648895 16.211332,470.976593 
	C16.177898,478.195862 16.545446,485.414856 15.593406,492.851776 
	C12.964213,493.475555 10.996174,492.152252 8.695873,490.574860 
	C10.379806,487.943787 12.721734,485.261627 7.820899,483.290039 
	C10.426146,480.817505 12.174558,478.372009 7.653453,475.699585 
	C12.012167,473.683868 9.705951,469.582245 11.651859,466.496887 
z"/>
</svg>