<svg version="1.1" id="Layer_1" xmlns="http://www.w3.org/2000/svg" xmlns:xlink="http://www.w3.org/1999/xlink" x="0px" y="0px"
	 width="100%" viewBox="0 0 736 736" enable-background="new 0 0 736 736" xml:space="preserve">
<path fill="#000000" opacity="1.000000" stroke="none" 
	d="
M1.000000,583.000000 
	C1.000000,438.312439 1.000000,293.624878 1.192561,148.679932 
	C1.853190,149.114639 2.403091,150.097351 3.254820,149.836121 
	C11.746283,147.231842 20.798594,145.849442 25.815865,136.853867 
	C33.166286,123.675156 46.211052,120.220596 59.584190,120.523537 
	C69.798622,120.754929 78.477806,118.122528 86.218788,112.639427 
	C94.781212,106.574455 103.359451,100.609459 112.353874,95.203842 
	C129.041672,85.174507 143.686462,71.918358 161.540787,63.741055 
	C182.449448,54.164864 204.936630,48.772110 226.019455,39.588909 
	C233.628372,36.274632 242.013153,35.058022 249.790924,31.964622 
	C263.365112,26.565872 277.396851,23.325567 292.179474,23.734638 
	C302.026184,24.007120 311.759766,25.423025 321.562256,26.019476 
	C352.814789,27.921097 384.132568,28.145668 415.409943,29.780123 
	C444.921936,31.322323 474.251068,33.020557 502.910034,40.809406 
	C505.648956,41.553783 508.289673,42.523933 510.970734,43.414093 
	C524.316772,47.845142 534.918579,57.099224 547.038086,63.669041 
	C554.966858,67.967148 561.200378,74.089462 566.481628,81.310692 
	C573.603943,91.049210 582.135071,99.583809 591.366516,107.169525 
	C599.307556,113.694901 606.610901,120.790390 612.534912,128.948380 
	C634.821960,159.639877 658.664673,189.281097 676.615295,222.964767 
	C680.426025,230.115448 683.504272,237.325424 685.170227,245.221329 
	C687.060547,254.180313 688.426208,263.300812 691.857849,271.851227 
	C698.911621,289.426514 702.002075,307.582001 701.292542,326.543945 
	C700.757019,340.854736 701.143066,355.198120 700.994141,369.525696 
	C700.696716,398.144379 704.932129,426.304382 710.037292,454.315155 
	C711.892090,464.491425 712.590942,474.397186 710.795837,484.542267 
	C703.887817,523.583008 690.564209,560.042908 667.598816,592.673401 
	C665.166870,596.128845 662.460815,599.148499 658.879883,601.463135 
	C650.419067,606.931824 643.406067,614.131958 636.766418,621.538025 
	C624.714600,634.981201 612.411682,648.033203 596.222656,656.593384 
	C585.086609,662.481750 573.539673,667.640442 562.682983,673.991211 
	C556.415283,677.657593 549.294556,678.975769 543.169128,682.709778 
	C534.076538,688.252441 525.087097,694.021362 514.413147,696.235474 
	C513.138428,696.499878 511.804352,697.032593 510.768433,697.804321 
	C503.305786,703.363403 495.612457,708.575684 487.875397,713.745972 
	C475.785583,721.825134 462.777710,728.310303 450.556793,736.085754 
	C450.888275,736.295776 451.444122,736.647888 452.000000,737.000000 
	C406.979095,737.000000 361.958221,737.000000 316.620178,736.869812 
	C316.751068,736.250549 317.372803,735.489258 316.391937,735.243286 
	C313.574402,734.536987 311.424591,732.705322 308.976166,731.359741 
	C302.842133,727.988892 296.089661,728.273132 290.363403,731.397095 
	C286.904297,733.284119 283.703369,735.110168 278.901489,735.405945 
	C280.873352,736.172852 281.936676,736.586426 283.000000,737.000000 
	C268.312439,737.000000 253.624878,737.000000 238.541885,736.815796 
	C237.307114,733.921753 234.226013,734.356079 232.528839,732.516541 
	C227.994308,727.601562 222.245941,723.798584 216.192841,721.398804 
	C206.244293,717.454712 196.671127,712.813660 187.430206,707.581299 
	C178.799026,702.694031 168.413635,701.861267 160.488373,695.952209 
	C153.315979,690.604370 145.225449,688.088928 137.006439,685.342651 
	C119.631561,679.536926 102.280617,673.560486 88.497627,660.643921 
	C81.936005,654.494751 75.300049,648.558105 66.838455,644.877808 
	C63.464970,643.410583 59.817169,641.881958 57.351334,638.624146 
	C54.354752,634.665100 50.129902,633.323608 45.338917,634.437500 
	C39.882122,635.706177 35.576996,633.783936 31.668985,630.214783 
	C28.904778,627.690369 26.562656,624.706482 25.473713,621.250000 
	C20.581446,605.720886 10.809870,592.871155 2.465224,579.228943 
	C1.350732,579.986633 1.944612,581.843384 1.000000,583.000000 
M538.901245,456.442383 
	C547.206482,438.497925 552.752258,419.651001 555.438965,400.148285 
	C558.560425,377.489746 558.369080,354.840302 554.127380,332.130676 
	C550.925049,314.986298 546.379761,298.312744 538.818420,282.779541 
	C503.617859,210.467346 445.664673,169.855423 365.737823,161.626419 
	C341.820160,159.163925 317.853821,162.038376 294.610962,168.794601 
	C260.554077,178.694290 230.851517,195.989532 205.520523,220.982773 
	C172.341293,253.719666 152.613068,293.315613 145.601395,339.053619 
	C141.042923,368.789154 143.040543,398.452240 151.570236,427.480225 
	C169.455475,488.346710 207.451187,532.139099 264.338501,559.681213 
	C271.754486,563.271667 279.225128,567.367493 287.799103,567.679321 
	C295.931580,567.975281 298.702209,565.219360 298.741211,557.160767 
	C298.790405,546.995605 298.767456,536.829956 298.751892,526.664551 
	C298.742371,520.453430 297.995911,519.580566 291.749542,520.400879 
	C284.609100,521.338501 277.463318,521.802063 270.316406,521.212463 
	C250.876129,519.608765 236.062698,511.062164 228.437317,492.314270 
	C223.414764,479.965790 216.199768,469.455719 204.499344,462.491455 
	C203.362762,461.814972 202.323654,460.939178 201.345551,460.040283 
	C199.852158,458.667908 198.385605,457.143921 198.979813,454.881836 
	C199.575882,452.612732 201.535751,452.007812 203.581360,451.650787 
	C207.245789,451.011322 210.847763,451.124176 214.425842,452.277924 
	C225.577942,455.873871 233.813614,463.029602 239.771347,472.961090 
	C241.920914,476.544403 244.173721,480.074677 247.111420,483.036835 
	C262.050690,498.100800 280.044739,498.025330 297.372467,490.844299 
	C299.551605,489.941193 300.177917,487.932495 300.514374,486.038849 
	C301.729858,479.197968 304.362457,472.987427 308.154236,467.211884 
	C310.335083,463.890076 309.211151,461.923645 305.500366,461.166718 
	C300.783966,460.204651 296.042847,459.356781 291.343903,458.317230 
	C273.654022,454.403564 257.181152,447.852783 244.355331,434.530334 
	C220.656830,409.914185 216.810455,379.355621 219.350143,347.227173 
	C220.594879,331.480560 227.675781,317.919586 237.335007,305.648590 
	C238.741272,303.862091 239.616119,302.211182 238.791000,299.748810 
	C234.314148,286.388611 234.950211,272.828186 237.983658,259.348297 
	C240.817261,246.756439 243.201538,245.465424 256.079987,248.399506 
	C269.593445,251.478226 281.627014,257.914001 293.105804,265.373779 
	C296.897766,267.838104 300.381104,268.717712 304.791718,267.682159 
	C311.902039,266.012787 319.075439,264.114014 326.314880,263.588196 
	C346.059723,262.154114 365.908875,261.019836 385.434967,265.533356 
	C395.892822,267.950714 405.912170,269.763031 414.722137,261.397980 
	C415.662964,260.504669 416.970062,259.976379 418.148499,259.357361 
	C429.230164,253.536667 440.428253,248.087402 453.244263,247.226761 
	C456.995300,246.974854 459.723389,247.855301 460.997314,251.789383 
	C465.868103,266.831177 467.363342,282.109833 463.103271,297.448578 
	C461.885376,301.833649 462.853149,304.552704 465.433105,307.735626 
	C475.243134,319.838318 480.481445,333.880096 482.195160,349.259949 
	C483.928589,364.816406 482.128204,380.107635 478.398926,395.237488 
	C471.354584,423.816925 453.804443,442.963745 426.407349,453.292358 
	C416.248444,457.122192 405.685242,459.331818 394.992737,461.009155 
	C391.796631,461.510468 389.645630,462.768616 392.147919,466.257416 
	C400.413483,477.781403 402.336914,490.838501 402.125153,504.627014 
	C401.853943,522.287109 401.993591,539.955200 402.107788,557.618835 
	C402.156860,565.211792 404.972595,567.650818 412.503967,567.752014 
	C419.826660,567.850464 426.079071,564.431580 432.382751,561.617310 
	C480.751770,540.023315 516.228516,505.208374 538.901245,456.442383 
z"/>
</svg>