<svg version="1.1" id="Layer_1" xmlns="http://www.w3.org/2000/svg" xmlns:xlink="http://www.w3.org/1999/xlink" x="0px" y="0px"
	 width="100%" viewBox="0 0 626 626" enable-background="new 0 0 626 626" xml:space="preserve">
<path fill="#FDFEFE" opacity="1.000000" stroke="none" 
	d="
M1.000000,207.000000 
	C1.000000,138.013672 1.000000,69.527328 1.000000,1.020498 
	C209.611374,1.020498 418.222748,1.020498 626.917053,1.020498 
	C626.917053,209.569717 626.917053,418.139465 626.917053,626.854614 
	C418.333405,626.854614 209.666718,626.854614 1.000000,626.854614 
	C1.000000,487.110504 1.000000,347.305267 1.000000,207.000000 
M61.929920,61.779465 
	C61.792103,61.890488 61.690830,62.028378 61.336571,62.270790 
	C61.336571,62.270790 61.125736,62.483879 60.635086,62.732502 
	C60.041592,63.453983 59.448097,64.175468 58.954594,64.962700 
	C58.954594,64.962700 58.900150,64.856133 58.285603,65.123535 
	C56.476345,67.387352 54.667088,69.651169 52.953571,71.954765 
	C52.953571,71.954765 52.906109,71.862602 52.319660,72.196861 
	C50.424923,75.024651 48.530186,77.852448 46.604115,80.807343 
	C46.604115,80.807343 46.672131,80.695656 46.086227,81.028946 
	C44.888557,83.169594 43.690887,85.310249 42.520298,87.526093 
	C42.520298,87.526093 42.500774,87.603592 42.053890,87.883980 
	C41.965965,88.220459 41.878036,88.556946 41.893131,88.912216 
	C41.893131,88.912216 41.843658,88.819923 41.272911,89.214638 
	C32.610794,105.536850 27.959726,122.952667 27.946602,141.412872 
	C27.864515,256.897827 27.776417,372.383148 28.029556,487.867615 
	C28.075605,508.875214 33.875183,528.591797 45.877533,546.069946 
	C45.877533,546.069946 45.773659,546.150391 45.893887,546.839050 
	C49.577671,551.591797 53.261459,556.344543 56.980476,561.019409 
	C56.980476,561.019409 56.901649,561.052551 57.091358,561.701904 
	C59.680187,564.198425 62.269016,566.694885 64.929871,569.076904 
	C64.929871,569.076904 64.810371,569.140320 65.051537,569.773682 
	C69.243721,573.002502 73.435898,576.231323 77.658844,579.102234 
	C77.658844,579.102234 77.610435,579.464539 77.914261,580.014893 
	C78.835869,580.490601 79.757484,580.966370 80.943336,581.428162 
	C80.943336,581.428162 80.680801,581.413757 81.005531,581.985107 
	C82.962067,583.052673 84.918610,584.120239 86.946579,585.075317 
	C86.946579,585.075317 86.829391,585.138733 87.170815,585.654297 
	C87.743629,585.858459 88.316452,586.062561 88.896828,586.144409 
	C88.896828,586.144409 88.783623,586.191162 89.153206,586.778442 
	C94.389526,588.925415 99.625847,591.072388 104.941467,593.128784 
	C104.941467,593.128784 104.823334,593.151978 105.286858,593.714905 
	C117.808601,598.193604 130.740997,600.078369 144.013916,600.075623 
	C257.336212,600.052124 370.658539,600.098083 483.980713,599.982300 
	C491.267975,599.974854 498.651184,599.339905 505.821381,598.056274 
	C523.241699,594.937561 539.323242,588.464661 553.078003,577.113586 
	C553.078003,577.113586 553.174500,577.241028 553.839355,577.083801 
	C556.032166,575.222595 558.225037,573.361328 560.427612,571.410400 
	C560.427612,571.410400 560.515259,571.431885 561.088684,571.139709 
	C564.527161,567.575439 567.965637,564.011169 571.258606,560.311584 
	C571.258606,560.311584 571.443726,560.383789 572.006958,560.072388 
	C573.732544,557.753052 575.458069,555.433716 577.080566,553.069580 
	C577.080566,553.069580 577.128357,553.171326 577.752808,552.897034 
	C579.319214,550.416382 580.885620,547.935791 582.442017,545.399231 
	C582.442017,545.399231 582.391418,545.373535 582.884644,545.141907 
	C582.995117,544.802734 583.105652,544.463562 583.091980,544.083679 
	C583.091980,544.083679 583.172852,544.186340 583.740479,543.802856 
	C591.015930,531.132446 596.661743,517.892639 598.233459,502.420441 
	C598.150085,501.926056 598.066772,501.431702 598.110718,500.517151 
	C598.110718,500.517151 598.143799,500.079346 598.039856,500.032349 
	C598.039856,500.032349 598.105225,500.125824 598.774292,499.698120 
	C599.161133,494.901825 599.882690,490.105774 599.885620,485.309235 
	C599.955200,371.783203 599.996155,258.257080 599.848389,144.731216 
	C599.838074,136.820496 598.322937,128.911743 597.455139,120.263664 
	C593.948975,110.136253 591.443542,99.513130 586.724426,89.986595 
	C577.438843,71.242073 563.717590,56.115261 545.019531,45.987694 
	C545.130432,45.848652 545.241394,45.709606 544.990784,45.017456 
	C526.366943,33.577061 506.064758,28.054226 484.269897,28.046362 
	C379.690857,28.008629 275.111816,28.015940 170.532791,28.017710 
	C159.875473,28.017891 149.205704,27.773571 138.563614,28.195368 
	C120.199318,28.923231 102.765015,33.271927 86.977478,42.979496 
	C86.977478,42.979496 86.936943,42.889133 86.244537,42.981354 
	C84.146950,44.585190 82.049362,46.189030 79.442970,47.980602 
	C79.252174,48.275120 79.061371,48.569637 78.257462,48.896275 
	C77.799965,49.218624 77.342468,49.540977 76.973862,49.980537 
	C76.973862,49.980537 76.863045,49.883755 76.247742,50.082916 
	C75.030647,50.857689 73.813553,51.632462 72.580544,52.505562 
	C72.580544,52.505562 72.484840,52.477974 71.855202,52.660099 
	C69.531761,54.743580 67.208321,56.827065 64.991722,58.980782 
	C64.991722,58.980782 64.908852,58.883404 64.354782,59.090225 
	C63.720551,59.786148 63.086315,60.482075 62.247761,61.377407 
	C62.247761,61.377407 62.154442,61.647228 61.929920,61.779465 
z"/>
<path fill="#0B66C3" opacity="1.000000" stroke="none" 
	d="
M78.870567,48.864151 
	C79.061371,48.569637 79.252174,48.275120 79.857925,48.125954 
	C82.494232,46.477253 84.715591,44.683193 86.936943,42.889133 
	C86.936943,42.889133 86.977478,42.979496 87.339447,42.991131 
	C89.289917,42.593201 90.953873,42.365234 92.453651,41.742126 
	C98.426666,39.260548 104.151505,35.903732 110.338150,34.283081 
	C118.456184,32.156479 126.920609,30.191511 135.240738,30.172226 
	C249.061768,29.908407 362.883606,29.972128 476.705200,30.034035 
	C484.831268,30.038454 493.006622,30.218622 501.066772,31.131742 
	C507.260742,31.833445 513.524536,33.231255 519.370056,35.375267 
	C527.252686,38.266472 534.748535,42.205357 542.456299,45.590076 
	C543.263184,45.944408 544.379517,45.594002 545.352295,45.570564 
	C545.241394,45.709606 545.130432,45.848652 545.171631,46.140232 
	C551.490540,52.142284 557.871460,57.785370 563.763123,63.899956 
	C569.544434,69.899979 575.315002,76.024452 580.208923,82.736923 
	C586.541077,91.422005 590.504761,101.421623 593.489685,111.756088 
	C594.378479,114.833527 595.202820,117.929604 596.048462,121.424622 
	C596.697510,127.736008 597.922485,133.639359 597.928345,139.543915 
	C598.041870,254.078995 598.011597,368.614227 598.017151,483.149414 
	C598.017395,488.808228 598.074585,494.467010 598.105225,500.125824 
	C598.105225,500.125824 598.039856,500.032349 597.907349,500.094055 
	C597.691101,500.246094 597.522034,500.396027 597.537048,500.417542 
	C597.667114,500.603882 597.830139,500.767181 597.983398,500.937317 
	C598.066772,501.431702 598.150085,501.926056 597.725098,502.813232 
	C596.203552,507.099335 595.544250,511.129211 594.105286,514.858276 
	C590.857483,523.274902 587.179382,531.524658 583.794739,539.890259 
	C583.267700,541.192932 583.364502,542.747986 583.172852,544.186340 
	C583.172852,544.186340 583.091980,544.083679 582.874268,544.193604 
	C582.568115,544.660156 582.479797,545.016846 582.391479,545.373535 
	C582.391418,545.373535 582.442017,545.399231 582.079346,545.311890 
	C580.187195,547.873535 578.657776,550.522400 577.128357,553.171326 
	C577.128357,553.171326 577.080566,553.069580 576.758850,553.076538 
	C572.934937,554.259949 570.737793,556.328979 571.443726,560.383789 
	C571.443726,560.383789 571.258606,560.311584 570.970947,560.262085 
	C566.233215,562.990967 561.767395,565.755188 560.515259,571.431885 
	C560.515259,571.431885 560.427612,571.410400 560.035034,571.302124 
	C555.618958,571.212158 553.410339,573.171570 553.174500,577.241028 
	C553.174500,577.241028 553.078003,577.113586 552.751953,577.075073 
	C549.596130,578.550232 546.831726,580.205444 543.923523,581.549316 
	C537.036560,584.731750 529.903442,587.426636 523.195740,590.940613 
	C513.203369,596.175232 502.324982,597.817932 491.518890,597.841003 
	C372.187317,598.095703 252.854950,598.015747 133.522888,597.917114 
	C129.948135,597.914185 126.379738,596.687073 122.798882,596.087463 
	C116.811073,595.084839 110.815590,594.128052 104.823334,593.151978 
	C104.823334,593.151978 104.941467,593.128784 104.939529,592.772156 
	C104.512993,591.593018 104.248772,590.211609 103.638420,590.036499 
	C98.723648,588.626343 93.743683,587.443420 88.783630,586.191162 
	C88.783623,586.191162 88.896828,586.144409 88.784576,585.887939 
	C88.058014,585.467163 87.443710,585.302917 86.829399,585.138672 
	C86.829391,585.138733 86.946579,585.075317 86.929398,584.755859 
	C84.835075,583.428894 82.757935,582.421326 80.680801,581.413757 
	C80.680801,581.413757 80.943336,581.428162 80.812126,581.052673 
	C79.657417,580.272949 78.633926,579.868774 77.610435,579.464539 
	C77.610435,579.464539 77.658844,579.102234 77.668335,578.914062 
	C73.453362,575.443848 71.606865,568.969666 64.810371,569.140320 
	C64.810371,569.140320 64.929871,569.076904 64.945450,568.755127 
	C62.274574,565.973145 59.588112,563.512817 56.901649,561.052551 
	C56.901649,561.052551 56.980476,561.019409 56.991089,560.669189 
	C55.066456,554.163757 50.917423,549.762939 45.773659,546.150391 
	C45.773659,546.150391 45.877533,546.069946 45.923306,545.731689 
	C45.473392,543.864014 45.097866,542.282593 44.462265,540.813660 
	C40.743858,532.220032 35.432693,523.971680 33.565853,515.001709 
	C30.783772,501.634186 29.252071,487.767609 29.208530,474.106903 
	C28.872423,368.653961 28.966400,263.199341 29.110046,157.745544 
	C29.124689,146.995392 29.812836,136.177643 31.201069,125.523193 
	C32.054192,118.975632 34.847004,112.683083 36.743450,106.268509 
	C38.461418,100.457611 40.144947,94.636520 41.843658,88.819923 
	C41.843658,88.819923 41.893131,88.912216 42.120903,88.802040 
	C42.399376,88.329109 42.450077,87.966347 42.500778,87.603592 
	C42.500774,87.603592 42.520298,87.526093 42.879665,87.628647 
	C46.273735,86.308434 47.565071,84.034966 46.672131,80.695656 
	C46.672131,80.695656 46.604115,80.807343 46.983711,80.817154 
	C50.187382,78.442619 53.609505,76.428040 52.906109,71.862602 
	C52.906109,71.862602 52.953571,71.954765 53.288536,71.968628 
	C57.799118,71.396484 58.810135,68.467285 58.900150,64.856133 
	C58.900150,64.856133 58.954594,64.962700 59.306404,64.962875 
	C60.147385,64.136665 60.636559,63.310268 61.125732,62.483879 
	C61.125736,62.483879 61.336571,62.270790 61.725880,62.401833 
	C62.203140,62.438309 62.373253,62.333385 62.362896,62.251221 
	C62.336823,62.044415 62.229313,61.847878 62.154442,61.647228 
	C62.154442,61.647228 62.247761,61.377407 62.678261,61.457386 
	C63.708790,60.652710 64.308823,59.768059 64.908852,58.883404 
	C64.908852,58.883404 64.991722,58.980782 65.316849,58.971596 
	C69.417236,58.377831 72.260162,56.809395 72.484840,52.477974 
	C72.484840,52.477974 72.580544,52.505562 72.984085,52.646233 
	C75.748276,53.258324 77.275780,52.732388 76.863045,49.883755 
	C76.863045,49.883755 76.973862,49.980537 77.240944,49.940754 
	C77.962212,49.555363 78.416389,49.209759 78.870567,48.864151 
M337.241852,268.393616 
	C337.241852,268.393616 337.384125,268.281738 336.762756,268.313751 
	C336.561676,268.653412 336.360596,268.993073 336.182373,269.170013 
	C336.182373,269.170013 336.320068,269.259674 335.518433,269.093781 
	C334.528503,270.224884 333.538605,271.355957 332.403717,272.477417 
	C332.403717,272.477417 332.403717,272.332123 331.770477,272.317749 
	C331.601318,272.672913 331.432159,273.028076 331.365082,273.294373 
	C331.365082,273.294373 331.404541,273.423828 330.679840,273.181213 
	C328.033600,275.041626 325.387360,276.902008 322.003479,279.281006 
	C322.003479,274.538330 322.147583,270.771698 321.960419,267.021606 
	C321.794525,263.697021 321.260468,260.390839 320.694885,256.897369 
	C320.694885,256.897369 320.765289,256.642822 320.896667,255.824951 
	C320.923798,255.550735 320.950897,255.276535 320.986725,254.504211 
	C320.986725,254.504211 320.991302,254.006027 320.409058,253.407425 
	C319.767303,253.273880 319.125671,253.024597 318.483734,253.023682 
	C301.880096,252.999954 285.276306,252.981201 268.672882,253.042267 
	C267.445343,253.046768 266.220032,253.657883 264.135559,253.990982 
	C261.761597,254.326721 259.387665,254.662445 257.353943,255.550919 
	C257.713043,255.792618 258.072113,256.034332 258.097565,256.677704 
	C257.781555,256.820160 257.465546,256.962616 256.579926,257.035187 
	C256.388916,257.024475 256.197876,257.013794 255.406570,257.585205 
	C255.270081,259.559235 255.020477,261.532867 255.013458,263.507355 
	C254.774368,330.855621 254.550186,398.203918 254.407166,465.552429 
	C254.404739,466.698914 255.425201,467.847534 256.001007,469.664795 
	C256.001892,470.111633 256.002777,470.558472 255.545227,471.342621 
	C256.029999,471.884766 256.514771,472.426910 257.936890,472.975006 
	C266.916321,472.985260 275.895752,473.002258 284.875183,473.004059 
	C296.016357,473.006256 307.157562,473.006409 318.298309,472.935516 
	C318.602722,472.933594 318.901917,472.108002 319.703247,471.293549 
	C320.099487,471.170349 320.495758,471.047150 321.438599,470.654602 
	C321.641785,470.092255 321.844971,469.529907 322.626801,468.378784 
	C322.752625,467.065674 322.987976,465.752625 322.988312,464.439484 
	C322.998627,427.282288 322.985199,390.125122 322.989594,352.301147 
	C323.000031,351.856323 323.010468,351.411499 323.543488,350.567047 
	C323.686707,349.710999 323.829926,348.854950 324.064728,347.238251 
	C325.931030,337.574219 331.140320,330.094147 338.797058,324.053864 
	C341.042297,322.282623 342.725311,319.798767 344.739105,317.652039 
	C344.739105,317.652039 344.726166,317.724731 345.473694,317.922699 
	C346.611969,317.201447 347.750244,316.480194 348.918793,315.859192 
	C348.918793,315.859192 348.815491,315.841919 349.669373,315.949799 
	C360.789795,313.228363 371.832092,312.924469 382.771393,316.899353 
	C383.483429,317.158020 384.404419,316.841766 385.107758,316.811676 
	C385.107758,316.811676 385.151306,316.697845 385.292084,317.303955 
	C385.664825,317.374908 386.037567,317.445862 386.310577,317.449158 
	C386.310577,317.449158 386.429321,317.428497 386.408417,318.169891 
	C387.055695,318.288025 387.702942,318.406158 388.223450,318.461517 
	C388.223450,318.461517 388.362488,318.491486 388.371399,319.200989 
	C388.987579,319.407928 389.603760,319.614868 390.102753,319.830719 
	C390.102753,319.830719 390.180267,319.742371 390.083252,320.499298 
	C391.557678,321.433777 393.032135,322.368286 394.467896,323.400299 
	C394.467896,323.400299 394.567444,323.433411 394.387848,324.109650 
	C394.956512,324.391907 395.525208,324.674133 396.019348,324.981049 
	C396.019348,324.981049 396.043457,324.906342 396.058624,325.588867 
	C396.533722,325.950043 397.008820,326.311218 397.274109,326.761810 
	C397.274109,326.761810 397.439423,326.604645 397.214783,327.328186 
	C397.882416,327.841492 398.550079,328.354767 399.124939,328.900360 
	C399.124939,328.900360 399.141632,328.803528 399.036407,329.561584 
	C399.754028,330.336548 400.471680,331.111511 401.090515,331.928925 
	C401.090515,331.928925 401.128784,331.828400 401.076324,332.505432 
	C401.479858,332.963928 401.883392,333.422394 402.157104,333.894836 
	C402.157104,333.894836 402.201050,333.771851 402.092041,334.457031 
	C402.485352,334.936218 402.878632,335.415436 403.147186,335.910034 
	C403.147186,335.910034 403.184509,335.790009 403.085205,336.433716 
	C403.399658,336.938324 403.714081,337.442932 404.189911,338.332153 
	C404.189911,338.332153 404.149109,338.747284 404.081451,339.434387 
	C404.469635,339.929565 404.857788,340.424744 405.133636,340.949005 
	C405.133636,340.949005 405.143219,340.833374 405.025177,341.734222 
	C405.360748,351.321106 405.944519,360.906921 405.985657,370.495087 
	C406.112457,400.044647 406.008118,429.595184 406.073181,459.145142 
	C406.078949,461.759216 406.664520,464.372070 406.494965,467.366821 
	C406.658569,468.243866 406.822174,469.120911 406.996338,470.003357 
	C406.996338,470.003357 406.999969,470.014893 407.226501,470.449371 
	C407.445007,470.722717 407.729218,470.862915 408.082489,470.915192 
	C408.082489,470.915192 408.126312,470.927063 408.416046,471.612823 
	C410.613556,472.072449 412.811035,472.532074 415.944733,473.002960 
	C432.294464,473.000336 448.644165,472.997711 465.869781,473.020874 
	C473.085785,473.007812 473.085785,473.007812 473.001099,464.057343 
	C472.999939,418.266541 473.010223,372.475739 472.957336,326.684998 
	C472.955139,324.781403 472.362244,322.878448 472.034912,320.064911 
	C472.764923,308.301178 467.930389,298.248016 462.187683,288.520325 
	C461.543427,287.428955 460.007141,286.864197 458.967773,286.034485 
	C458.967773,286.034485 458.934998,286.113770 458.980408,285.362640 
	C458.251190,284.621613 457.522003,283.880554 456.902191,283.079926 
	C456.902191,283.079926 456.849884,283.192993 456.903687,282.495819 
	C456.442841,282.103821 455.981995,281.711823 455.679688,281.230194 
	C455.679688,281.230194 455.657013,281.410858 455.662048,280.784851 
	C455.311920,280.616119 454.961792,280.447388 454.767426,280.257477 
	C454.767426,280.257477 454.649780,280.361725 454.827271,279.615601 
	C453.801727,278.804688 452.776184,277.993774 451.866211,277.110535 
	C451.866211,277.110535 451.812897,277.236023 451.943634,276.445129 
	C450.902649,275.670319 449.861633,274.895538 448.920288,274.094849 
	C448.920288,274.094849 448.877930,274.188660 448.931732,273.467407 
	C440.145599,261.823151 427.337402,257.189758 413.938232,254.123520 
	C399.244629,250.761063 384.254364,252.827957 369.406219,253.214600 
	C365.907227,253.305710 362.469025,255.733124 359.012268,257.014160 
	C359.012268,257.014160 359.080811,257.037018 358.250946,256.990814 
	C350.399109,258.095764 343.782715,261.708618 337.494843,267.329498 
	C337.462433,267.714905 337.430023,268.100281 337.241852,268.393616 
M152.985413,205.748734 
	C153.975830,207.177933 154.966232,208.607132 155.986862,210.762360 
	C156.565460,211.908295 156.914780,213.271057 157.760025,214.164825 
	C163.088394,219.798996 169.373352,223.790741 177.063919,225.556458 
	C195.971375,229.897461 211.802216,224.039383 222.010391,208.303818 
	C229.491455,196.772003 230.964355,182.932037 224.092911,169.619110 
	C222.345718,166.234024 221.761246,161.966370 217.050446,160.156982 
	C216.102509,158.672287 215.448349,156.835983 214.159592,155.759201 
	C204.883545,148.009003 194.212570,144.460999 182.183090,146.558502 
	C177.971252,147.292892 172.476135,145.263657 169.541885,151.183472 
	C169.273026,151.370026 169.067947,151.610901 168.152969,151.946930 
	C158.119781,154.413193 154.542648,162.681442 150.987579,171.645187 
	C150.967194,172.072052 150.946808,172.498932 150.297821,173.320724 
	C146.598969,180.319046 147.001083,187.722610 148.526779,195.086609 
	C149.103043,197.867889 150.751251,200.427063 151.995270,203.666336 
	C152.320480,204.127258 152.645706,204.588196 152.985413,205.748734 
M217.004684,254.479294 
	C217.004684,254.479294 217.004883,254.004272 216.417740,253.407898 
	C214.610458,253.271530 212.803436,253.020782 210.995865,253.016846 
	C196.192108,252.984634 181.388245,253.004700 166.584427,252.988388 
	C165.096039,252.986740 163.515274,253.147079 162.136780,252.719025 
	C157.927872,251.412003 155.415283,252.645859 154.000961,257.001251 
	C154.000961,257.001251 154.015381,257.012390 153.556992,257.288605 
	C153.695084,257.861481 153.833191,258.434357 153.982925,259.804962 
	C153.979538,260.868713 153.976166,261.932465 153.396088,263.597046 
	C153.266098,265.576141 153.023102,267.555206 153.022491,269.534332 
	C153.002579,333.026581 153.004227,396.518799 153.012589,460.011047 
	C153.012939,462.702240 153.108307,465.393463 153.128113,468.765808 
	C153.771515,469.569000 154.414902,470.372162 155.248871,471.942810 
	C156.608368,472.306335 157.966736,472.981415 159.327545,472.986298 
	C177.806396,473.052979 196.285614,473.045532 214.764526,472.986176 
	C216.185303,472.981628 217.604370,472.449493 219.115143,471.720581 
	C219.115143,471.720581 219.107086,471.269409 219.216568,471.109009 
	C219.216568,471.109009 219.405182,471.155182 219.879639,471.091553 
	C219.879639,471.091553 220.320877,470.906006 220.714996,470.514893 
	C220.870132,469.982574 221.025253,469.450226 221.702515,468.306641 
	C221.802750,467.155670 221.990509,466.004761 221.990723,464.853760 
	C222.003647,397.126312 222.007797,329.398865 221.958023,261.671448 
	C221.956879,260.112671 221.330231,258.554321 220.661774,257.000641 
	C220.661774,257.000641 220.328171,256.999542 219.895920,256.865021 
	C219.895920,256.865021 219.443604,256.846008 218.750427,256.723846 
	C218.532410,256.637177 218.314392,256.550507 218.076996,256.081146 
	C218.076996,256.081146 217.944275,255.721176 217.709564,255.379745 
	C217.511902,255.175446 217.276566,255.033630 217.004684,254.479294 
z"/>
<path fill="#336AA3" opacity="1.000000" stroke="none" 
	d="
M545.171509,45.294010 
	C544.379517,45.594002 543.263184,45.944408 542.456299,45.590076 
	C534.748535,42.205357 527.252686,38.266472 519.370056,35.375267 
	C513.524536,33.231255 507.260742,31.833445 501.066772,31.131742 
	C493.006622,30.218622 484.831268,30.038454 476.705200,30.034035 
	C362.883606,29.972128 249.061768,29.908407 135.240738,30.172226 
	C126.920609,30.191511 118.456184,32.156479 110.338150,34.283081 
	C104.151505,35.903732 98.426666,39.260548 92.453651,41.742126 
	C90.953873,42.365234 89.289917,42.593201 87.298195,42.963737 
	C102.765015,33.271927 120.199318,28.923231 138.563614,28.195368 
	C149.205704,27.773571 159.875473,28.017891 170.532791,28.017710 
	C275.111816,28.015940 379.690857,28.008629 484.269897,28.046362 
	C506.064758,28.054226 526.366943,33.577061 545.171509,45.294010 
z"/>
<path fill="#26629B" opacity="1.000000" stroke="none" 
	d="
M105.055099,593.433472 
	C110.815590,594.128052 116.811073,595.084839 122.798882,596.087463 
	C126.379738,596.687073 129.948135,597.914185 133.522888,597.917114 
	C252.854950,598.015747 372.187317,598.095703 491.518890,597.841003 
	C502.324982,597.817932 513.203369,596.175232 523.195740,590.940613 
	C529.903442,587.426636 537.036560,584.731750 543.923523,581.549316 
	C546.831726,580.205444 549.596130,578.550232 552.822632,577.112427 
	C539.323242,588.464661 523.241699,594.937561 505.821381,598.056274 
	C498.651184,599.339905 491.267975,599.974854 483.980713,599.982300 
	C370.658539,600.098083 257.336212,600.052124 144.013916,600.075623 
	C130.740997,600.078369 117.808601,598.193604 105.055099,593.433472 
z"/>
<path fill="#356DA6" opacity="1.000000" stroke="none" 
	d="
M598.439758,499.911987 
	C598.074585,494.467010 598.017395,488.808228 598.017151,483.149414 
	C598.011597,368.614227 598.041870,254.078995 597.928345,139.543915 
	C597.922485,133.639359 596.697510,127.736008 596.289551,121.420204 
	C596.538940,121.008316 597.023254,121.000328 597.023254,121.000328 
	C597.023254,121.000328 597.507629,121.002060 597.507568,121.002060 
	C598.322937,128.911743 599.838074,136.820496 599.848389,144.731216 
	C599.996155,258.257080 599.955200,371.783203 599.885620,485.309235 
	C599.882690,490.105774 599.161133,494.901825 598.439758,499.911987 
z"/>
<path fill="#26629B" opacity="1.000000" stroke="none" 
	d="
M41.558289,89.017281 
	C40.144947,94.636520 38.461418,100.457611 36.743450,106.268509 
	C34.847004,112.683083 32.054192,118.975632 31.201069,125.523193 
	C29.812836,136.177643 29.124689,146.995392 29.110046,157.745544 
	C28.966400,263.199341 28.872423,368.653961 29.208530,474.106903 
	C29.252071,487.767609 30.783772,501.634186 33.565853,515.001709 
	C35.432693,523.971680 40.743858,532.220032 44.462265,540.813660 
	C45.097866,542.282593 45.473392,543.864014 45.902443,545.794006 
	C33.875183,528.591797 28.075605,508.875214 28.029556,487.867615 
	C27.776417,372.383148 27.864515,256.897827 27.946602,141.412872 
	C27.959726,122.952667 32.610794,105.536850 41.558289,89.017281 
z"/>
<path fill="#336AA3" opacity="1.000000" stroke="none" 
	d="
M597.481384,120.632858 
	C597.507629,121.002060 597.023254,121.000328 597.023254,121.000328 
	C597.023254,121.000328 596.538940,121.008316 596.297852,121.012726 
	C595.202820,117.929604 594.378479,114.833527 593.489685,111.756088 
	C590.504761,101.421623 586.541077,91.422005 580.208923,82.736923 
	C575.315002,76.024452 569.544434,69.899979 563.763123,63.899956 
	C557.871460,57.785370 551.490540,52.142284 545.339478,45.930801 
	C563.717590,56.115261 577.438843,71.242073 586.724426,89.986595 
	C591.443542,99.513130 593.948975,110.136253 597.481384,120.632858 
z"/>
<path fill="#26629B" opacity="1.000000" stroke="none" 
	d="
M583.456665,543.994629 
	C583.364502,542.747986 583.267700,541.192932 583.794739,539.890259 
	C587.179382,531.524658 590.857483,523.274902 594.105286,514.858276 
	C595.544250,511.129211 596.203552,507.099335 597.583557,503.168304 
	C596.661743,517.892639 591.015930,531.132446 583.456665,543.994629 
z"/>
<path fill="#26629B" opacity="1.000000" stroke="none" 
	d="
M45.833771,546.494751 
	C50.917423,549.762939 55.066456,554.163757 56.973473,560.708130 
	C53.261459,556.344543 49.577671,551.591797 45.833771,546.494751 
z"/>
<path fill="#26629B" opacity="1.000000" stroke="none" 
	d="
M88.968414,586.484802 
	C93.743683,587.443420 98.723648,588.626343 103.638420,590.036499 
	C104.248772,590.211609 104.512993,591.593018 104.899887,592.817383 
	C99.625847,591.072388 94.389526,588.925415 88.968414,586.484802 
z"/>
<path fill="#26629B" opacity="1.000000" stroke="none" 
	d="
M64.930954,569.457031 
	C71.606865,568.969666 73.453362,575.443848 77.652946,579.093018 
	C73.435898,576.231323 69.243721,573.002502 64.930954,569.457031 
z"/>
<path fill="#26629B" opacity="1.000000" stroke="none" 
	d="
M560.802002,571.285767 
	C561.767395,565.755188 566.233215,562.990967 571.043701,560.329712 
	C567.965637,564.011169 564.527161,567.575439 560.802002,571.285767 
z"/>
<path fill="#26629B" opacity="1.000000" stroke="none" 
	d="
M52.612885,72.029732 
	C53.609505,76.428040 50.187382,78.442619 46.999382,80.753609 
	C48.530186,77.852448 50.424923,75.024651 52.612885,72.029732 
z"/>
<path fill="#26629B" opacity="1.000000" stroke="none" 
	d="
M72.170021,52.569038 
	C72.260162,56.809395 69.417236,58.377831 65.263428,58.936478 
	C67.208321,56.827065 69.531761,54.743580 72.170021,52.569038 
z"/>
<path fill="#26629B" opacity="1.000000" stroke="none" 
	d="
M553.506958,577.162415 
	C553.410339,573.171570 555.618958,571.212158 560.030151,571.347046 
	C558.225037,573.361328 556.032166,575.222595 553.506958,577.162415 
z"/>
<path fill="#26629B" opacity="1.000000" stroke="none" 
	d="
M58.592876,64.989838 
	C58.810135,68.467285 57.799118,71.396484 53.240669,71.948738 
	C54.667088,69.651169 56.476345,67.387352 58.592876,64.989838 
z"/>
<path fill="#26629B" opacity="1.000000" stroke="none" 
	d="
M571.725342,560.228088 
	C570.737793,556.328979 572.934937,554.259949 576.810425,553.098999 
	C575.458069,555.433716 573.732544,557.753052 571.725342,560.228088 
z"/>
<path fill="#26629B" opacity="1.000000" stroke="none" 
	d="
M56.996506,561.377197 
	C59.588112,563.512817 62.274574,565.973145 64.909439,568.812378 
	C62.269016,566.694885 59.680187,564.198425 56.996506,561.377197 
z"/>
<path fill="#336AA3" opacity="1.000000" stroke="none" 
	d="
M86.590744,42.935242 
	C84.715591,44.683193 82.494232,46.477253 80.112320,48.032089 
	C82.049362,46.189030 84.146950,44.585190 86.590744,42.935242 
z"/>
<path fill="#26629B" opacity="1.000000" stroke="none" 
	d="
M577.440552,553.034180 
	C578.657776,550.522400 580.187195,547.873535 582.084351,545.339844 
	C580.885620,547.935791 579.319214,550.416382 577.440552,553.034180 
z"/>
<path fill="#26629B" opacity="1.000000" stroke="none" 
	d="
M46.379181,80.862305 
	C47.565071,84.034966 46.273735,86.308434 42.866123,87.591049 
	C43.690887,85.310249 44.888557,83.169594 46.379181,80.862305 
z"/>
<path fill="#26629B" opacity="1.000000" stroke="none" 
	d="
M80.843163,581.699463 
	C82.757935,582.421326 84.835075,583.428894 86.893677,584.812134 
	C84.918610,584.120239 82.962067,583.052673 80.843163,581.699463 
z"/>
<path fill="#26629B" opacity="1.000000" stroke="none" 
	d="
M76.555389,49.983337 
	C77.275780,52.732388 75.748276,53.258324 72.992050,52.597069 
	C73.813553,51.632462 75.030647,50.857689 76.555389,49.983337 
z"/>
<path fill="#26629B" opacity="1.000000" stroke="none" 
	d="
M77.762344,579.739746 
	C78.633926,579.868774 79.657417,580.272949 80.680008,581.059631 
	C79.757484,580.966370 78.835869,580.490601 77.762344,579.739746 
z"/>
<path fill="#26629B" opacity="1.000000" stroke="none" 
	d="
M60.880409,62.608189 
	C60.636559,63.310268 60.147385,64.136665 59.256409,64.930008 
	C59.448097,64.175468 60.041592,63.453983 60.880409,62.608189 
z"/>
<path fill="#26629B" opacity="1.000000" stroke="none" 
	d="
M64.631821,58.986816 
	C64.308823,59.768059 63.708790,60.652710 62.780418,61.357681 
	C63.086315,60.482075 63.720551,59.786148 64.631821,58.986816 
z"/>
<path fill="#26629B" opacity="1.000000" stroke="none" 
	d="
M87.000107,585.396484 
	C87.443710,585.302917 88.058014,585.467163 88.780792,585.949036 
	C88.316452,586.062561 87.743629,585.858459 87.000107,585.396484 
z"/>
<path fill="#26629B" opacity="1.000000" stroke="none" 
	d="
M78.564011,48.880215 
	C78.416389,49.209759 77.962212,49.555363 77.196503,49.882149 
	C77.342468,49.540977 77.799965,49.218624 78.564011,48.880215 
z"/>
<path fill="#26629B" opacity="1.000000" stroke="none" 
	d="
M62.042183,61.713348 
	C62.229313,61.847878 62.336823,62.044415 62.362896,62.251221 
	C62.373253,62.333385 62.203140,62.438309 61.870644,62.362999 
	C61.690830,62.028378 61.792103,61.890488 62.042183,61.713348 
z"/>
<path fill="#26629B" opacity="1.000000" stroke="none" 
	d="
M582.638062,545.257690 
	C582.479797,545.016846 582.568115,544.660156 582.936340,544.213928 
	C583.105652,544.463562 582.995117,544.802734 582.638062,545.257690 
z"/>
<path fill="#356DA6" opacity="1.000000" stroke="none" 
	d="
M598.047058,500.727234 
	C597.830139,500.767181 597.667114,500.603882 597.537048,500.417542 
	C597.522034,500.396027 597.691101,500.246094 597.959351,500.117554 
	C598.143799,500.079346 598.110718,500.517151 598.047058,500.727234 
z"/>
<path fill="#26629B" opacity="1.000000" stroke="none" 
	d="
M42.277336,87.743790 
	C42.450077,87.966347 42.399376,88.329109 42.069393,88.792648 
	C41.878036,88.556946 41.965965,88.220459 42.277336,87.743790 
z"/>
<path fill="#FCFEFE" opacity="1.000000" stroke="none" 
	d="
M320.892029,470.923950 
	C320.495758,471.047150 320.099487,471.170349 318.990234,471.326721 
	C307.164642,471.340393 296.051697,471.371002 284.939636,471.285889 
	C275.665436,471.214844 266.392242,471.008240 257.171265,470.404114 
	C257.234497,436.803772 257.263458,403.660950 257.250824,370.518127 
	C257.236389,332.713776 257.184875,294.909393 257.149506,257.105042 
	C257.465546,256.962616 257.781555,256.820160 258.693359,256.560242 
	C279.781189,256.509491 300.273224,256.576172 320.765289,256.642822 
	C320.765289,256.642822 320.694885,256.897369 320.754669,257.443481 
	C320.814453,266.912903 320.814453,275.836273 320.814453,285.647125 
	C324.916351,280.912628 328.160431,277.168243 331.404541,273.423828 
	C331.404541,273.423828 331.365082,273.294373 331.611389,273.303650 
	C332.039703,272.986023 332.221710,272.659088 332.403717,272.332123 
	C332.403717,272.332123 332.403717,272.477417 332.767731,272.394531 
	C334.194519,271.294312 335.257294,270.277008 336.320068,269.259674 
	C336.320068,269.259674 336.182373,269.170013 336.463135,269.194092 
	C336.957336,268.906006 337.170746,268.593872 337.384155,268.281738 
	C337.384125,268.281738 337.241852,268.393616 337.512817,268.417603 
	C337.783783,268.441589 338.004395,268.117920 338.346863,268.037506 
	C345.486511,264.317078 352.283661,260.677032 359.080811,257.037018 
	C359.080811,257.037018 359.012268,257.014160 359.429443,257.049500 
	C377.610321,253.121017 395.492798,252.988983 413.372864,255.914688 
	C427.103607,258.161469 438.391327,265.473511 448.877930,274.188660 
	C448.877930,274.188660 448.920288,274.094849 448.963715,274.412292 
	C449.942413,275.565155 450.877655,276.400574 451.812897,277.236023 
	C451.812897,277.236023 451.866211,277.110535 451.907379,277.447174 
	C452.848969,278.643127 453.749359,279.502411 454.649780,280.361725 
	C454.649780,280.361725 454.767426,280.257477 454.764374,280.535583 
	C455.059875,281.012756 455.358459,281.211823 455.657013,281.410858 
	C455.657013,281.410858 455.679688,281.230194 455.658569,281.572205 
	C456.041626,282.340454 456.445770,282.766724 456.849884,283.192993 
	C456.849884,283.192993 456.902191,283.079926 456.926727,283.412170 
	C457.612488,284.534241 458.273743,285.324005 458.934998,286.113770 
	C458.934998,286.113770 458.967773,286.034485 458.988159,286.393066 
	C466.043549,297.115631 469.742615,308.672485 471.219879,321.476135 
	C471.229218,367.637451 471.273132,413.332642 471.339355,459.027771 
	C471.342224,461.007751 471.550293,462.987427 471.506775,465.394714 
	C471.215546,467.574524 471.080261,469.326904 470.954163,470.960571 
	C468.581635,471.230621 466.774902,471.436279 464.521362,471.506653 
	C447.727356,471.460846 431.380096,471.550262 414.617645,471.494171 
	C412.177063,471.208130 410.151672,471.067596 408.126312,470.927063 
	C408.126312,470.927063 408.082489,470.915192 408.094574,470.662476 
	C408.106659,470.409760 407.915009,469.987396 407.994720,469.525330 
	C408.079559,431.465515 408.196869,393.867035 407.958923,356.270782 
	C407.926300,351.119232 406.125427,345.978912 405.143219,340.833374 
	C405.143219,340.833374 405.133636,340.949005 405.186829,340.604919 
	C404.876404,339.756317 404.512756,339.251801 404.149109,338.747284 
	C404.149109,338.747284 404.189911,338.332153 404.162292,337.832153 
	C403.817993,336.818115 403.501251,336.304047 403.184509,335.790009 
	C403.184509,335.790009 403.147186,335.910034 403.193817,335.586426 
	C402.893982,334.765839 402.547516,334.268860 402.201050,333.771851 
	C402.201050,333.771851 402.157104,333.894836 402.178406,333.580078 
	C401.842773,332.786316 401.485779,332.307343 401.128784,331.828400 
	C401.128784,331.828400 401.090515,331.928925 401.084747,331.590942 
	C400.433197,330.436493 399.787415,329.620026 399.141632,328.803528 
	C399.141632,328.803528 399.124939,328.900360 399.109863,328.586243 
	C398.542969,327.716309 397.991211,327.160492 397.439423,326.604645 
	C397.439423,326.604645 397.274109,326.761810 397.330139,326.416382 
	C396.938568,325.682770 396.491028,325.294556 396.043457,324.906342 
	C396.043457,324.906342 396.019348,324.981049 395.968018,324.690063 
	C395.466919,324.077179 395.017181,323.755310 394.567444,323.433411 
	C394.567444,323.433411 394.467896,323.400299 394.375092,323.071289 
	C392.914948,321.742340 391.547607,320.742371 390.180267,319.742371 
	C390.180267,319.742371 390.102753,319.830719 390.033936,319.551636 
	C389.430908,319.012207 388.896698,318.751831 388.362488,318.491486 
	C388.362488,318.491486 388.223450,318.461517 388.127258,318.251587 
	C387.497131,317.837250 386.963226,317.632874 386.429321,317.428497 
	C386.429321,317.428497 386.310577,317.449158 386.251831,317.231903 
	C385.845856,316.909058 385.498566,316.803467 385.151306,316.697876 
	C385.151306,316.697845 385.107758,316.811676 384.971527,316.498840 
	C372.878876,310.818359 360.875488,310.365784 348.815491,315.841919 
	C348.815491,315.841919 348.918793,315.859192 348.560913,315.824158 
	C347.044067,316.434326 345.885132,317.079529 344.726166,317.724731 
	C344.726166,317.724731 344.739105,317.652039 344.356384,317.689026 
	C330.613892,325.774078 322.020142,336.917389 320.963867,353.475220 
	C320.878815,392.931427 320.885437,431.927704 320.892029,470.923950 
z"/>
<path fill="#FCFEFF" opacity="1.000000" stroke="none" 
	d="
M218.096375,256.463837 
	C218.314392,256.550507 218.532410,256.637177 219.122833,257.263977 
	C219.492523,287.950165 219.498703,318.096222 219.485001,348.242249 
	C219.466370,389.213226 219.432510,430.184204 219.405182,471.155182 
	C219.405182,471.155182 219.216568,471.109009 218.798767,471.099915 
	C217.908096,471.221283 217.435257,471.351776 216.502502,471.409424 
	C196.379623,471.378754 176.716675,471.420929 156.812088,471.289459 
	C156.373611,471.091278 156.176773,471.066772 155.853836,470.778198 
	C155.638474,470.340576 155.549210,470.167114 155.574493,469.539673 
	C155.680176,398.369415 155.671310,327.653168 155.745880,257.000519 
	C155.829300,257.064148 155.980667,256.918823 156.450226,256.920227 
	C166.709625,256.908142 176.499817,256.943085 186.289169,256.868073 
	C196.891983,256.786804 207.494003,256.602936 218.096375,256.463837 
z"/>
<path fill="#155291" opacity="1.000000" stroke="none" 
	d="
M155.662460,256.936890 
	C155.671310,327.653168 155.680176,398.369415 155.589905,469.545410 
	C155.490753,470.005157 155.468201,470.010559 155.129791,469.941284 
	C154.488922,469.303467 154.186447,468.734924 153.920654,467.688599 
	C153.962494,399.139252 153.967636,331.067749 153.972794,262.996216 
	C153.976166,261.932465 153.979538,260.868713 153.992889,259.073730 
	C154.007034,257.899139 154.011200,257.455780 154.015381,257.012390 
	C154.015381,257.012390 154.000961,257.001251 154.284439,257.011322 
	C154.932770,256.993225 155.297607,256.965057 155.662460,256.936890 
z"/>
<path fill="#14529B" opacity="1.000000" stroke="none" 
	d="
M471.662750,464.967224 
	C471.550293,462.987427 471.342224,461.007751 471.339355,459.027771 
	C471.273132,413.332642 471.229218,367.637451 471.416718,321.475494 
	C471.652313,321.008698 472.044556,320.975220 472.044556,320.975220 
	C472.362244,322.878448 472.955139,324.781403 472.957336,326.684998 
	C473.010223,372.475739 472.999939,418.266541 472.775604,464.524902 
	C472.254547,464.976257 471.958771,464.967865 471.662750,464.967224 
z"/>
<path fill="#2B65A3" opacity="1.000000" stroke="none" 
	d="
M217.156738,160.857941 
	C221.761246,161.966370 222.345718,166.234024 224.092911,169.619110 
	C230.964355,182.932037 229.491455,196.772003 222.010391,208.303818 
	C211.802216,224.039383 195.971375,229.897461 177.063919,225.556458 
	C169.373352,223.790741 163.088394,219.798996 157.760025,214.164825 
	C156.914780,213.271057 156.565460,211.908295 156.101639,210.272461 
	C156.216415,209.782578 156.474579,209.527176 156.750610,209.707870 
	C166.790161,222.153992 179.488419,227.491394 194.860779,224.407578 
	C209.931549,221.384293 219.985703,211.894180 224.457565,197.206726 
	C228.483200,183.984772 224.949448,171.996597 216.925323,161.075500 
	C217.001526,161.001999 217.156738,160.857941 217.156738,160.857941 
z"/>
<path fill="#225D8E" opacity="1.000000" stroke="none" 
	d="
M405.084198,341.283813 
	C406.125427,345.978912 407.926300,351.119232 407.958923,356.270782 
	C408.196869,393.867035 408.079559,431.465515 407.765930,469.531860 
	C407.457458,470.000397 406.999969,470.014893 406.999969,470.014893 
	C406.999969,470.014893 406.996338,470.003357 406.996338,469.624329 
	C406.991180,468.492004 406.985992,467.738739 406.980835,466.985474 
	C406.664520,464.372070 406.078949,461.759216 406.073181,459.145142 
	C406.008118,429.595184 406.112457,400.044647 405.985657,370.495087 
	C405.944519,360.906921 405.360748,351.321106 405.084198,341.283813 
z"/>
<path fill="#5087C2" opacity="1.000000" stroke="none" 
	d="
M219.642426,471.123352 
	C219.432510,430.184204 219.466370,389.213226 219.485001,348.242249 
	C219.498703,318.096222 219.492523,287.950165 219.469421,257.325073 
	C219.443604,256.846008 219.895920,256.865021 220.064880,257.400024 
	C220.224503,304.429657 220.200943,350.924225 220.211578,397.418823 
	C220.217194,421.914551 220.282516,446.410278 220.320877,470.906006 
	C220.320877,470.906006 219.879639,471.091553 219.642426,471.123352 
z"/>
<path fill="#13508F" opacity="1.000000" stroke="none" 
	d="
M220.517944,470.710449 
	C220.282516,446.410278 220.217194,421.914551 220.211578,397.418823 
	C220.200943,350.924225 220.224503,304.429657 220.281006,257.467285 
	C220.328171,256.999542 220.661774,257.000641 220.833420,257.467316 
	C221.002960,322.764465 220.996490,387.594940 221.006668,452.425415 
	C221.007538,457.922913 221.119843,463.420410 221.180389,468.917908 
	C221.025253,469.450226 220.870132,469.982574 220.517944,470.710449 
z"/>
<path fill="#246AC9" opacity="1.000000" stroke="none" 
	d="
M255.968369,468.995178 
	C255.425201,467.847534 254.404739,466.698914 254.407166,465.552429 
	C254.550186,398.203918 254.774368,330.855621 255.013458,263.507355 
	C255.020477,261.532867 255.270081,259.559235 255.703918,257.762482 
	C255.990295,328.291565 255.979340,398.643372 255.968369,468.995178 
z"/>
<path fill="#114993" opacity="1.000000" stroke="none" 
	d="
M255.984680,469.329987 
	C255.979340,398.643372 255.990295,328.291565 256.004059,257.471436 
	C256.197876,257.013794 256.388916,257.024475 256.864716,257.070129 
	C257.184875,294.909393 257.236389,332.713776 257.250824,370.518127 
	C257.263458,403.660950 257.234497,436.803772 257.128540,470.435272 
	C257.033142,470.923950 256.972748,471.010742 256.730408,471.021851 
	C256.488068,471.032959 256.003693,471.005310 256.003662,471.005310 
	C256.002777,470.558472 256.001892,470.111633 255.984680,469.329987 
z"/>
<path fill="#216DC4" opacity="1.000000" stroke="none" 
	d="
M221.441437,468.612274 
	C221.119843,463.420410 221.007538,457.922913 221.006668,452.425415 
	C220.996490,387.594940 221.002960,322.764465 221.000214,257.464905 
	C221.330231,258.554321 221.956879,260.112671 221.958023,261.671448 
	C222.007797,329.398865 222.003647,397.126312 221.990723,464.853760 
	C221.990509,466.004761 221.802750,467.155670 221.441437,468.612274 
z"/>
<path fill="#1360B4" opacity="1.000000" stroke="none" 
	d="
M153.684448,263.296631 
	C153.967636,331.067749 153.962494,399.139252 153.740982,467.659241 
	C153.524612,468.107727 153.159409,468.084656 153.159409,468.084656 
	C153.108307,465.393463 153.012939,462.702240 153.012589,460.011047 
	C153.004227,396.518799 153.002579,333.026581 153.022491,269.534332 
	C153.023102,267.555206 153.266098,265.576141 153.684448,263.296631 
z"/>
<path fill="#215799" opacity="1.000000" stroke="none" 
	d="
M448.904846,273.828033 
	C438.391327,265.473511 427.103607,258.161469 413.372864,255.914688 
	C395.492798,252.988983 377.610321,253.121017 359.424744,257.085297 
	C362.469025,255.733124 365.907227,253.305710 369.406219,253.214600 
	C384.254364,252.827957 399.244629,250.761063 413.938232,254.123520 
	C427.337402,257.189758 440.145599,261.823151 448.904846,273.828033 
z"/>
<path fill="#14529B" opacity="1.000000" stroke="none" 
	d="
M155.468201,470.010559 
	C155.468201,470.010559 155.490753,470.005157 155.475342,469.999390 
	C155.549210,470.167114 155.638474,470.340576 155.879532,470.987244 
	C156.372116,471.461304 156.712921,471.462189 157.053711,471.463104 
	C176.716675,471.420929 196.379623,471.378754 216.708969,471.597473 
	C217.924988,471.959808 218.474609,472.061188 219.024246,472.162598 
	C217.604370,472.449493 216.185303,472.981628 214.764526,472.986176 
	C196.285614,473.045532 177.806396,473.052979 159.327545,472.986298 
	C157.966736,472.981415 156.608368,472.306335 155.249420,471.264587 
	C155.322693,470.394470 155.395447,470.202515 155.468201,470.010559 
z"/>
<path fill="#14529B" opacity="1.000000" stroke="none" 
	d="
M257.075867,470.892792 
	C266.392242,471.008240 275.665436,471.214844 284.939636,471.285889 
	C296.051697,471.371002 307.164642,471.340393 318.740387,471.513214 
	C318.901917,472.108002 318.602722,472.933594 318.298309,472.935516 
	C307.157562,473.006409 296.016357,473.006256 284.875183,473.004059 
	C275.895752,473.002258 266.916321,472.985260 257.468018,472.645935 
	C256.990356,471.881470 256.981537,471.446106 256.972717,471.010742 
	C256.972748,471.010742 257.033142,470.923950 257.075867,470.892792 
z"/>
<path fill="#114892" opacity="1.000000" stroke="none" 
	d="
M321.165314,470.789276 
	C320.885437,431.927704 320.878815,392.931427 321.209045,353.462585 
	C321.545868,352.989990 322.036896,352.991028 322.025574,353.460144 
	C322.025513,392.275330 322.036835,430.621460 322.048157,468.967560 
	C321.844971,469.529907 321.641785,470.092255 321.165314,470.789276 
z"/>
<path fill="#2B65A3" opacity="1.000000" stroke="none" 
	d="
M169.971512,150.972214 
	C172.476135,145.263657 177.971252,147.292892 182.183090,146.558502 
	C194.212570,144.460999 204.883545,148.009003 214.159592,155.759201 
	C215.448349,156.835983 216.102509,158.672287 217.103592,160.507462 
	C217.156738,160.857941 217.001526,161.001999 216.616760,160.954346 
	C203.107986,147.396393 187.795776,144.635681 170.371429,151.441437 
	C170.238602,151.284622 169.971512,150.972214 169.971512,150.972214 
z"/>
<path fill="#226BC7" opacity="1.000000" stroke="none" 
	d="
M322.337463,468.673157 
	C322.036835,430.621460 322.025513,392.275330 322.260071,353.454590 
	C322.505920,352.979919 322.975677,352.967926 322.975677,352.967926 
	C322.985199,390.125122 322.998627,427.282288 322.988312,464.439484 
	C322.987976,465.752625 322.752625,467.065674 322.337463,468.673157 
z"/>
<path fill="#3066A6" opacity="1.000000" stroke="none" 
	d="
M322.982635,352.634521 
	C322.975677,352.967926 322.505920,352.979919 322.271423,352.985474 
	C322.036896,352.991028 321.545868,352.989990 321.300690,353.002625 
	C322.020142,336.917389 330.613892,325.774078 344.319824,317.683777 
	C342.725311,319.798767 341.042297,322.282623 338.797058,324.053864 
	C331.140320,330.094147 325.931030,337.574219 323.762695,347.824341 
	C323.314056,349.262543 323.167480,350.114594 323.020935,350.966675 
	C323.010468,351.411499 323.000031,351.856323 322.982635,352.634521 
z"/>
<path fill="#14529B" opacity="1.000000" stroke="none" 
	d="
M415.032867,471.639679 
	C431.380096,471.550262 447.727356,471.460846 464.524414,471.732208 
	C464.992188,472.393463 464.998749,472.694183 464.993896,472.995117 
	C448.644165,472.997711 432.294464,473.000336 415.476929,472.771973 
	C415.025055,472.240753 415.032959,471.940338 415.032867,471.639679 
z"/>
<path fill="#1360B4" opacity="1.000000" stroke="none" 
	d="
M155.745880,257.000519 
	C155.297607,256.965057 154.932770,256.993225 154.292984,257.018982 
	C155.415283,252.645859 157.927872,251.412003 162.136780,252.719025 
	C163.515274,253.147079 165.096039,252.986740 166.584427,252.988388 
	C181.388245,253.004700 196.192108,252.984634 210.995865,253.016846 
	C212.803436,253.020782 214.610458,253.271530 216.242096,253.705048 
	C198.775360,254.001877 181.484146,253.973770 164.193329,254.044250 
	C162.466187,254.051285 160.741470,254.657440 158.824799,255.065689 
	C158.378677,255.283768 158.208542,255.491455 157.806595,255.827667 
	C156.986649,256.230591 156.483658,256.574707 155.980652,256.918823 
	C155.980667,256.918823 155.829300,257.064148 155.745880,257.000519 
z"/>
<path fill="#215799" opacity="1.000000" stroke="none" 
	d="
M472.039734,320.520081 
	C472.044556,320.975220 471.652313,321.008698 471.455475,321.009338 
	C469.742615,308.672485 466.043549,297.115631 458.946533,286.403442 
	C460.007141,286.864197 461.543427,287.428955 462.187683,288.520325 
	C467.930389,298.248016 472.764923,308.301178 472.039734,320.520081 
z"/>
<path fill="#285F9B" opacity="1.000000" stroke="none" 
	d="
M151.910812,203.087494 
	C150.751251,200.427063 149.103043,197.867889 148.526779,195.086609 
	C147.001083,187.722610 146.598969,180.319046 150.679413,173.183090 
	C151.061020,173.045456 151.195847,173.161789 151.198456,173.584717 
	C148.351547,183.720169 149.296127,193.298874 152.140137,202.877411 
	C152.063293,202.946991 151.910812,203.087494 151.910812,203.087494 
z"/>
<path fill="#286DBE" opacity="1.000000" stroke="none" 
	d="
M257.013702,254.998169 
	C259.387665,254.662445 261.761597,254.326721 265.033875,253.993835 
	C284.285217,253.999802 302.638245,254.002914 320.991302,254.006027 
	C320.991302,254.006027 320.986725,254.504211 320.516174,254.754395 
	C299.035004,255.002441 278.024353,255.000305 257.013702,254.998169 
z"/>
<path fill="#0E4E9B" opacity="1.000000" stroke="none" 
	d="
M257.183838,255.274536 
	C278.024353,255.000305 299.035004,255.002441 320.511841,255.003448 
	C320.950897,255.276535 320.923798,255.550735 320.830994,256.233887 
	C300.273224,256.576172 279.781189,256.509491 258.860168,256.359436 
	C258.072113,256.034332 257.713043,255.792618 257.183838,255.274536 
z"/>
<path fill="#225D8E" opacity="1.000000" stroke="none" 
	d="
M349.242432,315.895874 
	C360.875488,310.365784 372.878876,310.818359 385.031738,316.489502 
	C384.404419,316.841766 383.483429,317.158020 382.771393,316.899353 
	C371.832092,312.924469 360.789795,313.228363 349.242432,315.895874 
z"/>
<path fill="#5087C2" opacity="1.000000" stroke="none" 
	d="
M156.450226,256.920227 
	C156.483658,256.574707 156.986649,256.230591 158.261414,255.874741 
	C178.670212,255.815735 198.307236,255.768463 217.944275,255.721191 
	C217.944275,255.721176 218.076996,256.081146 218.086685,256.272491 
	C207.494003,256.602936 196.891983,256.786804 186.289169,256.868073 
	C176.499817,256.943085 166.709625,256.908142 156.450226,256.920227 
z"/>
<path fill="#2B65A3" opacity="1.000000" stroke="none" 
	d="
M151.026291,171.004318 
	C154.542648,162.681442 158.119781,154.413193 168.606400,152.003815 
	C169.059830,152.060684 169.196503,152.212219 169.008240,152.494690 
	C160.848907,157.076385 155.934357,164.068329 151.864044,171.703430 
	C151.570312,171.254730 151.327438,171.087265 151.026291,171.004318 
z"/>
<path fill="#0E4E98" opacity="1.000000" stroke="none" 
	d="
M217.826920,255.550476 
	C198.307236,255.768463 178.670212,255.815735 158.578369,255.815948 
	C158.208542,255.491455 158.378677,255.283768 159.291550,255.073364 
	C178.967270,254.985382 197.985397,254.969849 217.003540,254.954315 
	C217.276566,255.033630 217.511902,255.175446 217.826920,255.550476 
z"/>
<path fill="#286DBE" opacity="1.000000" stroke="none" 
	d="
M217.004120,254.716797 
	C197.985397,254.969849 178.967270,254.985382 159.482361,254.993225 
	C160.741470,254.657440 162.466187,254.051285 164.193329,254.044250 
	C181.484146,253.973770 198.775360,254.001877 216.535675,254.003235 
	C217.004883,254.004272 217.004684,254.479294 217.004120,254.716797 
z"/>
<path fill="#19518F" opacity="1.000000" stroke="none" 
	d="
M331.042175,273.302521 
	C328.160431,277.168243 324.916351,280.912628 320.814453,285.647125 
	C320.814453,275.836273 320.814453,266.912903 320.851685,257.533020 
	C321.260468,260.390839 321.794525,263.697021 321.960419,267.021606 
	C322.147583,270.771698 322.003479,274.538330 322.003479,279.281006 
	C325.387360,276.902008 328.033600,275.041626 331.042175,273.302521 
z"/>
<path fill="#1360B4" opacity="1.000000" stroke="none" 
	d="
M320.700195,253.706726 
	C302.638245,254.002914 284.285217,253.999802 265.462921,253.991837 
	C266.220032,253.657883 267.445343,253.046768 268.672882,253.042267 
	C285.276306,252.981201 301.880096,252.999954 318.483734,253.023682 
	C319.125671,253.024597 319.767303,253.273880 320.700195,253.706726 
z"/>
<path fill="#215799" opacity="1.000000" stroke="none" 
	d="
M358.665894,257.013916 
	C352.283661,260.677032 345.486511,264.317078 338.340088,267.751953 
	C337.987640,267.356445 337.984406,267.166077 337.981171,266.975739 
	C343.782715,261.708618 350.399109,258.095764 358.665894,257.013916 
z"/>
<path fill="#215799" opacity="1.000000" stroke="none" 
	d="
M465.431824,473.007996 
	C464.998749,472.694183 464.992188,472.393463 464.971191,471.867493 
	C466.774902,471.436279 468.581635,471.230621 470.954163,470.960571 
	C471.080261,469.326904 471.215546,467.574524 471.506775,465.394714 
	C471.958771,464.967865 472.254547,464.976257 472.772003,464.993164 
	C473.085785,473.007812 473.085785,473.007812 465.431824,473.007996 
z"/>
<path fill="#215799" opacity="1.000000" stroke="none" 
	d="
M414.617645,471.494171 
	C415.032959,471.940338 415.025055,472.240753 415.008850,472.766327 
	C412.811035,472.532074 410.613556,472.072449 408.271179,471.269958 
	C410.151672,471.067596 412.177063,471.208130 414.617645,471.494171 
z"/>
<path fill="#225D8E" opacity="1.000000" stroke="none" 
	d="
M390.131775,320.120850 
	C391.547607,320.742371 392.914948,321.742340 394.394409,323.022522 
	C393.032135,322.368286 391.557678,321.433777 390.131775,320.120850 
z"/>
<path fill="#2B65A3" opacity="1.000000" stroke="none" 
	d="
M156.086533,209.909454 
	C154.966232,208.607132 153.975830,207.177933 153.000198,205.088135 
	C153.035202,204.221161 153.055405,204.014801 153.334366,204.025085 
	C154.553604,206.003571 155.514084,207.765366 156.474579,209.527176 
	C156.474579,209.527176 156.216415,209.782578 156.086533,209.909454 
z"/>
<path fill="#19518F" opacity="1.000000" stroke="none" 
	d="
M335.919250,269.176727 
	C335.257294,270.277008 334.194519,271.294312 332.840210,272.399353 
	C333.538605,271.355957 334.528503,270.224884 335.919250,269.176727 
z"/>
<path fill="#215799" opacity="1.000000" stroke="none" 
	d="
M454.738525,279.988647 
	C453.749359,279.502411 452.848969,278.643127 451.849609,277.483337 
	C452.776184,277.993774 453.801727,278.804688 454.738525,279.988647 
z"/>
<path fill="#225D8E" opacity="1.000000" stroke="none" 
	d="
M345.099915,317.823730 
	C345.885132,317.079529 347.044067,316.434326 348.545776,315.774048 
	C347.750244,316.480194 346.611969,317.201447 345.099915,317.823730 
z"/>
<path fill="#215799" opacity="1.000000" stroke="none" 
	d="
M451.878265,276.840576 
	C450.877655,276.400574 449.942413,275.565155 448.913879,274.425232 
	C449.861633,274.895538 450.902649,275.670319 451.878265,276.840576 
z"/>
<path fill="#215799" opacity="1.000000" stroke="none" 
	d="
M458.957703,285.738220 
	C458.273743,285.324005 457.612488,284.534241 456.872009,283.441986 
	C457.522003,283.880554 458.251190,284.621613 458.957703,285.738220 
z"/>
<path fill="#225D8E" opacity="1.000000" stroke="none" 
	d="
M399.089020,329.182556 
	C399.787415,329.620026 400.433197,330.436493 401.134155,331.569702 
	C400.471680,331.111511 399.754028,330.336548 399.089020,329.182556 
z"/>
<path fill="#246AC9" opacity="1.000000" stroke="none" 
	d="
M256.730408,471.021851 
	C256.981537,471.446106 256.990356,471.881470 256.999359,472.642944 
	C256.514771,472.426910 256.029999,471.884766 255.774460,471.173950 
	C256.003693,471.005310 256.488068,471.032959 256.730408,471.021851 
z"/>
<path fill="#5087C2" opacity="1.000000" stroke="none" 
	d="
M155.129791,469.941284 
	C155.395447,470.202515 155.322693,470.394470 155.154129,470.880859 
	C154.414902,470.372162 153.771515,469.569000 153.143768,468.425232 
	C153.159409,468.084656 153.524612,468.107727 153.704285,468.137054 
	C154.186447,468.734924 154.488922,469.303467 155.129791,469.941284 
z"/>
<path fill="#225D8E" opacity="1.000000" stroke="none" 
	d="
M397.327087,326.966431 
	C397.991211,327.160492 398.542969,327.716309 399.156250,328.570129 
	C398.550079,328.354767 397.882416,327.841492 397.327087,326.966431 
z"/>
<path fill="#215799" opacity="1.000000" stroke="none" 
	d="
M406.737885,467.176147 
	C406.985992,467.738739 406.991180,468.492004 406.991058,469.621613 
	C406.822174,469.120911 406.658569,468.243866 406.737885,467.176147 
z"/>
<path fill="#226BC7" opacity="1.000000" stroke="none" 
	d="
M323.282227,350.766846 
	C323.167480,350.114594 323.314056,349.262543 323.716888,348.204681 
	C323.829926,348.854950 323.686707,349.710999 323.282227,350.766846 
z"/>
<path fill="#225D8E" opacity="1.000000" stroke="none" 
	d="
M404.115295,339.090820 
	C404.512756,339.251801 404.876404,339.756317 405.243011,340.590393 
	C404.857788,340.424744 404.469635,339.929565 404.115295,339.090820 
z"/>
<path fill="#1360B4" opacity="1.000000" stroke="none" 
	d="
M153.786194,257.150513 
	C154.011200,257.455780 154.007034,257.899139 153.987091,258.674866 
	C153.833191,258.434357 153.695084,257.861481 153.786194,257.150513 
z"/>
<path fill="#215799" opacity="1.000000" stroke="none" 
	d="
M456.876770,282.844421 
	C456.445770,282.766724 456.041626,282.340454 455.579346,281.617004 
	C455.981995,281.711823 456.442841,282.103821 456.876770,282.844421 
z"/>
<path fill="#285F9B" opacity="1.000000" stroke="none" 
	d="
M153.075623,203.808426 
	C153.055405,204.014801 153.035202,204.221161 152.992950,204.738327 
	C152.645706,204.588196 152.320480,204.127258 151.953033,203.376923 
	C151.910812,203.087494 152.063293,202.946991 152.367828,202.958313 
	C152.963196,203.174042 153.097610,203.453644 153.075623,203.808426 
z"/>
<path fill="#285F9B" opacity="1.000000" stroke="none" 
	d="
M151.006927,171.324753 
	C151.327438,171.087265 151.570312,171.254730 151.852142,171.972260 
	C151.698181,172.679153 151.447006,172.920471 151.195847,173.161789 
	C151.195847,173.161789 151.061020,173.045456 150.993713,172.985626 
	C150.946808,172.498932 150.967194,172.072052 151.006927,171.324753 
z"/>
<path fill="#225D8E" opacity="1.000000" stroke="none" 
	d="
M386.418884,317.799194 
	C386.963226,317.632874 387.497131,317.837250 388.190613,318.282959 
	C387.702942,318.406158 387.055695,318.288025 386.418884,317.799194 
z"/>
<path fill="#225D8E" opacity="1.000000" stroke="none" 
	d="
M388.366943,318.846252 
	C388.896698,318.751831 389.430908,319.012207 390.092529,319.547180 
	C389.603760,319.614868 388.987579,319.407928 388.366943,318.846252 
z"/>
<path fill="#225D8E" opacity="1.000000" stroke="none" 
	d="
M394.477661,323.771545 
	C395.017181,323.755310 395.466919,324.077179 396.005249,324.677734 
	C395.525208,324.674133 394.956512,324.391907 394.477661,323.771545 
z"/>
<path fill="#225D8E" opacity="1.000000" stroke="none" 
	d="
M396.051025,325.247620 
	C396.491028,325.294556 396.938568,325.682770 397.435059,326.371674 
	C397.008820,326.311218 396.533722,325.950043 396.051025,325.247620 
z"/>
<path fill="#5087C2" opacity="1.000000" stroke="none" 
	d="
M219.069702,471.941589 
	C218.474609,472.061188 217.924988,471.959808 217.168884,471.670349 
	C217.435257,471.351776 217.908096,471.221283 218.744019,471.180115 
	C219.107086,471.269409 219.115143,471.720581 219.069702,471.941589 
z"/>
<path fill="#225D8E" opacity="1.000000" stroke="none" 
	d="
M403.134857,336.111877 
	C403.501251,336.304047 403.817993,336.818115 404.081604,337.639832 
	C403.714081,337.442932 403.399658,336.938324 403.134857,336.111877 
z"/>
<path fill="#225D8E" opacity="1.000000" stroke="none" 
	d="
M402.146545,334.114441 
	C402.547516,334.268860 402.893982,334.765839 403.256195,335.578735 
	C402.878632,335.415436 402.485352,334.936218 402.146545,334.114441 
z"/>
<path fill="#225D8E" opacity="1.000000" stroke="none" 
	d="
M401.102539,332.166931 
	C401.485779,332.307343 401.842773,332.786316 402.243347,333.573059 
	C401.883392,333.422394 401.479858,332.963928 401.102539,332.166931 
z"/>
<path fill="#19518F" opacity="1.000000" stroke="none" 
	d="
M337.073456,268.297729 
	C337.170746,268.593872 336.957336,268.906006 336.451721,269.275452 
	C336.360596,268.993073 336.561676,268.653412 337.073456,268.297729 
z"/>
<path fill="#19518F" opacity="1.000000" stroke="none" 
	d="
M337.738007,267.152618 
	C337.984406,267.166077 337.987640,267.356445 337.997620,267.832336 
	C338.004395,268.117920 337.783783,268.441589 337.590698,268.463623 
	C337.430023,268.100281 337.462433,267.714905 337.738007,267.152618 
z"/>
<path fill="#19518F" opacity="1.000000" stroke="none" 
	d="
M332.087097,272.324951 
	C332.221710,272.659088 332.039703,272.986023 331.560364,273.348083 
	C331.432159,273.028076 331.601318,272.672913 332.087097,272.324951 
z"/>
<path fill="#215799" opacity="1.000000" stroke="none" 
	d="
M455.659546,281.097839 
	C455.358459,281.211823 455.059875,281.012756 454.686493,280.546204 
	C454.961792,280.447388 455.311920,280.616119 455.659546,281.097839 
z"/>
<path fill="#215799" opacity="1.000000" stroke="none" 
	d="
M407.113220,470.232117 
	C406.999969,470.014893 407.457458,470.000397 407.686218,469.993896 
	C407.915009,469.987396 408.106659,470.409760 408.092896,470.639832 
	C407.729218,470.862915 407.445007,470.722717 407.113220,470.232117 
z"/>
<path fill="#225D8E" opacity="1.000000" stroke="none" 
	d="
M385.221680,317.000916 
	C385.498566,316.803467 385.845856,316.909058 386.301697,317.265747 
	C386.037567,317.445862 385.664825,317.374908 385.221680,317.000916 
z"/>
<path fill="#2B65A3" opacity="1.000000" stroke="none" 
	d="
M168.993240,151.983383 
	C169.067947,151.610901 169.273026,151.370026 169.756699,151.077850 
	C169.971512,150.972214 170.238602,151.284622 170.197067,151.621185 
	C169.835861,152.042572 169.516174,152.127396 169.196503,152.212219 
	C169.196503,152.212219 169.059830,152.060684 168.993240,151.983383 
z"/>
<path fill="#5087C2" opacity="1.000000" stroke="none" 
	d="
M156.812088,471.289459 
	C156.712921,471.462189 156.372116,471.461304 156.005630,471.251343 
	C156.176773,471.066772 156.373611,471.091278 156.812088,471.289459 
z"/>
<path fill="#FAFDFE" opacity="1.000000" stroke="none" 
	d="
M169.008240,152.494690 
	C169.516174,152.127396 169.835861,152.042572 170.329895,151.778000 
	C187.795776,144.635681 203.107986,147.396393 216.540558,161.027863 
	C224.949448,171.996597 228.483200,183.984772 224.457565,197.206726 
	C219.985703,211.894180 209.931549,221.384293 194.860779,224.407578 
	C179.488419,227.491394 166.790161,222.153992 156.750610,209.707870 
	C155.514084,207.765366 154.553604,206.003571 153.334366,204.025085 
	C153.097610,203.453644 152.963196,203.174042 152.444687,202.888733 
	C149.296127,193.298874 148.351547,183.720169 151.198456,173.584717 
	C151.447006,172.920471 151.698181,172.679153 151.961243,172.169006 
	C155.934357,164.068329 160.848907,157.076385 169.008240,152.494690 
z"/>
</svg>