<svg version="1.1" id="Layer_1" xmlns="http://www.w3.org/2000/svg" xmlns:xlink="http://www.w3.org/1999/xlink" x="0px" y="0px"
	 width="100%" viewBox="0 0 146 144" enable-background="new 0 0 146 144" xml:space="preserve">
<path fill="none" opacity="1.000000" stroke="#000000" stroke-linecap="round" stroke-linejoin="round" stroke-width="6.000000"
	d="
M136.750000,74.000000 
	C136.018219,59.442997 131.169739,46.614906 121.542313,35.463470 
	C99.193253,9.576595 58.502628,8.257961 34.997772,31.497749 
	C16.487160,49.799610 11.084069,71.578255 19.674374,95.938507 
	C27.157316,117.158524 42.697910,130.144974 65.003098,134.484100 
	C89.429405,139.235840 109.086243,130.560959 124.355049,111.881516 
	C131.964737,102.572052 136.230728,91.361343 136.517960,79.000420 
	C136.552872,77.497353 136.833328,76.000000 137.000000,74.500000 
"/>
<path fill="none" opacity="1.000000" stroke="#000000" stroke-linecap="round" stroke-linejoin="round" stroke-width="6.000000"
	d="
M76.500000,114.500000 
	C88.239494,104.992996 95.943939,92.750191 100.449600,78.484085 
	C103.028893,70.317352 104.259239,62.058891 101.569923,53.478085 
	C97.861351,41.645123 84.928841,33.182011 71.514481,35.580986 
	C59.822075,37.672012 49.635376,47.430939 49.536777,62.000248 
	C49.426586,78.281685 56.426472,91.975922 66.097054,104.424599 
	C68.950272,108.097466 71.314568,112.518768 76.000000,114.500000 
"/>
<path fill="none" opacity="1.000000" stroke="#000000" stroke-linecap="round" stroke-linejoin="round" stroke-width="6.000000"
	d="
M76.500000,74.500000 
	C85.639465,74.232964 88.595924,68.023125 88.915833,61.995533 
	C89.279922,55.135471 83.610207,49.730824 76.500000,49.500000 
	C69.715782,49.279751 63.879547,54.667057 63.500004,61.500000 
	C63.127590,68.204613 68.698227,74.109497 76.000000,74.750000 
"/>
</svg>