<svg version="1.1" id="Layer_1" xmlns="http://www.w3.org/2000/svg" xmlns:xlink="http://www.w3.org/1999/xlink" x="0px" y="0px"
	 width="100%" viewBox="0 0 640 480" enable-background="new 0 0 640 480" xml:space="preserve">
<path fill="#FEFEFF" opacity="1.000000" stroke="none" 
	d="
M458.000000,481.000000 
	C305.333344,481.000000 153.166672,481.000000 1.000000,481.000000 
	C1.000000,321.000000 1.000000,161.000000 1.000000,1.000000 
	C214.333328,1.000000 427.666656,1.000000 641.000000,1.000000 
	C641.000000,161.000000 641.000000,321.000000 641.000000,481.000000 
	C580.166687,481.000000 519.333313,481.000000 458.000000,481.000000 
M388.606262,447.121979 
	C431.841522,432.620575 467.545410,407.367920 494.666779,370.773041 
	C528.492371,325.132080 542.695190,273.669312 536.347717,217.115540 
	C529.353577,154.800766 500.228577,104.487740 450.238647,67.019218 
	C404.743103,32.919350 352.940857,19.165270 296.402863,25.699295 
	C234.337433,32.872116 184.171432,62.021225 146.888138,111.936363 
	C113.106277,157.163757 98.797592,208.646133 105.757973,264.770874 
	C115.832832,346.009125 158.908569,404.521393 232.953644,438.922272 
	C282.994171,462.170776 335.170715,463.695251 388.606262,447.121979 
z"/>
<path fill="#040507" opacity="1.000000" stroke="none" 
	d="
M388.226868,447.239319 
	C335.170715,463.695251 282.994171,462.170776 232.953644,438.922272 
	C158.908569,404.521393 115.832832,346.009125 105.757973,264.770874 
	C98.797592,208.646133 113.106277,157.163757 146.888138,111.936363 
	C184.171432,62.021225 234.337433,32.872116 296.402863,25.699295 
	C352.940857,19.165270 404.743103,32.919350 450.238647,67.019218 
	C500.228577,104.487740 529.353577,154.800766 536.347717,217.115540 
	C542.695190,273.669312 528.492371,325.132080 494.666779,370.773041 
	C467.545410,407.367920 431.841522,432.620575 388.226868,447.239319 
M401.737335,134.233749 
	C379.669464,158.071091 357.601593,181.908417 335.374084,205.918182 
	C334.297394,204.571075 333.554688,203.692078 332.865845,202.772690 
	C311.914185,174.808823 290.925049,146.872711 270.088501,118.823273 
	C268.064331,116.098404 265.988983,115.120102 262.661957,115.138870 
	C239.500244,115.269554 216.337433,115.203438 193.174973,115.200470 
	C191.478973,115.200249 189.782990,115.200455 187.164520,115.200455 
	C222.207550,162.069626 256.511230,207.949921 290.909668,253.956985 
	C256.153046,291.517151 221.681046,328.769714 186.497589,366.791138 
	C194.354065,366.791138 200.837906,366.955688 207.303085,366.681274 
	C209.029236,366.608032 211.137863,365.603088 212.327972,364.330841 
	C230.972778,344.399719 249.496658,324.355499 268.046356,304.335419 
	C279.115753,292.388550 290.181580,280.438385 301.444946,268.278168 
	C302.810577,269.985596 303.985931,271.372803 305.072784,272.826141 
	C327.680725,303.057465 350.312927,333.270844 372.813385,363.581970 
	C374.611603,366.004425 376.387909,366.879181 379.359802,366.861023 
	C400.688477,366.730591 422.018341,366.790955 443.347809,366.790771 
	C447.088837,366.790710 450.829865,366.790741 455.495636,366.790741 
	C418.613464,317.475281 382.310974,268.934937 345.905762,220.257248 
	C378.162262,185.389496 410.229553,150.726242 442.812225,115.505898 
	C419.962646,114.029915 419.963257,114.030449 405.939941,129.680573 
	C404.719482,131.042603 403.483917,132.391159 401.737335,134.233749 
z"/>
<path fill="#FAFAFA" opacity="1.000000" stroke="none" 
	d="
M401.996338,133.989868 
	C403.483917,132.391159 404.719482,131.042603 405.939941,129.680573 
	C419.963257,114.030449 419.962646,114.029915 442.812225,115.505898 
	C410.229553,150.726242 378.162262,185.389496 345.905762,220.257248 
	C382.310974,268.934937 418.613464,317.475281 455.495636,366.790741 
	C450.829865,366.790741 447.088837,366.790710 443.347809,366.790771 
	C422.018341,366.790955 400.688477,366.730591 379.359802,366.861023 
	C376.387909,366.879181 374.611603,366.004425 372.813385,363.581970 
	C350.312927,333.270844 327.680725,303.057465 305.072784,272.826141 
	C303.985931,271.372803 302.810577,269.985596 301.444946,268.278168 
	C290.181580,280.438385 279.115753,292.388550 268.046356,304.335419 
	C249.496658,324.355499 230.972778,344.399719 212.327972,364.330841 
	C211.137863,365.603088 209.029236,366.608032 207.303085,366.681274 
	C200.837906,366.955688 194.354065,366.791138 186.497589,366.791138 
	C221.681046,328.769714 256.153046,291.517151 290.909668,253.956985 
	C256.511230,207.949921 222.207550,162.069626 187.164520,115.200455 
	C189.782990,115.200455 191.478973,115.200249 193.174973,115.200470 
	C216.337433,115.203438 239.500244,115.269554 262.661957,115.138870 
	C265.988983,115.120102 268.064331,116.098404 270.088501,118.823273 
	C290.925049,146.872711 311.914185,174.808823 332.865845,202.772690 
	C333.554688,203.692078 334.297394,204.571075 335.374084,205.918182 
	C357.601593,181.908417 379.669464,158.071091 401.996338,133.989868 
M268.610626,194.878555 
	C275.780487,204.479614 282.945557,214.084290 290.121063,223.681091 
	C320.696259,264.573486 351.269135,305.467590 381.880554,346.332855 
	C382.714478,347.446075 383.962616,349.039337 385.040741,349.057861 
	C396.580994,349.255737 408.125946,349.180908 420.492889,349.180908 
	C409.735443,334.816956 399.574005,321.267395 389.432007,307.703308 
	C346.595215,250.412537 303.769989,193.113113 260.892242,135.852997 
	C259.972290,134.624435 258.489838,132.988083 257.241821,132.963501 
	C245.873596,132.739838 234.499130,132.832214 222.244629,132.832214 
	C237.976379,153.904480 253.064133,174.114120 268.610626,194.878555 
z"/>
<path fill="#050608" opacity="1.000000" stroke="none" 
	d="
M268.381256,194.601166 
	C253.064133,174.114120 237.976379,153.904480 222.244629,132.832214 
	C234.499130,132.832214 245.873596,132.739838 257.241821,132.963501 
	C258.489838,132.988083 259.972290,134.624435 260.892242,135.852997 
	C303.769989,193.113113 346.595215,250.412537 389.432007,307.703308 
	C399.574005,321.267395 409.735443,334.816956 420.492889,349.180908 
	C408.125946,349.180908 396.580994,349.255737 385.040741,349.057861 
	C383.962616,349.039337 382.714478,347.446075 381.880554,346.332855 
	C351.269135,305.467590 320.696259,264.573486 290.121063,223.681091 
	C282.945557,214.084290 275.780487,204.479614 268.381256,194.601166 
z"/>
</svg>